<?xml version="1.0" encoding="utf-8"?>
<!-- Generator: Adobe Illustrator 23.0.2, SVG Export Plug-In . SVG Version: 6.00 Build 0)  -->
<svg version="1.1" id="Laag_1" xmlns="http://www.w3.org/2000/svg" xmlns:xlink="http://www.w3.org/1999/xlink" x="0px" y="0px"
	 width="1440px" height="875px" viewBox="0 0 1440 875" style="enable-background:new 0 0 1440 875;" xml:space="preserve">
<style type="text/css">
	.st0{opacity:0.5;fill-rule:evenodd;clip-rule:evenodd;fill:url(#Background-base_1_);enable-background:new    ;}
	.st1{fill:url(#Window-base_1_);}
	.st2{fill:none;stroke:#8AAFE1;stroke-width:4;stroke-linecap:round;stroke-linejoin:round;}
	.st3{fill:none;stroke:#8AAFE1;stroke-width:2;stroke-linecap:round;stroke-linejoin:round;stroke-dasharray:10,10;}
	.st4{fill:url(#SVGID_1_);}
	.st5{fill:url(#SVGID_2_);}
	.st6{fill:url(#SVGID_3_);}
	.st7{fill:url(#UI-base_1_);}
	.st8{fill:url(#SVGID_4_);}
	.st9{fill:#E0E5FF;}
	.st10{fill:url(#SVGID_5_);}
	.st11{fill:url(#Titlebar-base_1_);}
	.st12{fill:#FFFFFF;}
	.st13{fill:url(#Table-base_1_);}
	.st14{fill:url(#SVGID_6_);}
	.st15{fill:url(#SVGID_7_);}
	.st16{fill:url(#SVGID_8_);}
	.st17{filter:url(#Adobe_OpacityMaskFilter);}
	.st18{fill-rule:evenodd;clip-rule:evenodd;fill:#FFFFFF;}
	.st19{mask:url(#mask-9_1_);fill:#42B16D;}
	.st20{fill:url(#SVGID_9_);}
	.st21{fill:url(#SVGID_10_);}
	.st22{fill:url(#Imac-base_1_);}
	.st23{fill:#B7C8FF;}
	.st24{fill:url(#Note-base_1_);}
	.st25{fill:url(#SVGID_11_);}
	.st26{fill:url(#Pen-base_1_);}
	.st27{fill:url(#SVGID_12_);}
	.st28{fill:#F2F5FF;}
	.st29{fill:#F2A384;}
	.st30{fill:url(#Pants_1_);}
	.st31{fill:url(#Shoes_1_);}
	.st32{fill:url(#SVGID_13_);}
	.st33{fill:url(#SVGID_14_);}
	.st34{fill:none;stroke:#5F90CC;stroke-linecap:round;stroke-linejoin:round;stroke-dasharray:5,10;}
	.st35{fill:url(#SVGID_15_);}
	.st36{filter:url(#Adobe_OpacityMaskFilter_1_);}
	.st37{opacity:0.5;mask:url(#mask-17_1_);fill:#ABC0FF;enable-background:new    ;}
	.st38{fill:url(#hair_1_);}
	.st39{fill:url(#Hair_1_);}
	.st40{fill:url(#Sleeve_1_);}
	.st41{fill:#BF8D30;}
	.st42{fill:url(#SVGID_16_);}
	.st43{fill-rule:evenodd;clip-rule:evenodd;fill:url(#Neck_1_);}
	.st44{fill:url(#hairbands_1_);}
	.st45{fill:url(#SVGID_17_);}
	.st46{fill:url(#SVGID_18_);}
	.st47{fill:url(#SVGID_19_);}
	.st48{fill:url(#SVGID_20_);}
	.st49{fill:url(#SVGID_21_);}
	.st50{fill:url(#SVGID_22_);}
	.st51{fill:none;stroke:#1542AB;}
	.st52{fill:url(#SVGID_23_);}
	.st53{fill:url(#SVGID_24_);}
	.st54{fill:url(#SVGID_25_);}
	.st55{filter:url(#Adobe_OpacityMaskFilter_2_);}
	.st56{opacity:0.5;mask:url(#mask-23_1_);fill:#EEB84E;enable-background:new    ;}
	.st57{fill:url(#Path-46_1_);}
	.st58{fill:url(#SVGID_26_);}
	.st59{filter:url(#Adobe_OpacityMaskFilter_3_);}
	.st60{opacity:0.5;mask:url(#mask-25_1_);fill:#EEB84E;enable-background:new    ;}
	.st61{fill:#B06C57;}
	.st62{fill:url(#SVGID_27_);}
	.st63{fill:url(#SVGID_28_);}
	.st64{fill:url(#SVGID_29_);}
	.st65{fill:#111AA7;}
	.st66{fill:url(#SVGID_30_);}
	.st67{fill:url(#SVGID_31_);}
	.st68{fill:#D2D9FF;}
	.st69{fill:url(#Wheel_1_);}
	.st70{fill:url(#SVGID_32_);}
	.st71{fill:url(#SVGID_33_);}
	.st72{fill:url(#SVGID_34_);}
	.st73{fill:url(#SVGID_35_);}
	.st74{fill:url(#SVGID_36_);}
	.st75{opacity:0.8062;fill-rule:evenodd;clip-rule:evenodd;fill:#E2EBFC;enable-background:new    ;}
	.st76{fill:url(#Leaf_1_);}
	.st77{fill:#98BBE9;}
	.st78{fill:#8FAFDA;}
	.st79{fill:url(#SVGID_37_);}
	.st80{fill:#5ACE87;}
	.st81{fill:#42B16D;}
	.st82{fill:url(#SVGID_38_);}
	.st83{fill:#D2DEF8;}
	.st84{fill:url(#Vase-base_1_);}
	.st85{fill:url(#SVGID_39_);}
</style>
<title>CRM 1@2x</title>
<desc>Created with Sketch.</desc>
<g id="CRM-1">
	
		<linearGradient id="Background-base_1_" gradientUnits="userSpaceOnUse" x1="80.4444" y1="713.1616" x2="80.4444" y2="712.3023" gradientTransform="matrix(1440 0 0 -654.9984 -115120 467431.875)">
		<stop  offset="0" style="stop-color:#E9F0FB"/>
		<stop  offset="1" style="stop-color:#FFFFFF"/>
	</linearGradient>
	<path id="Background-base" class="st0" d="M0.9,313.5c113-74.4,261.1-104.4,444.3-90C720,245.1,702.5,411.3,1440,344.7V875H0
		L0.9,313.5z"/>
	<g id="Window" transform="translate(148.000000, 113.000000)">
		
			<linearGradient id="Window-base_1_" gradientUnits="userSpaceOnUse" x1="-67.5184" y1="600.1437" x2="-68.3565" y2="597.3958" gradientTransform="matrix(753 0 0 -539 51284 323485)">
			<stop  offset="0" style="stop-color:#F7FAFF"/>
			<stop  offset="1" style="stop-color:#6B9AD9"/>
		</linearGradient>
		<path id="Window-base" class="st1" d="M20-113h713c11,0,20,9,20,20v515c0,2.2-1.8,4-4,4H4c-2.2,0-4-1.8-4-4V-93
			C0-104,9-113,20-113z"/>
		<g id="Chart-bar" transform="translate(395.000000, 137.000000)">
			<path id="Chart-bar-base" class="st2" d="M4-63h32c2.2,0,4,1.8,4,4v52c0,2.2-1.8,4-4,4H4C1.8-3,0-4.8,0-7v-52C0-61.2,1.8-63,4-63
				z"/>
			<path class="st3" d="M104-83h32c2.2,0,4,1.8,4,4v72c0,2.2-1.8,4-4,4h-32c-2.2,0-4-1.8-4-4v-72C100-81.2,101.8-83,104-83z"/>
			
				<linearGradient id="SVGID_1_" gradientUnits="userSpaceOnUse" x1="-464.2283" y1="470.1959" x2="-464.6141" y2="468.6396" gradientTransform="matrix(40 0 0 -30 18750 14055)">
				<stop  offset="0" style="stop-color:#E5EDFF"/>
				<stop  offset="1" style="stop-color:#6B9AD9"/>
			</linearGradient>
			<path class="st4" d="M154-33h32c2.2,0,4,1.8,4,4v22c0,2.2-1.8,4-4,4h-32c-2.2,0-4-1.8-4-4v-22C150-31.2,151.8-33,154-33z"/>
			
				<linearGradient id="SVGID_2_" gradientUnits="userSpaceOnUse" x1="-464.2283" y1="466.8959" x2="-464.6141" y2="465.3396" gradientTransform="matrix(40 0 0 -60 18801 27915)">
				<stop  offset="0" style="stop-color:#E5EDFF"/>
				<stop  offset="1" style="stop-color:#6B9AD9"/>
			</linearGradient>
			<path class="st5" d="M205-63h32c2.2,0,4,1.8,4,4v52c0,2.2-1.8,4-4,4h-32c-2.2,0-4-1.8-4-4v-52C201-61.2,202.8-63,205-63z"/>
			
				<linearGradient id="SVGID_3_" gradientUnits="userSpaceOnUse" x1="-464.2283" y1="465.7959" x2="-464.6141" y2="464.2396" gradientTransform="matrix(40 0 0 -90 18851 41775)">
				<stop  offset="0" style="stop-color:#E5EDFF"/>
				<stop  offset="1" style="stop-color:#6B9AD9"/>
			</linearGradient>
			<path class="st6" d="M255-93h32c2.2,0,4,1.8,4,4v82c0,2.2-1.8,4-4,4h-32c-2.2,0-4-1.8-4-4v-82C251-91.2,252.8-93,255-93z"/>
			<path class="st3" d="M54-113h32c2.2,0,4,1.8,4,4V-7c0,2.2-1.8,4-4,4H54c-2.2,0-4-1.8-4-4v-102C50-111.2,51.8-113,54-113z"/>
		</g>
		<g id="UI" transform="translate(50.000000, 147.000000)">
			
				<linearGradient id="UI-base_1_" gradientUnits="userSpaceOnUse" x1="-118.6076" y1="457.0097" x2="-118.9935" y2="455.4534" gradientTransform="matrix(58 0 0 -58 7135 26359)">
				<stop  offset="0" style="stop-color:#E5EDFF"/>
				<stop  offset="1" style="stop-color:#6B9AD9"/>
			</linearGradient>
			<path id="UI-base" class="st7" d="M215-113h50c2.2,0,4,1.8,4,4v50c0,2.2-1.8,4-4,4h-50c-2.2,0-4-1.8-4-4v-50
				C211-111.2,212.8-113,215-113z"/>
			<path class="st3" d="M5-113h140c2.2,0,4,1.8,4,4v50c0,2.2-1.8,4-4,4H5c-2.2,0-4-1.8-4-4v-50C1-111.2,2.8-113,5-113z"/>
			
				<linearGradient id="SVGID_4_" gradientUnits="userSpaceOnUse" x1="-117.6777" y1="457.0097" x2="-118.0636" y2="455.4534" gradientTransform="matrix(178 0 0 -58 21085 26439)">
				<stop  offset="0" style="stop-color:#E5EDFF"/>
				<stop  offset="1" style="stop-color:#6B9AD9"/>
			</linearGradient>
			<path class="st8" d="M5-33h170c2.2,0,4,1.8,4,4v50c0,2.2-1.8,4-4,4H5c-2.2,0-4-1.8-4-4v-50C1-31.2,2.8-33,5-33z"/>
			<path class="st2" d="M215-25h50c2.2,0,4,1.8,4,4v50c0,2.2-1.8,4-4,4h-50c-2.2,0-4-1.8-4-4v-50C211-23.2,212.8-25,215-25z"/>
			<path class="st9" d="M215,63h50c2.2,0,4,1.8,4,4v50c0,2.2-1.8,4-4,4h-50c-2.2,0-4-1.8-4-4V67C211,64.8,212.8,63,215,63z"/>
			<path class="st3" d="M215,151h50c2.2,0,4,1.8,4,4v50c0,2.2-1.8,4-4,4h-50c-2.2,0-4-1.8-4-4v-50C211,152.8,212.8,151,215,151z"/>
			
				<linearGradient id="SVGID_5_" gradientUnits="userSpaceOnUse" x1="-117.6703" y1="454.6779" x2="-118.0561" y2="453.1216" gradientTransform="matrix(181 0 0 -183 21438 83145)">
				<stop  offset="0" style="stop-color:#E5EDFF"/>
				<stop  offset="1" style="stop-color:#6B9AD9"/>
			</linearGradient>
			<path class="st10" d="M4,48h173c2.2,0,4,1.8,4,4v175c0,2.2-1.8,4-4,4H4c-2.2,0-4-1.8-4-4V52C0,49.8,1.8,48,4,48z"/>
		</g>
		<g id="Titlebar">
			
				<linearGradient id="Titlebar-base_1_" gradientUnits="userSpaceOnUse" x1="-67.6199" y1="602.3835" x2="-67.3424" y2="592.9608" gradientTransform="matrix(753 0 0 -79 51284 47485)">
				<stop  offset="0" style="stop-color:#476DB1"/>
				<stop  offset="1" style="stop-color:#283F6F"/>
			</linearGradient>
			<path id="Titlebar-base" class="st11" d="M20-113h713c11,0,20,9,20,20v55c0,2.2-1.8,4-4,4H4c-2.2,0-4-1.8-4-4v-55
				C0-104,9-113,20-113z"/>
			<g id="Titlebar-button" transform="translate(25.000000, 27.000000)">
				<circle class="st12" cx="12.5" cy="-100.5" r="12.5"/>
				<circle class="st12" cx="51.5" cy="-100.5" r="12.5"/>
				<circle class="st12" cx="90.5" cy="-100.5" r="12.5"/>
			</g>
		</g>
		<g id="Chart" transform="translate(413.000000, 304.000000)">
			<path id="Path-52" class="st2" d="M0-112h269.6"/>
			<path id="Path-52-Copy" class="st2" d="M0-80h269.6"/>
			<path id="Path-52-Copy-2" class="st2" d="M0-48h269.6"/>
			<path id="Path-52-Copy-3" class="st2" d="M0-16h269.6"/>
			<path id="Path-52-Copy-4" class="st2" d="M0,16h269.6"/>
			<path id="Path-52-Copy-5" class="st2" d="M0,48h269.6"/>
		</g>
	</g>
	<g id="Table" transform="translate(436.000000, 601.000000)">
		
			<linearGradient id="Table-base_1_" gradientUnits="userSpaceOnUse" x1="-355.542" y1="121.845" x2="-355.7759" y2="120.9845" gradientTransform="matrix(491 0 0 -20 174876 2325)">
			<stop  offset="0" style="stop-color:#476DB1"/>
			<stop  offset="1" style="stop-color:#283F6F"/>
		</linearGradient>
		<polygon id="Table-base" class="st13" points="0,-113 491,-113 491,-93 0,-93 		"/>
		
			<linearGradient id="SVGID_6_" gradientUnits="userSpaceOnUse" x1="-358" y1="114.2314" x2="-358" y2="111.1065" gradientTransform="matrix(32 0 0 -245 11491 27543)">
			<stop  offset="0" style="stop-color:#95B7E5"/>
			<stop  offset="1" style="stop-color:#476DB1"/>
		</linearGradient>
		<path class="st14" d="M23,130.9L46.6-91H23V130.9z M51-95L25.3,147c-0.2,1.7-1.6,3-3.3,3c-1.7,0-3-1.3-3-3V-95H51z"/>
		
			<linearGradient id="SVGID_7_" gradientUnits="userSpaceOnUse" x1="-358" y1="114.2314" x2="-358" y2="111.1065" gradientTransform="matrix(32 0 0 -245 11901 27543)">
			<stop  offset="0" style="stop-color:#95B7E5"/>
			<stop  offset="1" style="stop-color:#476DB1"/>
		</linearGradient>
		<path class="st15" d="M457,130.9V-91h-23.6L457,130.9z M429-95h32v242c0,1.7-1.3,3-3,3c-1.7,0-3.1-1.3-3.3-3L429-95z"/>
	</g>
	<g id="Cactus" transform="translate(830.000000, 523.000000)">
		<g transform="translate(15.000000, 0.000000)">
			<g id="Mask">
				
					<linearGradient id="SVGID_8_" gradientUnits="userSpaceOnUse" x1="-766.8464" y1="193.4021" x2="-766.6736" y2="192.5636" gradientTransform="matrix(35 0 0 -53 26855 10155)">
					<stop  offset="0" style="stop-color:#84F0A8"/>
					<stop  offset="1" style="stop-color:#48B676"/>
				</linearGradient>
				<path class="st16" d="M20-88h3v-11c0-3.3,2.7-6,6-6s6,2.7,6,6v17c0,3.3-2.7,6-6,6c-0.3,0-0.7,0-1-0.1C27.7-76,27.3-76,27-76h-7
					v16H0v-43c0-5.5,4.5-10,10-10s10,4.5,10,10V-88z"/>
			</g>
			<defs>
				<filter id="Adobe_OpacityMaskFilter" filterUnits="userSpaceOnUse" x="0" y="-116" width="34" height="62.8">
					<feColorMatrix  type="matrix" values="1 0 0 0 0  0 1 0 0 0  0 0 1 0 0  0 0 0 1 0"/>
				</filter>
			</defs>
			<mask maskUnits="userSpaceOnUse" x="0" y="-116" width="34" height="62.8" id="mask-9_1_">
				<g class="st17">
					<path id="path-8_1_" class="st18" d="M20-88h3v-11c0-3.3,2.7-6,6-6s6,2.7,6,6v17c0,3.3-2.7,6-6,6c-0.3,0-0.7,0-1-0.1
						C27.7-76,27.3-76,27-76h-7v16H0v-43c0-5.5,4.5-10,10-10s10,4.5,10,10V-88z"/>
				</g>
			</mask>
			<path id="Shape" class="st19" d="M0-116h1v62.8H0V-116z M3-116h1v62.8H3V-116z M6-116h1v62.8H6V-116z M9-116h1v62.8H9V-116z
				 M12-116h1v62.8h-1V-116z M15-116h1v62.8h-1V-116z M18-116h1v62.8h-1V-116z M21-116h1v62.8h-1V-116z M24-116h1v62.8h-1V-116z
				 M27-116h1v62.8h-1V-116z M30-116h1v62.8h-1V-116z M33-116h1v62.8h-1V-116z"/>
		</g>
		<g id="vase" transform="translate(0.000000, 45.000000)">
			
				<linearGradient id="SVGID_9_" gradientUnits="userSpaceOnUse" x1="-750.933" y1="151.8093" x2="-751.3188" y2="150.253" gradientTransform="matrix(50 0 0 -32 37581 4726)">
				<stop  offset="0" style="stop-color:#E5EDFF"/>
				<stop  offset="1" style="stop-color:#6B9AD9"/>
			</linearGradient>
			<polygon class="st20" points="1,-112 51,-112 39.9,-80 12.1,-80 			"/>
			
				<linearGradient id="SVGID_10_" gradientUnits="userSpaceOnUse" x1="-751.1038" y1="165.6386" x2="-751.0234" y2="162.5764" gradientTransform="matrix(51 0 0 -10 38330 1535)">
				<stop  offset="0" style="stop-color:#E5EDFF"/>
				<stop  offset="1" style="stop-color:#6B9AD9"/>
			</linearGradient>
			<path class="st21" d="M2-113h47c1.1,0,2,0.9,2,2v6c0,1.1-0.9,2-2,2H2c-1.1,0-2-0.9-2-2v-6C0-112.1,0.9-113,2-113z"/>
		</g>
	</g>
	<g id="Imac" transform="translate(562.000000, 430.000000)">
		
			<linearGradient id="Imac-base_1_" gradientUnits="userSpaceOnUse" x1="-481.7003" y1="284.3105" x2="-481.9342" y2="283.45" gradientTransform="matrix(249 0 0 -145 120098 41120)">
			<stop  offset="0" style="stop-color:#476DB1"/>
			<stop  offset="1" style="stop-color:#283F6F"/>
		</linearGradient>
		<path id="Imac-base" class="st22" d="M4-113h241c2.2,0,4,1.8,4,4V28c0,2.2-1.8,4-4,4H4c-2.2,0-4-1.8-4-4v-137
			C0-111.2,1.8-113,4-113z"/>
		<polygon class="st23" points="98,31 153,31 153,64 98,64 		"/>
		<polygon class="st12" points="10,-103 239,-103 239,22 10,22 		"/>
	</g>
	<g id="Girl" transform="translate(233.000000, 466.000000)">
		<g id="Note" transform="translate(126.000000, 140.000000)">
			
				<linearGradient id="Note-base_1_" gradientUnits="userSpaceOnUse" x1="-279.0493" y1="108.4441" x2="-279.8878" y2="106.614" gradientTransform="matrix(120.4724 0 0 -116.9147 33691.9063 12595.4355)">
				<stop  offset="0" style="stop-color:#EEF3FF"/>
				<stop  offset="1" style="stop-color:#6B9AD9"/>
			</linearGradient>
			<path id="Note-base" class="st24" d="M67-112.1l51.1,21.4c2,0.9,3,3.2,2.2,5.2c-0.1,0.3-0.2,0.5-0.4,0.8L58.5,2.8
				c-1.1,1.5-3.1,2.1-4.8,1.4L2.6-17.2c-2-0.9-3-3.2-2.2-5.2c0.1-0.3,0.2-0.5,0.4-0.8l61.3-87.6C63.2-112.3,65.2-112.9,67-112.1z"/>
			
				<linearGradient id="SVGID_11_" gradientUnits="userSpaceOnUse" x1="-281.2219" y1="117.6627" x2="-281.6077" y2="116.1064" gradientTransform="matrix(26.6881 0 0 -19.6667 7601.7402 2191.0999)">
				<stop  offset="0" style="stop-color:#E5EDFF"/>
				<stop  offset="1" style="stop-color:#6B9AD9"/>
			</linearGradient>
			<path class="st25" d="M88.1-109.4c2-1.7,5-2.3,7.3-1.4c2.4,0.9,3.3,3.2,2.3,5.4l2.3,1c2,0.9,3,3.2,2.2,5.2
				c-0.2,0.5-0.5,0.9-0.9,1.3l-5.2,5.2c-1.2,1.2-2.9,1.5-4.4,0.8l-13.5-5.8c-2-0.9-3-3.2-2.1-5.3c0.2-0.4,0.4-0.7,0.7-1.1l4.6-5.2
				c1.1-1.3,3-1.7,4.5-1.1L88.1-109.4z M91.2-105.4c1.2,0.4,2.7,0,3.5-1c0.8-1,0.4-2.2-0.7-2.6c-1.2-0.4-2.7,0-3.5,1
				C89.8-107,90.1-105.9,91.2-105.4z"/>
		</g>
		
			<g id="Pen" transform="translate(207.454483, 177.928203) scale(-1, 1) rotate(83.000000) translate(-207.454483, -177.928203) translate(203.454483, 158.928203)">
			
				<linearGradient id="Pen-base_1_" gradientUnits="userSpaceOnUse" x1="125.3967" y1="-361.9519" x2="125.3967" y2="-365.0768" gradientTransform="matrix(-0.6908 -28.7811 5.6258 -3.5339 2013.5568 2278.7275)">
				<stop  offset="0" style="stop-color:#95B7E5"/>
				<stop  offset="1" style="stop-color:#476DB1"/>
			</linearGradient>
			<path id="Pen-base" class="st26" d="M-109.3-10c1.6,0,2.8,1.3,2.8,2.8l0,26.2l-5.7,0l0-26.2C-112.2-8.7-110.9-10-109.3-10z"/>
			
				<linearGradient id="SVGID_12_" gradientUnits="userSpaceOnUse" x1="146.2024" y1="-475.5966" x2="146.2024" y2="-478.7215" gradientTransform="matrix(-0.1535 -9.9083 1.2502 -1.2166 511.7904 847.2605)">
				<stop  offset="0" style="stop-color:#95B7E5"/>
				<stop  offset="1" style="stop-color:#476DB1"/>
			</linearGradient>
			<path class="st27" d="M-105.2-8.5c0.3,0,0.6,0.3,0.6,0.6l0,8.7c0,0.3-0.3,0.6-0.6,0.6s-0.6-0.3-0.6-0.6v-8.7
				C-105.9-8.3-105.6-8.5-105.2-8.5z"/>
			<path class="st28" d="M-109.3-13.8c0.9,0,1.6,0.7,1.6,1.6v2.1c0,0.9-0.7,1.6-1.6,1.6c-0.9,0-1.6-0.7-1.6-1.6v-2.1
				C-110.9-13.1-110.2-13.8-109.3-13.8z"/>
			<polygon class="st28" points="-112.2,18.6 -106.5,18.6 -109,23.8 			"/>
		</g>
		<g id="Foot" transform="translate(0.000000, 269.000000)">
			<path id="Leg" class="st29" d="M212.4,7.2c0.1-1.4,8.5-9.6,17.5-0.1s11.4,12.9,15.5,16.4c2.8,2.4,5.7,4,8.7,4.8L237,29.4
				l-24.7-2.8C212.3,14.6,212.3,8.2,212.4,7.2z"/>
			
				<linearGradient id="Pants_1_" gradientUnits="userSpaceOnUse" x1="-153.0959" y1="-20.7425" x2="-153.0437" y2="-21.501" gradientTransform="matrix(138.2997 0 0 -128.8668 21339.832 -2749.6746)">
				<stop  offset="0" style="stop-color:#1542AB"/>
				<stop  offset="1" style="stop-color:#2B68EE"/>
			</linearGradient>
			<path id="Pants" class="st30" d="M120.5-5.5L100-64c51.6-42.6,88.6-57.2,110.9-43.8c33.5,20.2,26.6,115.3,27,118
				s-19.6,10.3-23.4,2.7s-25.1-53.3-27.2-70C178.2-45,156-27.8,120.5-5.5z"/>
			<polygon class="st29" points="65.2,35.5 38,29.3 30.7,31.7 41.8,17.2 61.1,13.2 			"/>
			
				<linearGradient id="Shoes_1_" gradientUnits="userSpaceOnUse" x1="-153.1583" y1="-15.9862" x2="-154.1583" y2="-15.9862" gradientTransform="matrix(69.0664 0 0 -30.397 10856.0781 -455.1169)">
				<stop  offset="0" style="stop-color:#2865C6"/>
				<stop  offset="1" style="stop-color:#10378A"/>
			</linearGradient>
			<path id="Shoes" class="st31" d="M212.3,15.8c3.6-1.8,8,7.9,14.5,7.9c6.5,0,10.6-8.7,12.2-7.9c4.9,2.6,11.9,3.8,19.7,6.9
				c19.1,7.5,21,8.5,18.2,19.6c0,2.5-21.7,3.7-65.1,3.7c-1.8-5.2-2.7-10-2.8-14.4C208.8,24.9,208.8,17.6,212.3,15.8z"/>
			
				<linearGradient id="SVGID_13_" gradientUnits="userSpaceOnUse" x1="-152.8501" y1="-20.4301" x2="-152.9366" y2="-20.9301" gradientTransform="matrix(189.4633 0 0 -126.6111 29112.2754 -2669.696)">
				<stop  offset="0" style="stop-color:#3485F7"/>
				<stop  offset="1" style="stop-color:#1A57CF"/>
			</linearGradient>
			<path class="st32" d="M231.9,5.9c-15.7,48.4-166,39.3-176.1,34.5c-5.7-2.7,0.2-26.1,3.4-27.2c7.3-2.6,109.8-11.8,90.2-7.3
				S41.7-2,44.5-47.6c1.8-30.1,5.3-38.2,25.1-33.3c10.2,2.5,35,13.4,44.9,16.2C179-46.3,246.2-38.2,231.9,5.9z"/>
			
				<linearGradient id="SVGID_14_" gradientUnits="userSpaceOnUse" x1="-153.4907" y1="-18.6455" x2="-154.4907" y2="-18.6455" gradientTransform="matrix(53.6645 0 0 -51.3691 8291.1816 -935.7073)">
				<stop  offset="0" style="stop-color:#2865C6"/>
				<stop  offset="1" style="stop-color:#10378A"/>
			</linearGradient>
			<path class="st33" d="M54.1,14.6c-0.7,3.4-8.8,0.6-12.4,5s0.3,12.2-1.3,12.8c-4.5,1.7-9.3,5.6-15.8,9C8.7,49.6,7,50.2,0.7,41.8
				c-1.7-1.5,9.5-16.6,33.6-45.3c4.6,1.9,8.5,4.1,11.8,6.7C50.9,6.9,54.8,11.2,54.1,14.6z"/>
			<path id="Texture" class="st34" d="M87.5,27.6c73.1-5.7,103-14.1,89.6-25.4S146-19.3,124-28.6"/>
		</g>
		<g id="Body" transform="translate(40.000000, 129.000000)">
			<g>
				
					<linearGradient id="SVGID_15_" gradientUnits="userSpaceOnUse" x1="-193.1929" y1="118.9851" x2="-193.3002" y2="117.9851" gradientTransform="matrix(106.7508 0 0 -202.1067 20683.3164 23934.3867)">
					<stop  offset="0" style="stop-color:#FFFFFF"/>
					<stop  offset="1" style="stop-color:#E5EEFF"/>
				</linearGradient>
				<path class="st35" d="M28.2-109.5c19.6-11.4,41.9,16.6,47.2,28s20.2,11.5,13.9,62.9c-4.1,34.3-2.6,52.8,4.7,55.6
					c13-1.9,16.4,6,10.2,23.5c-9.4,26.3-21.7,26-45.2,28.9c-23.6,2.9-40.7-5-50.3-16.3s12.1-34.2,0-55.8C3.9,8.8,0.4-42.4,0.4-59.2
					S8.6-98.2,28.2-109.5z"/>
			</g>
			<defs>
				<filter id="Adobe_OpacityMaskFilter_1_" filterUnits="userSpaceOnUse" x="10.1" y="-103.2" width="143.8" height="136.5">
					<feColorMatrix  type="matrix" values="1 0 0 0 0  0 1 0 0 0  0 0 1 0 0  0 0 0 1 0"/>
				</filter>
			</defs>
			<mask maskUnits="userSpaceOnUse" x="10.1" y="-103.2" width="143.8" height="136.5" id="mask-17_1_">
				<g class="st36">
					<path id="path-16_1_" class="st18" d="M28.2-109.5c19.6-11.4,41.9,16.6,47.2,28s20.2,11.5,13.9,62.9
						c-4.1,34.3-2.6,52.8,4.7,55.6c13-1.9,16.4,6,10.2,23.5c-9.4,26.3-21.7,26-45.2,28.9c-23.6,2.9-40.7-5-50.3-16.3
						s12.1-34.2,0-55.8C3.9,8.8,0.4-42.4,0.4-59.2S8.6-98.2,28.2-109.5z"/>
				</g>
			</mask>
			<path id="Shadow" class="st37" d="M34.7-102.7c8.1-1.8,35.5-0.4,38.1,24.3c1.7,16.5,5.6,32.9,11.7,49.4
				c5.9,14.7,25.1,23.6,57.5,26.6c6.3-0.4,10.1,2.6,11.4,9.1c1.3,6.4,0.5,12.6-2.5,18.4c-54,10.8-89.1,10.8-105.2,0
				C21.4,9,6.9-38.4,10.7-65.7S26.6-100.8,34.7-102.7z"/>
		</g>
		<g id="Head" transform="translate(22.000000, 0.000000)">
			
				<linearGradient id="hair_1_" gradientUnits="userSpaceOnUse" x1="-175.1195" y1="249.1414" x2="-175.922" y2="250.7062" gradientTransform="matrix(76.7044 0 0 -61.9283 13543.7832 15477.1074)">
				<stop  offset="0" style="stop-color:#032258"/>
				<stop  offset="1" style="stop-color:#133E94"/>
			</linearGradient>
			<path id="hair" class="st38" d="M100.1-17.2c13.2,11.5,18.8,25.1,16.7,40.6C114.7,38.9,103,46,81.8,44.5L40.5-11L100.1-17.2z"/>
			<path id="Face" class="st29" d="M136.5-44.7c-0.4,13.1-1.7,22.2-3.8,27.5c-1.4,3.6,2.2,4.7,0,7.7c-1,1.4-7.4,5-8.4,6.3
				c-10.1,12.8-22.2,22.6-25,21.4c-2.1-0.9-6.7-4.2-13.7-10c-6.3,7.6-9.1,13-8.3,16.3c1.2,4.9-13.7,11.7-19.3,5.9
				c-3.7-3.9-6.4-10.6-7.9-20l3.6-21L65-31.3l16.2-13.4l47.9-2.1L136.5-44.7z"/>
			
				<linearGradient id="Hair_1_" gradientUnits="userSpaceOnUse" x1="-174.6944" y1="247.2376" x2="-175.4969" y2="248.8024" gradientTransform="matrix(169.0129 0 0 -144.7766 29657.8496 35845.5156)">
				<stop  offset="0" style="stop-color:#032258"/>
				<stop  offset="1" style="stop-color:#133E94"/>
			</linearGradient>
			<path id="Hair" class="st39" d="M134.4-44.5c-3.6,16-4.3,27-2.1,33.1c-3.5,3.7-6.5,6.5-8.9,8.6c-3.5,3,46.2-13,46.2-38.2
				s-11.3-26.4-17.8-28.4c-6.4-2-21.4-46.6-60.5-42.6c-39.1,4-29,34-55.1,50.5S-9.9-15.4,6.6,9S41.8,36.2,68,29
				c14.6-4,13.5-29.5,14.9-53.1c0.1-1.8-4.7-1.3-5.1-5.9s1.6-9.7,5.1-11.1c8.5-3.4,20.4,10,28.7,8.3
				C130.8-36.6,138.4-40.5,134.4-44.5z"/>
		</g>
		<g id="Hand" transform="translate(55.000000, 133.000000)">
			<path class="st29" d="M139.4-29.1l-11.4-8.8l16.2-13.7l3.1-13.2l1.9-2.4c2.8,0.6,4.7,0.4,6-0.5c2.1-1.5,5-5.8,7.2-5.2
				c0.3,0.1,3.2,1,3.4,1.8c0.3,1.2-2,2.4-1.5,2.7c3.9,2.6,6.7,8.1,4.5,11.9c-2.6,4.5-7.7,8.9-15.4,13.2L139.4-29.1z"/>
			
				<linearGradient id="Sleeve_1_" gradientUnits="userSpaceOnUse" x1="-207.9959" y1="115.4506" x2="-208.1032" y2="114.4506" gradientTransform="matrix(146.6863 0 0 -137.0823 30591.1172 15712.3809)">
				<stop  offset="0" style="stop-color:#FFFFFF"/>
				<stop  offset="1" style="stop-color:#E5EEFF"/>
			</linearGradient>
			<path id="Sleeve" class="st40" d="M24.7-112.7c8.1-1.8,31,3.4,33.5,28.1s1.8,48.8,10.7,58s15.9,1.2,65.8-18.1
				c6.3-0.4,10.1,2.6,11.4,9.1c1.3,6.4,1.3,9.4,0,9.1c-41.7,39.2-71.7,55.6-90,49.3C28.6,13.3-3.1-48.4,0.7-75.7
				S16.6-110.8,24.7-112.7z"/>
		</g>
	</g>
	<g transform="translate(767.000000, 172.000000)">
		<path id="Jacket" class="st41" d="M105.9,428.5c12,18.1,70.4,28.4,175.3,31h50.6l-32.1-69.1l-92.8-42.5
			C127.5,383.6,93.8,410.5,105.9,428.5z"/>
		
			<g transform="translate(293.939529, 186.436426) scale(-1, 1) rotate(-15.000000) translate(-293.939529, -186.436426) translate(90.939529, 48.436426)">
			<path class="st29" d="M373.6-8.8c2.1,9.2,3,15.4,2.5,18.7c-0.7,5.3-4.7,8.6-5.8,11.6c-1.5,3.9,1.6,5-0.8,8.4
				c-1.1,1.5-8,5.4-9.2,6.9c-11,14.1-24.1,24.8-27.2,23.5c-2.3-0.9-7.3-4.6-15-11c-10.6,2.2-13,11.4-7.4,27.8
				c8.5,24.5,6.6,39.1-10.6,32.3c-11.4-4.5-27.1-21.5-46.9-50.8c10.5-1.7,18.1-4.9,22.7-9.5s7.1-11.4,7.3-20.3l12.4-22.7l17.7-14.6
				l52.2-2.3L373.6-8.8z"/>
			
				<linearGradient id="SVGID_16_" gradientUnits="userSpaceOnUse" x1="1057.6119" y1="733.569" x2="1056.8094" y2="735.1337" gradientTransform="matrix(-271.4251 71.4341 -72.7281 -266.5955 340680.4688 120209.9531)">
				<stop  offset="0" style="stop-color:#032258"/>
				<stop  offset="1" style="stop-color:#133E94"/>
			</linearGradient>
			<path class="st42" d="M310.2-53.7c-4.4-34.3-17-52.8-37.8-55.2c-31.2-3.7-48.4,40.5-61.6,44.6c-13.2,4.1-60.7,11.9-80.3,24.9
				S116.3,2.3,94.1,3.4C72,4.6,1.1,20,41.4,107.1c25.2,54.4,116.7,83.9,129.8,34.8c15-56.2,39.9-22.1,63.6-43.1s5.9-39.2,14.4-53.8
				c8.5-14.6,19.6,1.1,38.7-15.4c20.4-17.7,16.4-29.9,17.3-49.1C305.9-32.4,307.6-43.8,310.2-53.7z"/>
			
				<linearGradient id="Neck_1_" gradientUnits="userSpaceOnUse" x1="1056.2878" y1="735.0793" x2="1056.2878" y2="735.695" gradientTransform="matrix(-73.4104 21.2232 -19.6702 -79.2059 92293.9141 35895.707)">
				<stop  offset="0" style="stop-color:#F4AF92"/>
				<stop  offset="1" style="stop-color:#EC906C"/>
			</linearGradient>
			<path id="Neck" class="st43" d="M319,49.4c-10.6,2.2-13,11.4-7.4,27.6c8.5,24.4,6.6,38.9-10.6,32.1c-11.4-4.5-27-21.4-46.9-50.6
				c10.5-1.7,18-4.9,22.7-9.5c4.7-4.6,7.1-11.4,7.3-20.3l40.2,0.1c-2.8,3.1-4.4,6.5-4.7,10.4c-0.6,6.3,10.2,15.7,10.5,18.3
				C330.3,58.3,326.6,55.6,319,49.4z"/>
			
				<linearGradient id="hairbands_1_" gradientUnits="userSpaceOnUse" x1="1053.0803" y1="737.7024" x2="1053.2532" y2="736.8638" gradientTransform="matrix(-29.9437 8.7998 -8.0234 -32.8415 37739.6445 14904.3086)">
				<stop  offset="0" style="stop-color:#84F0A8"/>
				<stop  offset="1" style="stop-color:#48B676"/>
			</linearGradient>
			<path id="hairbands" class="st44" d="M288.7-67.1c8.6,0,15.5,7.6,15.5,17s-6.9,17-15.5,17c-8.6,0-15.5-7.6-15.5-17
				S280.2-67.1,288.7-67.1z"/>
			
				<linearGradient id="SVGID_17_" gradientUnits="userSpaceOnUse" x1="1057.1685" y1="734.3189" x2="1056.366" y2="735.8837" gradientTransform="matrix(-156.48 29.2466 -41.9287 -109.1496 196608.5 49289.6484)">
				<stop  offset="0" style="stop-color:#032258"/>
				<stop  offset="1" style="stop-color:#133E94"/>
			</linearGradient>
			<path class="st45" d="M369.5,26.7c1.5,4-7.9,6.8-10.9,11c-4,3.4,73.8,14,76.5-37.6c2.8-51.5-57.5-46.5-64.6-48.7
				c-7-2.2-40.7-27.9-59.1-22.8c-18.2,5-33.1,23.6-36.6,51.8c-4.3,33.9,0.6,54.1,7.7,56c7.9,2.1,21.7-0.5,41.4-7.9
				c-7.2-3.2-8.5-8.9-3.9-17c6.8-12.2,18.4-6.1,18.4,4.7l6.1-6.9l29.3,4.6C369.8,19.1,368.3,23.4,369.5,26.7z"/>
		</g>
		<g transform="translate(114.000000, 369.000000)">
			
				<linearGradient id="SVGID_18_" gradientUnits="userSpaceOnUse" x1="-803.1651" y1="177.9666" x2="-802.9042" y2="178.9091" gradientTransform="matrix(32.749 0 0 -27.6362 26345.9043 5161.4478)">
				<stop  offset="0" style="stop-color:#FAD0BA"/>
				<stop  offset="1" style="stop-color:#F2A384"/>
			</linearGradient>
			<path class="st46" d="M63.6,210l3.2,19.7c-3.9,5.3-8.7,7.9-14.4,7.9s-10.8-1.3-15.2-4L34,212.1L63.6,210z"/>
			
				<linearGradient id="SVGID_19_" gradientUnits="userSpaceOnUse" x1="-803.1651" y1="177.9666" x2="-802.9042" y2="178.9091" gradientTransform="matrix(32.749 0 0 -27.6362 26444.668 5161.4478)">
				<stop  offset="0" style="stop-color:#FAD0BA"/>
				<stop  offset="1" style="stop-color:#F2A384"/>
			</linearGradient>
			<path class="st47" d="M162.3,210l3.2,19.7c-3.9,5.3-8.7,7.9-14.4,7.9c-5.7,0-10.8-1.3-15.2-4l-3.2-21.6L162.3,210z"/>
			
				<linearGradient id="SVGID_20_" gradientUnits="userSpaceOnUse" x1="-801.169" y1="178.3164" x2="-802.169" y2="178.3164" gradientTransform="matrix(68.4356 0 0 -29.0478 54996.5703 5421.2715)">
				<stop  offset="0" style="stop-color:#2865C6"/>
				<stop  offset="1" style="stop-color:#10378A"/>
			</linearGradient>
			<path class="st48" d="M165.6,227.1c2.4,0,2.4,8.2,2.5,14.4c0,2.3-0.4,5.7-1.2,10.3c-0.4,1.9-1.9,3.3-3.7,3.3
				c-38.8,1.4-62.1,1.4-62.2-0.1c-3.1-10.1-1.4-11.2,16.2-19.1c7.1-3.2,13.7-4.8,18.2-7.4c1.5-0.9,4.7,6.4,15.2,6.4
				S163.2,227.1,165.6,227.1z"/>
			
				<linearGradient id="SVGID_21_" gradientUnits="userSpaceOnUse" x1="-801.169" y1="178.3164" x2="-802.169" y2="178.3164" gradientTransform="matrix(68.4356 0 0 -29.0478 54897.8008 5421.2715)">
				<stop  offset="0" style="stop-color:#2865C6"/>
				<stop  offset="1" style="stop-color:#10378A"/>
			</linearGradient>
			<path class="st49" d="M66.8,227.1c2.4,0,2.4,8.2,2.5,14.4c0,2.3-0.4,5.7-1.2,10.3c-0.4,1.9-1.9,3.3-3.7,3.3
				c-38.8,1.4-62.1,1.4-62.2-0.1c-3.1-10.1-1.4-11.2,16.2-19.1c7.1-3.2,13.7-4.8,18.2-7.4c1.5-0.9,4.7,6.4,15.2,6.4
				S64.4,227.1,66.8,227.1z"/>
			
				<linearGradient id="SVGID_22_" gradientUnits="userSpaceOnUse" x1="-800.8883" y1="172.5975" x2="-800.9748" y2="172.0975" gradientTransform="matrix(166.7118 0 0 -332.8687 133625.0938 57338.7813)">
				<stop  offset="0" style="stop-color:#3485F7"/>
				<stop  offset="1" style="stop-color:#1A57CF"/>
			</linearGradient>
			<path class="st50" d="M175.5-112.6c-1,21.7-1,33.8,0,36.3c1.4,3.8-7,50.8-25.5,141.1c1.6,88.1,14.7,136.5,13.1,145.2
				c-2.4,13-29.8,13-33.2,3.6c-2.2-6.3-11.4-57.3-27.6-153.1l-2.8-75.1C88.2,5,72.4,31.8,52.1,65.8c3.3,93.4,15.9,142.9,11.6,148.4
				c-3.9,4.9-29.7,8.3-31.2,0C16.8,149.7,8.9,99.9,8.9,64.8c0-35.1,16.1-94.2,48.4-177.4H175.5z"/>
			<path class="st51" d="M151.6,207.9L132.5,71.2c-0.8-6-0.8-12,0.2-18l18.9-119.5V207.9z"/>
			
				<linearGradient id="SVGID_23_" gradientUnits="userSpaceOnUse" x1="-802.1924" y1="173.857" x2="-802.1402" y2="173.0985" gradientTransform="matrix(47.8267 0 0 -92.694 38440.8984 16114.4063)">
				<stop  offset="0" style="stop-color:#1542AB"/>
				<stop  offset="1" style="stop-color:#2B68EE"/>
			</linearGradient>
			<path class="st52" d="M52.1,65.7l-0.4-0.1L84.6-27c2.2,1.8,7.2,5.9,15,12.3C88.2,5,72.4,31.8,52.1,65.7z"/>
		</g>
		
			<linearGradient id="SVGID_24_" gradientUnits="userSpaceOnUse" x1="-687.0566" y1="541.9612" x2="-687.1639" y2="540.9612" gradientTransform="matrix(137.0353 0 0 -207.8378 94391.0859 112728.6797)">
			<stop  offset="0" style="stop-color:#FFFFFF"/>
			<stop  offset="1" style="stop-color:#E5EEFF"/>
		</linearGradient>
		<path class="st53" d="M206.9,97.1c-6.6,10.5-11.2,17.6-3.1,21.5s26.4-5.5,54.9-28.1c34.4,13.1,38,23.4,45,31.1
			s-19,151.2-29.4,160.7c-15.1,13.8-37.9,18.6-65.6,14.8c-19.7-2.6-33.4-20.7-30.8-40.4c0.1-0.5,0.1-1,0.2-1.4c3.3-19,5-30.8,5-35.3
			c0-9.6-5.1-32.9-15.3-70l22.4-46.4L206.9,97.1z"/>
		<g transform="translate(253.000000, 204.000000)">
			<g>
				
					<linearGradient id="SVGID_25_" gradientUnits="userSpaceOnUse" x1="-940.3689" y1="337.6455" x2="-940.3689" y2="336.5367" gradientTransform="matrix(92.0688 0 0 -368.8858 86625.4609 124399.9844)">
					<stop  offset="0" style="stop-color:#FFE579"/>
					<stop  offset="1" style="stop-color:#FEB755"/>
				</linearGradient>
				<path class="st54" d="M15-72.3C-0.7-12.6-3.4,34.7,6.9,69.6c15.5,52.3-9.7,113.1-3.8,142c29.5,3.1,55.2,18,77.1,44.7
					c9.3-11.9,13.5-38.1,12.5-78.4c-1.4-60.6-16-64-18.2-91.5C73,68,73,45.1,74.5,17.7L53.9-85.8c-9.8-8.1-17.5-13.8-22.9-17.1
					c-5.5-3.3-12.5-6.5-21.2-9.6L15-72.3z"/>
			</g>
			<defs>
				<filter id="Adobe_OpacityMaskFilter_2_" filterUnits="userSpaceOnUse" x="4.4" y="-69" width="98.3" height="205.4">
					<feColorMatrix  type="matrix" values="1 0 0 0 0  0 1 0 0 0  0 0 1 0 0  0 0 0 1 0"/>
				</filter>
			</defs>
			<mask maskUnits="userSpaceOnUse" x="4.4" y="-69" width="98.3" height="205.4" id="mask-23_1_">
				<g class="st55">
					<path id="path-22_1_" class="st18" d="M15-72.3C-0.7-12.6-3.4,34.7,6.9,69.6c15.5,52.3-9.7,113.1-3.8,142
						c29.5,3.1,55.2,18,77.1,44.7c9.3-11.9,13.5-38.1,12.5-78.4c-1.4-60.6-16-64-18.2-91.5C73,68,73,45.1,74.5,17.7L53.9-85.8
						c-9.8-8.1-17.5-13.8-22.9-17.1c-5.5-3.3-12.5-6.5-21.2-9.6L15-72.3z"/>
				</g>
			</mask>
			<path class="st56" d="M33.2-11.2c-7.7-10.3-7.7-27.2,0-50.7c2.7-8.3,14.1-10.6,30.5,0C83.2-49.2,113.1,4.9,99.1,44.5
				c-21.5,61.1-56.9,77.8-76.5,81.8c-3.7,0.8-4.5-1.1-12.3,7c-8.9,9.2-7.8-2.1,3.2-34C38.6,63.7,50.1,39.8,48,27.7S41,2.7,33.2-11.2
				z"/>
		</g>
		<path class="st29" d="M280.4,317.1l-13.5,14.4c-4.1,7.9-8.3,13.2-12.7,15.9c-3.8,2.4-9.3-0.2-12.1-4c-0.6-0.8-4.3-0.9-4.5-1.7
			c-0.8-2.3,2.8-5.4,4.9-7.4c3.1-3-0.8-2.5,0.7-5.7c1-2.2,6-4.1,14.9-5.8l13.1-16.7L280.4,317.1z"/>
		
			<linearGradient id="Path-46_1_" gradientUnits="userSpaceOnUse" x1="-687.4561" y1="542.068" x2="-687.4561" y2="540.9592" gradientTransform="matrix(83.6721 0 0 -206.4128 57829.7656 111982.2969)">
			<stop  offset="0" style="stop-color:#FFE579"/>
			<stop  offset="1" style="stop-color:#FEB755"/>
		</linearGradient>
		<path id="Path-46" class="st57" d="M286.2,172.8c-7.7-10.3-7.7-27.2,0-50.7c2.7-8.3,14.1-10.6,30.5,0
			c19.6,12.7,43.9,73.5,29.9,113.2c-25.6,72.7-48.8,74.2-63.1,83.4c-9.5,6.1-15,2.1-16.5-12c26.9-39.1,39.3-64.7,37.2-76.8
			C302.1,217.8,296.1,198.8,286.2,172.8z"/>
		<path class="st29" d="M33.9,83.9L20,69.8c-7.7-4.3-12.9-8.7-15.4-13.2C2.3,52.7,5,47.3,9,44.7c0.8-0.5-9.3-12-8.5-12.2
			c2.3-0.7,15.7,10.8,17.6,12.9c2.9,3.2,2.5-0.7,5.7,0.9c2.1,1.1,3.9,6.1,5.3,15.1l16.2,13.7L33.9,83.9z"/>
		<g transform="translate(26.000000, 178.000000)">
			<g>
				
					<linearGradient id="SVGID_26_" gradientUnits="userSpaceOnUse" x1="-712.952" y1="363.6573" x2="-712.952" y2="362.5485" gradientTransform="matrix(177 0 0 -361 126281 131128)">
					<stop  offset="0" style="stop-color:#FFE579"/>
					<stop  offset="1" style="stop-color:#FEB755"/>
				</linearGradient>
				<path class="st58" d="M172.2-75c-7.5,19.8-12.6,33.8-15.3,42.1c-4,12.4-5.6,22.7-4.7,30.8c2.7,24.2,10.2,32.1,3.7,90.1
					c-2.5,22.6-16.8,54.5-19.6,79.8c-4.3,39.3,6.3,52.9,3.6,59.4c-3.6,8.9-42.2,0.7-61.6,20.9c-6.2-12,17.4-54.4,17.4-60.9
					c0-6.5,0.8-55.1,20.7-90.7c13.2-23.8,18.3-58.5,15.2-104.3c-33.3-6.4-57.6-14.7-73-25S23.7-65.4,0-99.6
					c3.5-9,7.6-13.4,12.2-13.4c6.9,0,53.3,42.2,89.3,47.3c15.1,2.1,27.2-6.8,38.5-9.3c18.1-4.1,31.3-3.9,33.5-4.7
					c2.4-0.8,3.6-0.2,3.5,1.8L172.2-75z"/>
			</g>
			<defs>
				<filter id="Adobe_OpacityMaskFilter_3_" filterUnits="userSpaceOnUse" x="56" y="-33" width="81" height="40">
					<feColorMatrix  type="matrix" values="1 0 0 0 0  0 1 0 0 0  0 0 1 0 0  0 0 0 1 0"/>
				</filter>
			</defs>
			<mask maskUnits="userSpaceOnUse" x="56" y="-33" width="81" height="40" id="mask-25_1_">
				<g class="st59">
					<path id="path-24_1_" class="st18" d="M172.2-75c-7.5,19.8-12.6,33.8-15.3,42.1c-4,12.4-5.6,22.7-4.7,30.8
						c2.7,24.2,10.2,32.1,3.7,90.1c-2.5,22.6-16.8,54.5-19.6,79.8c-4.3,39.3,6.3,52.9,3.6,59.4c-3.6,8.9-42.2,0.7-61.6,20.9
						c-6.2-12,17.4-54.4,17.4-60.9c0-6.5,0.8-55.1,20.7-90.7c13.2-23.8,18.3-58.5,15.2-104.3c-33.3-6.4-57.6-14.7-73-25
						S23.7-65.4,0-99.6c3.5-9,7.6-13.4,12.2-13.4c6.9,0,53.3,42.2,89.3,47.3c15.1,2.1,27.2-6.8,38.5-9.3c18.1-4.1,31.3-3.9,33.5-4.7
						c2.4-0.8,3.6-0.2,3.5,1.8L172.2-75z"/>
				</g>
			</mask>
			<path class="st60" d="M130.3-3.2c0.1-8.4,1.5-15.2,4-20.5c2.5-5.3,3.2-8.4,2.1-9.3c-27.6,13.7-50.7,16.8-69.3,9.3
				S53.2-20.9,81.2,7L130.3-3.2z"/>
		</g>
	</g>
	<g transform="translate(581.000000, 399.000000)">
		<path class="st61" d="M27.6-4.7c-3.1,10-5.6,16.6-7.5,19.8c-2.8,4.9,2.2,17.1,14.5,17.1c8.2,0,21.6-3.7,40.2-11.2
			c-4.1-4.4-7-9.4-8.8-14.8c-1.8-5.5-1.8-12.1,0-19.8c9.4-22.1,13.2-35.5,11.2-40.3S64.7-66.7,45.5-78.2
			c-20,8.3-30.1,15.5-30.1,21.7s0,11.7,0,16.6c-5.8-2.5-8.8-0.5-8.8,5.9S10.5-23.1,18-20.7L27.6-4.7z"/>
		
			<linearGradient id="SVGID_27_" gradientUnits="userSpaceOnUse" x1="-501.0595" y1="314.747" x2="-501.8619" y2="316.3118" gradientTransform="matrix(85.8424 0 0 -108.2521 43087.2188 34076.2617)">
			<stop  offset="0" style="stop-color:#032258"/>
			<stop  offset="1" style="stop-color:#133E94"/>
		</linearGradient>
		<path class="st62" d="M51.9-105.1c5.8,3,23.3,8.1,26.4,12.9c4.1,6.3,5,12.8,2.7,19.3c6.7,9.2,6.7,22.2,0,38.9
			C71-8.9,64.5-6.3,51.9-4.8S30.4-16.9,26.2-27.1c-2.8-6.8-6.5-11.6-11-14.5c-1.4-11.6-2.2-17.4-2.2-17.4S0.2-60.3,0.2-82.2
			S15.2-124.5,51.9-105.1z"/>
	</g>
	<g id="Man" transform="translate(421.000000, 389.000000)">
		<g transform="translate(192.000000, 276.000000)">
			<path class="st61" d="M133.4,31.1c1.2-0.8,18.5,0.1,16.5,9.3c-2,9.3-2.7,12.9-3,16.7c-0.2,2.5-1.5,4.5-3.8,5.9l-11.4-5.9
				l-2.3-8.7C131.2,37.5,132.5,31.7,133.4,31.1z"/>
			
				<linearGradient id="SVGID_28_" gradientUnits="userSpaceOnUse" x1="-533.4055" y1="52.505" x2="-534.4055" y2="52.505" gradientTransform="matrix(56.9203 0 0 -39.5604 30536.748 2141.4094)">
				<stop  offset="0" style="stop-color:#2865C6"/>
				<stop  offset="1" style="stop-color:#10378A"/>
			</linearGradient>
			<path class="st63" d="M126.8,44.5c3.4-0.5,4.4,8.6,9.7,10.4c5.3,1.7,11-4.5,12.1-3.3c3.3,3.4,8.7,6.3,14.2,10.9
				c13.6,11.2,14.8,12.6,9.5,21.1c-0.7,2-18.7-2.7-54-14.2c0-4.7,0.5-9,1.6-12.7C121.4,51.1,123.4,45.1,126.8,44.5z"/>
			<path class="st61" d="M58.1,25.9c0.5,0.8,0.2,5.9-1.1,15.2l-5.5,7.1l-12.8,1c1.8-1.1,3.1-2.8,3.9-5.2c1.2-3.6,1.7-5.8,3.4-15.1
				C47.7,19.6,57.3,24.7,58.1,25.9z"/>
			
				<linearGradient id="SVGID_29_" gradientUnits="userSpaceOnUse" x1="-534.2676" y1="54.1628" x2="-535.2676" y2="54.1628" gradientTransform="matrix(35.2787 0 0 -29.7172 18912.5645 1659.4191)">
				<stop  offset="0" style="stop-color:#2865C6"/>
				<stop  offset="1" style="stop-color:#10378A"/>
			</linearGradient>
			<path class="st64" d="M56.2,39.3c3.8,0.3,5.3,2.2,6.9,7.7c1,3.7,1.4,7.8,1.1,12.5c-16.3,4.4-26,6-29.2,4.8
				c-12.7-4.9-1.6-21.6,0.3-23.4c1.3-1.2,4.6-3.5,10.7-5.5C52.2,33.4,52.4,39,56.2,39.3z"/>
			<path class="st65" d="M112.2-91.9c38.5-17.3,66.1-17.3,82.9,0C220.1-66,161.5,26.8,157.5,38.6c-4,11.7-15.1,4.2-19.3,3.1
				c-2.8-0.7-5.3-3.1-7.6-7l18.2-74l-45.6-6.2L90.1-74L112.2-91.9z"/>
			<path class="st65" d="M22.2-91.9c43.3-20.3,68.9-25.3,76.7-15.2c11.7,15.2,21.7,65.1-36.8,139c-4.2,3-8,4.2-11.2,3.8
				c-3.3-0.5-6-3.5-8.2-9l16.2-66l-45.6-6.2L0.1-74L22.2-91.9z"/>
		</g>
		<g>
			<path class="st61" d="M180.2,27.9c18.5,8.5,29.8,10.6,33.8,6.4s5.8-7.4,5.3-9.4c35.8,3,57.6,12.8,65.4,29.2
				c11.7,24.7,42.7,106.9,56.3,90.4c9-11,15.3-20,18.9-27.2c-5.9-5.5-8.9-8.8-8.9-10c0-1.8,5.9-1.9,8.9-0.9c3,0.9,2.4-20.7,4.3-22.1
				c1.2-0.9,2.8,4.1,4.7,15.2c2.8-11.9,4.8-17.7,5.8-17.2c1,0.5,1,7.1,0,19.9c5-5.9,7.9-8.4,8.7-7.5c0.8,0.9-0.7,5.1-4.4,12.6
				c4.6-1.7,6.9-2,6.9-0.9s-2.3,3.2-6.9,6.4l-4.2,7.9c-10.3,39.8-25.2,61-44.7,63.5s-27.3,2.5-23.4,0c4.8,6.6,6.5,12,5.2,16.4
				c-2,6.6-15.1,39.6-28.8,45.1c-9.1,3.7-35.2-5.7-78.2-28.2l-72.6-67L125,76.9C57.2,38.4,20.3-12,14.5-74.4l-2.9-9.3
				C4.9-91.1,1.3-95.3,0.9-96.3s1.8-0.4,6.5,1.9c-2.4-6.8-3.3-10.5-2.7-11.3c0.6-0.7,2.9,1.4,6.9,6.4c0.3-8.7,0.9-13.2,1.9-13.5
				c1-0.4,2.4,3.4,4.4,11.2c0.9-6.9,1.8-10,2.8-9.2s1.8,6.2,2.6,16.4c3.7-3.3,5.8-4.3,6.2-3.1c0.4,1.2-0.7,5.2-3.3,12.1
				c28,46.5,51.6,73.9,70.8,82s47.7,16.5,85.5,25.1L180.2,27.9z"/>
			
				<linearGradient id="SVGID_30_" gradientUnits="userSpaceOnUse" x1="-340.8882" y1="324.6428" x2="-340.6418" y2="323.6496" gradientTransform="matrix(235.6375 0 0 -246.5217 80516.1641 80070.9141)">
				<stop  offset="0" style="stop-color:#84F0A8"/>
				<stop  offset="1" style="stop-color:#48B676"/>
			</linearGradient>
			<path class="st66" d="M198.8,42c11.5,3.2,22.7-2,33.7-15.7c27,2.1,44.4,11.4,52.2,27.8c6.9,14.4,20.4,48.7,33.1,71.2
				c6,10.6-5,22.5-33.1,35.8c8.3,12.6,16.7,20.8,25.2,24.6c2.9,2.7,2.9,11.3,1.8,14.8c-2,6.6-15.1,39.6-28.8,45.1
				c-9.1,3.7-35.2-5.7-78.2-28.2l-72.6-67l-9.1-72.7c-23.2-8.8-35.5-15.8-36.8-21.2C76.5,16.4,97.3-6,114.2,1.2
				c19.2,8.1,42.2,14.1,68.9,18C182.1,31.2,187.4,38.8,198.8,42z"/>
			
				<linearGradient id="SVGID_31_" gradientUnits="userSpaceOnUse" x1="-341.026" y1="325.1213" x2="-340.8308" y2="324.0313" gradientTransform="matrix(187.8304 0 0 -210.5472 64230.0859 68437.5547)">
				<stop  offset="0" style="stop-color:#84F0A8"/>
				<stop  offset="1" style="stop-color:#48B676"/>
			</linearGradient>
			<path class="st67" d="M160.7,138.5c-1.5-5.6,1.8-11.4,7.4-12.9s11.4,1.8,12.9,7.4c1.3,4.8-1,9.7-5.2,12c-2.9,0.4-5.7,0.6-8.4,0.7
				C164.3,144.6,161.7,142,160.7,138.5z M113.1,50.6c-5.6,1.5-11.4-1.8-12.9-7.4c-1.5-5.6,1.8-11.4,7.4-12.9
				c5.6-1.5,11.4,1.8,12.9,7.4C122.1,43.3,118.7,49.1,113.1,50.6z M161.2,93.1c-5.6,1.5-11.4-1.8-12.9-7.4
				c-1.5-5.6,1.8-11.4,7.4-12.9s11.4,1.8,12.9,7.4C170.2,85.8,166.8,91.6,161.2,93.1z M158.7,42.9c-5.6,1.5-11.4-1.8-12.9-7.4
				c-1.5-5.6,1.8-11.4,7.4-12.9s11.4,1.8,12.9,7.4C167.6,35.6,164.3,41.4,158.7,42.9z M267.1,225.6c-1.5-5.6,1.8-11.4,7.4-12.9
				c5.6-1.5,11.4,1.8,12.9,7.4c1.3,4.8-1,9.7-5.2,12c-2.9,0.4-5.7,0.6-8.4,0.7C270.7,231.7,268,229.1,267.1,225.6z M219.5,137.7
				c-5.6,1.5-11.4-1.8-12.9-7.4s1.8-11.4,7.4-12.9c5.6-1.5,11.4,1.8,12.9,7.4S225.1,136.2,219.5,137.7z M267.6,180.2
				c-5.6,1.5-11.4-1.8-12.9-7.4c-1.5-5.6,1.8-11.4,7.4-12.9c5.6-1.5,11.4,1.8,12.9,7.4C276.5,172.9,273.2,178.7,267.6,180.2z
				 M265,130c-5.6,1.5-11.4-1.8-12.9-7.4s1.8-11.4,7.4-12.9c5.6-1.5,11.4,1.8,12.9,7.4S270.6,128.5,265,130z M219.5,87.4
				c-5.6,1.5-11.4-1.8-12.9-7.4s1.8-11.3,7.4-12.8c5.6-1.5,11.4,1.8,12.9,7.4S225.1,86,219.5,87.4z M265,79.8
				c-5.6,1.5-11.4-1.8-12.9-7.4s1.8-11.3,7.4-12.8c5.6-1.5,11.4,1.8,12.9,7.4S270.6,78.4,265,79.8z"/>
		</g>
		<g id="Path-51-Copy" transform="translate(160.000000, 10.000000)">
		</g>
	</g>
	<g id="Chair" transform="translate(533.000000, 582.000000)">
		<polygon id="Chair-base" class="st68" points="154,71 166,71 166,120 154,120 		"/>
		
			<linearGradient id="Wheel_1_" gradientUnits="userSpaceOnUse" x1="-456.8235" y1="141.945" x2="-457.0574" y2="141.0845" gradientTransform="matrix(18 0 0 -18 8320 2730)">
			<stop  offset="0" style="stop-color:#476DB1"/>
			<stop  offset="1" style="stop-color:#283F6F"/>
		</linearGradient>
		<circle id="Wheel" class="st69" cx="95" cy="183" r="9"/>
		
			<linearGradient id="SVGID_32_" gradientUnits="userSpaceOnUse" x1="-456.8235" y1="141.945" x2="-457.0574" y2="141.0845" gradientTransform="matrix(18 0 0 -18 8446 2730)">
			<stop  offset="0" style="stop-color:#476DB1"/>
			<stop  offset="1" style="stop-color:#283F6F"/>
		</linearGradient>
		<circle class="st70" cx="221" cy="183" r="9"/>
		
			<linearGradient id="SVGID_33_" gradientUnits="userSpaceOnUse" x1="-456.8235" y1="141.945" x2="-457.0574" y2="141.0845" gradientTransform="matrix(18 0 0 -18 8385 2740)">
			<stop  offset="0" style="stop-color:#476DB1"/>
			<stop  offset="1" style="stop-color:#283F6F"/>
		</linearGradient>
		<circle class="st71" cx="160" cy="193" r="9"/>
		
			<linearGradient id="SVGID_34_" gradientUnits="userSpaceOnUse" x1="-453.0705" y1="135.1011" x2="-453.0705" y2="131.9762" gradientTransform="matrix(140.2394 0 0 -73.9394 63697.4375 10003.1504)">
			<stop  offset="0" style="stop-color:#95B7E5"/>
			<stop  offset="1" style="stop-color:#476DB1"/>
		</linearGradient>
		<path class="st72" d="M147.9,130.9l-0.7-7.5c0-0.2,0-0.3,0-0.5c0-2.2,1.9-4,4.1-3.9l17.2,0.4c0.1,0,0.1,0,0.2,0
			c2.2,0.2,3.9,2.1,3.7,4.3l-0.5,6.4l54.7,37.6c0.1,0.1,0.3,0.2,0.4,0.3c2.6,2.1,3,6,0.8,8.6c-2.5,3-6.7,3.8-10.1,1.9l-47.6-26.2
			l-2.6,33.9c-0.3,3.8-3.4,6.7-7.2,6.8c-3.8,0.1-6.9-2.7-7.3-6.5l-3.3-35.1l-49.3,27.2c-3.4,1.9-7.6,1.1-10.1-1.9
			c-2.1-2.6-1.8-6.5,0.8-8.6c0.1-0.1,0.3-0.2,0.4-0.3l55.8-38.3L147.9,130.9z"/>
		
			<linearGradient id="SVGID_35_" gradientUnits="userSpaceOnUse" x1="-452.8724" y1="131.9964" x2="-453.1064" y2="131.1358" gradientTransform="matrix(163.8468 0 0 -188.5817 74303.6016 24789.5703)">
			<stop  offset="0" style="stop-color:#476DB1"/>
			<stop  offset="1" style="stop-color:#283F6F"/>
		</linearGradient>
		<path class="st73" d="M19.2-111.2c-6.1-3.4-15.3-0.2-18.2,4c0.9,6,1.5,8.6,1.6,8.7C12.1-47.2,48.9,2.2,77.6,33
			c16.3,17.6,30.2,31.7,41.6,42.1c11,1.7,21.2,0.5,30.5-3.5c6-2.7,15.5-1.9,15.3-10.2c-0.6-17.1-15.8-25.8-21.8-50.6
			c-5.6-23.3,0.7-70.7-16.3-80.5c-17-9.8-38.4,7.2-70.9-6.9C32.8-86.6,25.3-107.8,19.2-111.2z"/>
		<path class="st65" d="M189.2,31.9c16.3-4.5,38.4-9.4,49.5,0s6,24.5-1.4,33c-5,5.7-27.1,11.1-66.3,16.4l-3.5-28.7
			C176.9,48.5,184.2,41.6,189.2,31.9z"/>
		
			<linearGradient id="SVGID_36_" gradientUnits="userSpaceOnUse" x1="-452.8322" y1="133.4108" x2="-452.8322" y2="130.2859" gradientTransform="matrix(240.8035 0 0 -200.5049 109164.8594 26356.3906)">
			<stop  offset="0" style="stop-color:#95B7E5"/>
			<stop  offset="1" style="stop-color:#476DB1"/>
		</linearGradient>
		<path class="st74" d="M0.9-107.7C8.3-48.9,14.7-10.2,20.1,8.4c8.3,28.2,18.8,40.1,30.2,51.4c11.4,11.3,53.9,31,87.8,32.8
			c30.1,1.5,72-7.2,87.6-16.9s23.6-30.4,6-35.5s-74.2,16.1-79.5,13.7C122.6,41,131.6-48.2,117.3-57.7c-13.6-9-42.6,2.6-77.5-12.9
			C29.6-75.1,16.6-87.5,0.9-107.7z"/>
	</g>
	<ellipse class="st75" cx="1249" cy="784.5" rx="89" ry="15.5"/>
	<g id="leaves" transform="translate(1106.000000, 527.000000)">
		
			<g id="Leaves" transform="translate(169.923887, 163.483889) scale(-1, 1) rotate(-16.000000) translate(-169.923887, -163.483889) translate(102.423887, 12.983889)">
			
				<linearGradient id="Leaf_1_" gradientUnits="userSpaceOnUse" x1="1208.998" y1="503.0075" x2="1208.998" y2="500.9646" gradientTransform="matrix(-128.8166 70.9232 -36.9376 -247.3387 174417.2656 38290.457)">
				<stop  offset="0" style="stop-color:#FFFFFF"/>
				<stop  offset="1" style="stop-color:#B3CDEF"/>
			</linearGradient>
			<path id="Leaf" class="st76" d="M123.4-108.4c17.7,1.8,11.6,41.6,16.4,49c4.9,7.3,18.5,9.5,16.6,25.5s-15.1,15.4-16.6,28.7
				c-1.6,13.2,28,11.5,25.5,32.4c-2.5,20.9-25.3,27.3-26.8,39.8c-1.5,12.6,9.8,17.5,6.5,45.4c-3.3,27.9-26.4,33.6-60.8,36
				c-34.4,2.4-55.7-7-52.4-37s39.9-29.2,44.4-45.7c4.5-16.4-18.6-25.4-16.4-44.7s37-18.4,38.7-33.8S72.9-36.5,74.7-52.5
				c1.8-16,8.7-18.4,21.8-23.9C109.5-81.8,105.7-110.1,123.4-108.4z"/>
			<path id="leaves-base" class="st77" d="M87.3,134.1c-0.7,0.2-1.4-0.3-1.4-1.1c-0.1-0.8,0.5-1.6,1.2-1.9
				c17.4-5.2,26.9-15.8,28.8-32c0.1-0.8,0.8-1.5,1.5-1.5s1.2,0.6,1.1,1.4C116.5,116.8,105.9,128.5,87.3,134.1z"/>
			<path class="st77" d="M97.4,67.4c-0.7-0.1-1.1-0.8-0.9-1.6c0.2-0.8,1-1.4,1.7-1.4c11.7,0.9,21.7-5.9,30.2-20.8
				c0.4-0.7,1.3-1.1,1.9-0.8c0.6,0.3,0.8,1.2,0.4,1.9C121.4,60.8,110.3,68.4,97.4,67.4z"/>
			<path class="st77" d="M121.1-21.6c-0.5-0.1-0.8-0.6-0.6-1.1c0.1-0.5,0.7-0.9,1.1-0.9c5.9,0.9,11-2.3,15.3-9.6
				c0.3-0.5,0.9-0.7,1.3-0.5c0.4,0.2,0.5,0.8,0.2,1.3C133.7-24.3,127.9-20.6,121.1-21.6z"/>
			<path class="st77" d="M120.5-32.2c0.5,0,0.9-0.5,0.9-1c0-0.6-0.4-1-0.9-1c-6.1,0.3-10.3-3.3-12.8-11.2c-0.2-0.5-0.7-0.8-1.2-0.6
				c-0.5,0.2-0.7,0.8-0.6,1.3C108.7-36.1,113.6-31.9,120.5-32.2z"/>
			<path class="st77" d="M102.3,47.5c0.7-0.1,1.3-0.8,1.3-1.6c0-0.8-0.6-1.4-1.4-1.3c-10.9,1-18.5-5.3-23.1-19.3
				c-0.3-0.8-1-1.1-1.7-0.8c-0.7,0.3-1,1.2-0.8,2C81.6,41.6,90.2,48.7,102.3,47.5z"/>
			<path class="st77" d="M81.7,118c0.7-0.1,1.3-0.8,1.3-1.7c0-0.8-0.6-1.4-1.4-1.3c-10.9,1.5-18.5-4.4-23.1-18.2
				c-0.3-0.8-1-1.1-1.7-0.7c-0.7,0.3-1,1.2-0.8,2C61,113.1,69.6,119.8,81.7,118z"/>
			<path class="st78" d="M82,189.8c-0.1,1.1-1,2.1-2,2.2s-3-0.6-2.9-1.7c2.2-6.9,4-16.2,5.4-28.1c2.1-17.9-3.9-47.1,0.3-67
				c4.1-19.9,26.7-57.4,34.8-86.9c6.6-23.9,2.1-45.7,1.4-60.2c-0.7-14.5,2.5-31.6,2.8-31.6c0.4,0-2.8,17.5-1.8,31.6
				c1,14,4.8,32.6,1.5,53C115.3,39.1,89.9,72.7,87,98s2.8,40.6,1.3,62.7C87.3,175.4,85.2,185.1,82,189.8z"/>
		</g>
		
			<g transform="translate(105.000000, 177.500000) rotate(-17.000000) translate(-105.000000, -177.500000) translate(43.000000, 23.000000)">
			
				<linearGradient id="SVGID_37_" gradientUnits="userSpaceOnUse" x1="-1021.9379" y1="-167.5137" x2="-1021.765" y2="-168.3523" gradientTransform="matrix(118.5818 77.1736 36.2542 -252.4233 127342.2734 36562.9727)">
				<stop  offset="0" style="stop-color:#84F0A8"/>
				<stop  offset="1" style="stop-color:#48B676"/>
			</linearGradient>
			<path class="st79" d="M99.5-108.1c17.7,0,16.3,41.7,22,48.9c5.7,7.3,19.5,8.7,19.5,25.6c0,16.9-13.2,16.9-13.2,30.8
				C127.7,11.2,157,8.6,157,31c0,22.4-22.1,29-22.1,42.3c0,13.3,11.9,18.9,11.9,48.5c0,29.7-22.5,34-56.9,34
				C55.6,155.9,33,145,33,115.4c0-29.7,36.7-27.8,39.3-44.5C75,54.3,50.9,45.2,50.9,26S85.7,6.7,85.7-9c0-15.7-28-22.9-28-38.9
				s6.6-18.9,18.9-25.4S81.8-108.1,99.5-108.1z"/>
			<path id="Leaves-base" class="st80" d="M91.6,141.3c-0.7,0.2-1.4-0.3-1.6-1.2c-0.2-0.8,0.3-1.7,1-1.8
				c16.9-4.4,25.2-14.9,25.2-31.8c0-0.9,0.6-1.5,1.3-1.5s1.3,0.7,1.3,1.5C118.8,124.9,109.6,136.6,91.6,141.3z"/>
			<path class="st80" d="M93.4,73.2c-0.7-0.1-1.2-0.8-1.1-1.6s0.8-1.5,1.6-1.4c11.9,0.8,21.4-6.3,28.6-21.8c0.4-0.8,1.2-1.2,1.8-0.8
				s0.9,1.2,0.5,2C117.2,66.1,106.6,74.1,93.4,73.2z"/>
			<path class="st80" d="M107-18.9c-0.5,0-0.8-0.5-0.7-1.1c0.1-0.6,0.6-1,1.1-0.9c6.1,0.5,10.8-3.1,14.5-10.9
				c0.2-0.5,0.8-0.8,1.3-0.6s0.6,0.8,0.4,1.3C119.5-22.5,113.9-18.4,107-18.9z"/>
			<path class="st80" d="M105.7-29.8c-6.9,0.5-12.4-3.6-16.4-12.2c-0.2-0.5-0.1-1.1,0.4-1.3c0.4-0.2,1,0,1.3,0.6
				c3.6,7.8,8.4,11.4,14.5,10.9c0.5,0,1,0.4,1.1,0.9S106.2-29.8,105.7-29.8z"/>
			<path class="st80" d="M97,52.7c-12.1,0.8-21.8-6.6-29-21.9c-0.4-0.8-0.1-1.6,0.5-2s1.5,0.1,1.8,0.8c6.6,14.2,15.2,20.7,26.1,20
				c0.7-0.1,1.4,0.6,1.6,1.4C98.2,52,97.7,52.7,97,52.7z"/>
			<path class="st80" d="M84.5,124.6c-12.1,0.8-21.8-6.6-29-21.9c-0.4-0.8-0.1-1.6,0.5-2c0.7-0.3,1.5,0.1,1.8,0.8
				c6.6,14.2,15.2,20.7,26.1,20c0.7-0.1,1.4,0.6,1.6,1.4C85.7,123.9,85.2,124.6,84.5,124.6z"/>
			<path class="st81" d="M92.6,198.4c0,1.1-0.8,2-1.8,2s-3.1-0.9-3.1-2c1.4-6.9,2.1-16.4,2.1-28.6c0-18.3-9.4-48.7-7.5-68.9
				s20.1-58.6,24.7-89.1c3.8-24.8-3.2-47.2-5.6-62s-1.2-32.5-0.9-32.5c0.4,0-0.8,18.1,1.9,32.5c2.6,14.3,8.6,33.2,7.7,54.5
				C108.5,43.9,87,78.2,87,104c0,25.8,7.5,42,8.6,64.8C96.4,184.1,95.4,193.9,92.6,198.4z"/>
		</g>
		
			<g transform="translate(203.000000, 205.000000) scale(-1, 1) rotate(-28.000000) translate(-203.000000, -205.000000) translate(141.000000, 73.000000)">
			
				<linearGradient id="SVGID_38_" gradientUnits="userSpaceOnUse" x1="1154.103" y1="691.8553" x2="1153.9957" y2="690.8553" gradientTransform="matrix(-109.4855 106.0258 -58.2145 -199.4055 166757.7656 15494.4697)">
				<stop  offset="0" style="stop-color:#FFFFFF"/>
				<stop  offset="1" style="stop-color:#E5EEFF"/>
			</linearGradient>
			<path class="st82" d="M119.5-99.8c17.7,0,16.3,35.6,22,41.9c5.7,6.2,19.5,7.4,19.5,21.9c0,14.5-13.2,14.5-13.2,26.4
				s29.3,9.7,29.3,28.9S155,44,155,55.4c0,11.4,11.9,16.2,11.9,41.5c0,25.4-22.5,29.1-56.9,29.1s-56.9-9.3-56.9-34.7
				s36.7-23.8,39.3-38s-21.5-22-21.5-38.4c0-16.5,34.8-16.5,34.8-29.9s-28-19.6-28-33.3c0-13.7,6.6-16.2,18.9-21.7
				S101.8-99.8,119.5-99.8z"/>
			<path class="st83" d="M111.6,113.6c-0.7,0.2-1.4-0.3-1.6-1c-0.2-0.7,0.3-1.4,1-1.6c16.9-3.7,25.2-12.7,25.2-27.2
				c0-0.7,0.6-1.3,1.3-1.3s1.3,0.6,1.3,1.3C138.8,99.6,129.6,109.6,111.6,113.6z"/>
			<path class="st83" d="M114.5,54.8c-0.7-0.1-1.2-0.7-1.1-1.5c0.1-0.7,0.7-1.2,1.5-1.2c11.7,1.4,20.5-4.4,26.7-17.6
				c0.3-0.7,1.1-0.9,1.7-0.6c0.7,0.3,0.9,1.1,0.6,1.8C137.3,49.9,127.4,56.3,114.5,54.8z"/>
			<path class="st83" d="M127.6-23.7c-0.5-0.1-0.8-0.5-0.8-1c0.1-0.5,0.5-0.8,1-0.8c5.9,0.7,10.4-2.2,13.5-8.8
				c0.2-0.4,0.7-0.6,1.2-0.4c0.4,0.2,0.6,0.7,0.4,1.2C139.5-26.2,134.4-22.9,127.6-23.7z"/>
			<path class="st83" d="M125.1-33.1c-6.8,0.8-11.9-2.5-15.3-9.9c-0.2-0.4,0-1,0.4-1.2c0.4-0.2,1,0,1.2,0.4
				c3.1,6.7,7.6,9.6,13.5,8.8c0.5-0.1,0.9,0.3,1,0.8C125.9-33.6,125.6-33.1,125.1-33.1z"/>
			<path class="st83" d="M116,37.3c-11.8,1.4-20.9-4.6-27-17.7c-0.3-0.7,0-1.4,0.6-1.7c0.7-0.3,1.4,0,1.7,0.6
				C97,30.7,105,36,115.6,34.7c0.7-0.1,1.4,0.4,1.5,1.2C117.2,36.6,116.7,37.2,116,37.3z"/>
			<path class="st83" d="M103.5,98.8c-11.8,1.4-20.9-4.6-27-17.7c-0.3-0.7,0-1.4,0.6-1.7c0.7-0.3,1.4,0,1.7,0.6
				c5.7,12.1,13.7,17.4,24.3,16.2c0.7-0.1,1.4,0.4,1.5,1.2S104.2,98.8,103.5,98.8z"/>
			<path class="st83" d="M112.7,162.5c0,1-0.8,1.7-1.8,1.7s-3.1-0.8-3.1-1.7c1.4-5.9,2.1-14,2.1-24.5c0-15.6-9.4-41.7-7.5-58.9
				c1.9-17.3,20.1-50.1,24.7-76.2c3.8-21.3-3.2-40.4-5.6-53c-2.4-12.7-1.2-27.8-0.9-27.8c0.4,0-0.8,15.5,1.9,27.8
				c2.6,12.3,8.6,28.4,7.7,46.6C128.5,30.2,107,59.6,107,81.7c0,22.1,7.5,35.9,8.6,55.4C116.4,150.2,115.4,158.6,112.7,162.5z"/>
		</g>
		<g transform="translate(90.000000, 302.000000)">
			
				<linearGradient id="Vase-base_1_" gradientUnits="userSpaceOnUse" x1="-1116.0908" y1="-112.3869" x2="-1116.4766" y2="-113.9432" gradientTransform="matrix(105.5707 0 0 -66.1937 117898.9609 -7591.4019)">
				<stop  offset="0" style="stop-color:#E5EDFF"/>
				<stop  offset="1" style="stop-color:#6B9AD9"/>
			</linearGradient>
			<polygon id="Vase-base" class="st84" points="2.1,-110.9 107.7,-110.9 84.2,-44.7 25.6,-44.7 			"/>
			
				<linearGradient id="SVGID_39_" gradientUnits="userSpaceOnUse" x1="-1116.2781" y1="-105.5895" x2="-1116.1976" y2="-108.6517" gradientTransform="matrix(107.6821 0 0 -20.6855 120253.1875 -2314.5222)">
				<stop  offset="0" style="stop-color:#E5EDFF"/>
				<stop  offset="1" style="stop-color:#6B9AD9"/>
			</linearGradient>
			<path class="st85" d="M5.4-113h96.9c3,0,5.4,2.4,5.4,5.4v9.9c0,3-2.4,5.4-5.4,5.4H5.4c-3,0-5.4-2.4-5.4-5.4v-9.9
				C0-110.6,2.4-113,5.4-113z"/>
		</g>
	</g>
</g>
</svg>
