<?xml version="1.0" encoding="utf-8"?>
<!-- Generator: Adobe Illustrator 22.0.1, SVG Export Plug-In . SVG Version: 6.00 Build 0)  -->
<svg version="1.1" id="Layer_1" xmlns="http://www.w3.org/2000/svg" xmlns:xlink="http://www.w3.org/1999/xlink" x="0px" y="0px"
	 viewBox="0 0 1635.6 1218.9" style="enable-background:new 0 0 1635.6 1218.9;" xml:space="preserve">
<style type="text/css">
	.st0{fill:#82ED9F;}
	.st1{fill:#48AA61;}
	.st2{fill:#69A540;}
	.st3{fill:#FFD244;}
	.st4{fill:#3F3A42;}
	.st5{fill:#FFFFFF;}
	.st6{fill:#093B84;}
	.st7{fill:#E5A87C;}
	.st8{fill:#272727;}
	.st9{fill:#F2F2F4;}
	.st10{fill:#DEDEE2;}
	.st11{fill:#D69D76;}
	.st12{fill:#BDBEC0;}
	.st13{fill:#D2D3D5;}
	.st14{fill:#003384;}
	.st15{fill:#F2F2F2;}
	.st16{fill:#FEA36D;}
	.st17{fill:#191F35;}
	.st18{fill:#FFCF49;}
	.st19{fill:#EF9860;}
	.st20{fill:#7A7E7D;}
	.st21{fill:#B5B9BC;}
	.st22{fill:#FEA168;}
	.st23{fill:#EBFAFF;}
	.st24{fill:#E27023;}
	.st25{fill:#EF6B29;}
	.st26{fill:#F28228;}
	.st27{fill:#AF7C5A;}
	.st28{fill:#BD8A5D;}
	.st29{fill:#DA4B47;}
	.st30{fill:#B7B7C7;}
	.st31{fill:#EFC79E;}
	.st32{fill:#E8E5E3;}
	.st33{fill:#E8BA85;}
	.st34{fill:#F8C58E;}
	.st35{fill:#363636;}
	.st36{fill:#161616;}
	.st37{fill:#00307C;}
	.st38{fill:#62993C;}
	.st39{fill:#F9C890;}
	.st40{fill:#092972;}
	.st41{fill:#CECECE;}
	.st42{fill:#BFC3C4;}
	.st43{fill:#70A948;}
	.st44{fill:#40311D;}
	.st45{fill:#A7E5FF;}
	.st46{fill:none;}
	.st47{fill:#1A5EB3;}
	.st48{fill:#A9E7FF;}
	.st49{fill:#F2AF82;}
	.st50{fill:#423A39;}
	.st51{fill:#E6D69B;}
	.st52{fill:#FAFFFA;}
	.st53{fill:#E5A57A;}
</style>
<g>
	<path class="st0" d="M1161.9,538.3h-40c-7.1-26.4-17.6-51.5-31-74.6l28.4-28.4c17.8-17.8,17.8-46.7,0-64.6l-49.2-49.2
		c-17.8-17.9-46.8-17.9-64.6,0L977,349.9c-23.2-13.4-48.2-23.9-74.7-31v-40.3c0-25.2-20.5-45.7-45.7-45.7h-69.5
		c-25.2,0-45.7,20.5-45.7,45.7V319c-26.5,7.1-51.5,17.6-74.7,31l-28.5-28.5c-17.8-17.8-46.8-17.8-64.6,0l-49.2,49.2
		c-17.8,17.8-17.8,46.8,0,64.6l28.4,28.4c-13.4,23.2-23.9,48.2-31,74.6h-40c-25.2,0-45.7,20.5-45.7,45.7v69.6
		c0,25.2,20.5,45.7,45.7,45.7h40c7.1,26.5,17.6,51.6,31.1,74.8l-28.3,28.2c-17.9,17.8-17.9,46.8,0,64.6l49.2,49.2
		c17.8,17.8,46.7,17.8,64.6,0.1l28.4-28.3c23.2,13.4,48.3,24,74.8,31.1v40.1c0,25.2,20.5,45.7,45.7,45.7h69.6
		c25.2,0,45.7-20.5,45.7-45.7V919c26.5-7.1,51.5-17.6,74.7-31.1l28.2,28.3c17.8,17.9,46.8,17.9,64.7,0l49.2-49.2
		c17.8-17.8,17.8-46.8,0-64.6l-28.3-28.3c13.5-23.2,24-48.4,31.1-74.9h40c25.2,0,45.7-20.5,45.7-45.7V584
		C1207.6,558.8,1187.1,538.3,1161.9,538.3z M821.9,841.8C699,841.8,599,741.8,599,618.9C599,496,699,396.2,821.9,396.2
		c122.8,0,222.9,99.8,222.9,222.7C1044.7,741.8,944.7,841.8,821.9,841.8z"/>
	<ellipse class="st1" cx="817.8" cy="1055.7" rx="817.8" ry="50.9"/>
	<g>
		<polygon class="st2" points="136.5,990.1 120.7,980.7 111,991.6 113.6,1008.9 115.6,1013.7 144.9,1005.9 		"/>
		<path class="st3" d="M99.4,942.9c-0.7-0.6-1-0.6-1-0.6c-12.4,0.2-8.6,22.5-4.8,41.9c3.3,16.8,6,31.2,6,31.2
			c2,4.6,7.1,4.7,11.9,3.3C91.5,966.4,97,947.6,99.4,942.9z"/>
		<path class="st4" d="M116.3,996.3c2.9-12.1,12.5-24.1,12.5-24.1c-2.5-3.8-11.1-0.6-11.4-1.3c-11-20.8-16.1-26.5-18-28.1
			c-2.4,4.8-7.9,23.6,12.1,75.8c5.6-1.6,10.8-5.2,10.3-5.8C115,1004.5,116.1,997.1,116.3,996.3z"/>
		<path class="st5" d="M109.1,956.4l-3.6,3.9c-0.4,0.4-1.1,0.4-1.6,0h0c-0.4-0.4-0.4-1.1,0-1.6l3.6-3.9c0.4-0.4,1.1-0.4,1.6,0l0,0
			C109.5,955.3,109.5,956,109.1,956.4z"/>
		<path class="st5" d="M111.5,960.5l-4.7,5c-0.4,0.4-1.1,0.4-1.6,0l0,0c-0.4-0.4-0.4-1.1,0-1.6l4.7-5c0.4-0.4,1.1-0.4,1.6,0l0,0
			C111.9,959.4,111.9,960.1,111.5,960.5z"/>
		<path class="st5" d="M114.2,965.5l-4.7,5c-0.4,0.4-1.1,0.4-1.6,0l0,0c-0.4-0.4-0.4-1.1,0-1.6l4.7-5c0.4-0.4,1.1-0.4,1.6,0l0,0
			C114.7,964.3,114.6,965,114.2,965.5z"/>
		<path class="st5" d="M118,970.1l-6.1,6.5c-0.6,0.6-1.5,0.5-2,0h0c-0.6-0.6-0.5-1.5,0-2l6.1-6.5c0.6-0.6,1.5-0.5,2,0l0,0
			C118.6,968.6,118.6,969.5,118,970.1z"/>
		<path class="st3" d="M165.5,1011.7c0,0-2.1,5.9,2.1,7.1c1.7,0.4,35.4,4.6,67.5,1.1c3.8-0.4-1.7-7.4-1.7-7.4L165.5,1011.7z"/>
		<path class="st6" d="M435.6,992.9c0,0-84.7-63.2-86.8-65.2c-51.5-48.2-70.7-35.2-72.7-34.1c-19.1,9.8-55.6,83.7-55.6,83.7
			s-76.3,6.7-78.4,7.1c-17.3,3.2-6,25.4-6,25.4c17.5,5.4,115.8,10,129,6.7c4.7-1.2,140.3,5.2,141.9,5.1
			C437.2,1019.9,435.6,992.9,435.6,992.9z M263.9,970.7l26-29.2l32.4,34.1C322.3,975.6,267,974.5,263.9,970.7z"/>
		<path class="st7" d="M299.6,798.4c0,0,9.8,8.2,16.2,23.3c0.9,2.1,7.5,0,7.5,0s15.1,21.1,24,4.6c0.6-1.2,9.5,8.5,9.5,8.5
			s19.7-21.7,18.2-26.2l-31.6-27.5l-19.6-11.2l-22.6,17.4L299.6,798.4z"/>
		<path class="st8" d="M288.5,762.6c0,0-6.1,15.5-5.8,22.5c0.3,6.8,14.4,23.6,22.1,12.9c0,0,12.7-17.2,17.3-14
			c1.1,0.8,13,16.1,13.6,16.1s3.6-3.5,3.6-3.5s-6.7-7.8-4.8-10.4c0.8-1.2,5.6-4,11.1,5.4c1.4,2.5,11.2,9.8,22.5,8.1
			c0,0-2.9-5.8-7.5-30.2c-1.1-5.7-15.5-32.8-46.5-20.9c-3.6,1.4-10.8,7.2-18.9,18.6C294.6,767.9,288.5,762.6,288.5,762.6z"/>
		<path class="st9" d="M270.4,974.3L222,916.2l-2.8,0.3c-0.9,0.1-1.4,1.2-0.8,1.9l53.4,63.9h75.5c1.5,0,2.8-0.9,3.4-2.3l0.4-0.9
			l-77.1-0.5L270.4,974.3z"/>
		<path class="st10" d="M352.7,961.8l-65.5-2l-39.3-46.1l-25.9,2.5l48.4,58.1l3.5,4.2L351,979l4.9-12.3
			C356.9,964.4,355.2,961.8,352.7,961.8z"/>
		<path class="st11" d="M334.4,941.5c0,0-4.9,6.3-6.3,6.4c-1.4,0.1-14.3,1-14.3,1s-7.1,6.6-11.1,8.3s27.4,1.3,27.4,1.3l16.5-9.1
			L334.4,941.5z"/>
		<polygon class="st8" points="247.9,913.7 221.9,916.2 270.4,974.3 287.2,959.7 		"/>
		<polygon class="st10" points="250.9,919.9 229.9,921.5 270.5,970.1 283.6,959.3 		"/>
		<polygon class="st8" points="291.5,961.1 282.9,971.7 306.4,973.2 302.2,961.1 		"/>
		<path class="st7" d="M329.6,952.2c0,0-14.9-0.2-16.5,0c-1.5,0.2-12.7,5.6-13.9,6.3c-1.2,0.7-4.1,2.9-7.9,8.4
			c-0.3,0.5-2,5.3,4.5,2.9c2.4-0.9,3.9-4.9,4.7-5c0.8-0.1,1.1,2.1,0.3,4c-0.8,1.8,2.5,1.7,2.5,1.7s-0.8,4.5,6.9,3.7
			s23.8-3.1,27.4-5.5C341.2,966.2,329.6,952.2,329.6,952.2z"/>
		<path class="st12" d="M340.2,947.4c0,0-7.6-4.5-7.6-5.9c0-1.4,36-32,36-32l10.8,31.4L340.2,947.4z"/>
		<path class="st13" d="M325.8,953.5c0,0,39.7-23.5,40-24.2c0.3-0.7-13.8-69.9-12.8-76.5c1-6.5,1.2-45.8,45.6-55
			c2-0.4,17.5,3.6,16.4,13c-0.1,1.2,5.5,1.6,7.7,2.6c1.9,0.9,10.1,9.4-0.7,17.7c-1.4,1.1-8.5,128.6-8.5,128.6l-31-3.5
			c0,0-28.9,20.9-49.5,15.8L325.8,953.5z"/>
		<path class="st12" d="M363,836.3c0,0,65.3-42.5,88.5,40.3c0.7,2.5,15.2,57.6-10.7,121c-0.6,1.5-52.5-28.7-58.4-41.5
			c0,0,19.3-13.5,19.5-14.9C402.1,939.7,410.7,828.9,363,836.3z"/>
	</g>
	<g>
		<polygon class="st14" points="684.1,1049.8 673.2,1040.9 637.5,1046.5 620.5,1054.4 627.7,1062.2 674.7,1071.6 681.3,1057.4 		"/>
		<g>
			<g>
				<path class="st15" d="M663.2,1061.4L663.2,1061.4c0.5,0,0.8-0.4,0.8-0.8c0-11.1,4.1-15,4.2-15.1c0.3-0.3,0.4-0.8,0-1.2
					c-0.3-0.3-0.8-0.4-1.2,0c-0.2,0.2-4.7,4.5-4.7,16.3C662.4,1061.1,662.7,1061.4,663.2,1061.4z"/>
			</g>
			<g>
				<path class="st15" d="M657.3,1061.4C657.3,1061.4,657.3,1061.4,657.3,1061.4c0.5,0,0.8-0.4,0.8-0.8c0-11,4.1-15,4.2-15.1
					c0.3-0.3,0.3-0.8,0-1.2c-0.3-0.3-0.8-0.4-1.2,0c-0.2,0.2-4.7,4.5-4.7,16.3C656.5,1061.1,656.9,1061.4,657.3,1061.4z"/>
			</g>
			<g>
				<path class="st15" d="M651.5,1060.4C651.5,1060.4,651.5,1060.4,651.5,1060.4c0.5,0,0.8-0.4,0.8-0.8c0-11,4.1-15,4.2-15.1
					c0.3-0.3,0.3-0.8,0-1.2c-0.3-0.3-0.8-0.4-1.2,0c-0.2,0.2-4.7,4.5-4.7,16.3C650.7,1060,651.1,1060.4,651.5,1060.4z"/>
			</g>
			<g>
				<path class="st15" d="M645.9,1059.3C645.9,1059.3,645.9,1059.3,645.9,1059.3c0.5,0,0.8-0.4,0.8-0.8c0-11,4.1-15,4.2-15.1
					c0.3-0.3,0.3-0.8,0-1.2c-0.3-0.3-0.8-0.4-1.2,0c-0.2,0.2-4.7,4.5-4.7,16.3C645.1,1058.9,645.5,1059.3,645.9,1059.3z"/>
			</g>
		</g>
		<path class="st16" d="M645.3,1047.8c0,0-24.5,12.2-30.5,7.4c0,0,6.4-5.2-1.8-10.4c-0.6-0.4-2.8-1.6-4.8,0.4s-6.8,0-7.4-1.1
			c-0.6-1.1-1.1-21.6-1.1-21.6l12.7,4l30.7-0.7c0,0,14.2,17.5,13.8,18.1S645.3,1047.8,645.3,1047.8z"/>
		<path class="st17" d="M550.9,988.4c0,0-49.8-22.6-58.2-16.8c-3.6,2.5-19.1,9.5-8.7,29.1c2.2,4.2,16.1,23.7,24.8,26.7
			c5.1,1.7,17.4,9,19.9,11.2s18.3,15,23.7,15.8s51,0,51,0s-3.3-23.7,1.1-26.7l18.8,11.7l17.2-9.8c0,0-0.2,15.8,3.2,18.5
			c3.4,2.7,3.9,6.6,5.7,6.6c1.8,0,2.5,10.6,2.5,10.6s28.1-17.4,29.5-17.4c1.4,0,13.1,5.9,13.1,5.9s30.9-21.7,38.2-23.6
			c7.2-1.9,21.1-18.7,23.3-22.9s18.9-21.3-3.1-34.5c-2.6-1.6-7.4-4.6-32.7,5.6c-1.3,0.5-76.3,27.5-76.5,27.9
			S550.9,988.4,550.9,988.4z"/>
		<path class="st14" d="M622.2,1052.4c0,0-2.1-10.5-10.8-9.4c0,0-26.1,4-43.8,5.4c-0.1,0-0.3,0-0.7,0c2.5,4.6,6.8,14.4,2.5,21
			c-0.7,1,16,1.8,49.4-7.8c0.2-0.1,1,0.5,1.8,1.2c0.1-0.1,0.2-0.1,0.3-0.2C621.8,1061.8,622.2,1052.4,622.2,1052.4z"/>
		<g>
			<path class="st15" d="M585.7,1063C585.7,1063,585.7,1063,585.7,1063c-0.5,0-0.8-0.4-0.8-0.8c0-11.1-4.1-15-4.2-15.1
				c-0.3-0.3-0.4-0.8,0-1.2c0.3-0.3,0.8-0.4,1.2,0c0.2,0.2,4.7,4.5,4.7,16.3C586.5,1062.6,586.1,1063,585.7,1063z"/>
		</g>
		<g>
			<path class="st15" d="M591.5,1063C591.5,1063,591.5,1063,591.5,1063c-0.5,0-0.8-0.4-0.8-0.8c0-11-4.1-15-4.2-15.1
				c-0.3-0.3-0.3-0.8,0-1.2c0.3-0.3,0.8-0.4,1.2,0c0.2,0.2,4.7,4.5,4.7,16.3C592.3,1062.6,592,1063,591.5,1063z"/>
		</g>
		<g>
			<path class="st15" d="M597.4,1061.9C597.4,1061.9,597.4,1061.9,597.4,1061.9c-0.5,0-0.8-0.4-0.8-0.8c0-11-4.1-15-4.2-15.1
				c-0.3-0.3-0.3-0.8,0-1.2c0.3-0.3,0.8-0.4,1.2,0c0.2,0.2,4.7,4.5,4.7,16.3C598.2,1061.6,597.8,1061.9,597.4,1061.9z"/>
		</g>
		<g>
			<path class="st15" d="M603,1060.8C603,1060.8,603,1060.8,603,1060.8c-0.5,0-0.8-0.4-0.8-0.8c0-11-4.1-15-4.2-15.1
				c-0.3-0.3-0.3-0.8,0-1.2c0.3-0.3,0.8-0.4,1.2,0c0.2,0.2,4.7,4.5,4.7,16.3C603.8,1060.5,603.4,1060.8,603,1060.8z"/>
		</g>
		<path class="st15" d="M621,1055.4c0,0-0.4,12.3,45.4,19c2.4,0.3,42.9,3.6,28.3-21.5c-0.7-1.2-6.2-4.5-13.6-5.5
			c-0.5-0.1-7.8,9.6-7.1,19.8c0.1,1-43.5-3-51.6-12.7C621.9,1053.8,621,1055.4,621,1055.4z"/>
		<path class="st15" d="M569.5,1069.4c4.2-6.6,0-16.3-2.5-21c-3.6,0-19.1,0.2-18.2,12.8c0.2,2.5,3.4,18.3,44.8,10.4
			c2.8-0.5,24.3-7.5,27.1-8.8c1.4-1,1-2.9,0.7-2.8C587.9,1069.6,568.8,1070.4,569.5,1069.4z"/>
		<path class="st18" d="M717.5,951c-4.9-40.2-20.2-75.7-23.4-78.2c-23.2-18.3-71.7-21.8-71.7-21.8l-0.9,4.5l-0.9-4.5
			c0,0-48.5,3.5-71.7,21.8c-3.2,2.5-18.5,38-23.4,78.2c-0.2,1.9-3.8,25.4,42.8,36.8c11.6,2.9-6.8-46.3-6.8-46.3s0.3-12.8,2.2-10.3
			c1.9,2.5,16.6,71.1,16.6,71.1l41.3-1.1l41.3,1.1c0,0,15.1-67.7,17-70.2c1.9-2.5,1.8,9.4,1.8,9.4s-18.5,49.2-6.8,46.3
			C721.3,976.4,717.7,952.9,717.5,951z"/>
		<path class="st19" d="M621,879L621,879c-7.6,0-22.5-3.7-22.5-13.8v-13.8h45.1v13.8C643.6,875.6,628.6,879,621,879z"/>
		<g>
			<path class="st20" d="M673.7,1007.2l18.8-20.6H547.8c0,0,0.5,1.8,1.2,3.7l21.2,19.7L673.7,1007.2z"/>
			<path class="st21" d="M673.7,1007.2l-103.5,2.9L549,990.4c0.6,1.5,1.2,3.1,1.9,3.9c7.7,8.7,17.3,17.4,17.3,17.4h105.4l19.8-24.9
				h-0.9L673.7,1007.2z"/>
			<g>
				<path class="st21" d="M685.7,935.4H556.1c-2.7,0-4.8,2-5.1,4.5h139.9C690.5,937.4,688.4,935.4,685.7,935.4z"/>
				<path class="st21" d="M550.9,939.9c-0.1,0.6-0.1,1.3,0.1,1.9l17.2,69.8h105.3l17.2-69.8c0.2-0.7,0.2-1.3,0.1-1.9H550.9z"/>
			</g>
		</g>
		<ellipse class="st15" cx="620.5" cy="977.9" rx="11.3" ry="6.3"/>
		<path class="st8" d="M588.3,816.5c1.9,1,2.2,16.4,4,16.1c1.8-0.3,1-6.4,0.8-8.2c-1.5-17.7,6.7-21.1,6.7-21.1s21.6,10.1,40.3,6.4
			c1-0.2,7.6-4.6,5.7,12.1c-0.2,2.2,0.3,10.2,0.3,10.2s3.7,1.4,4.8-14.1c0.1-0.9,1.5-1.4,3.1-1.7c3-13.5,0.5-27.2,0-29.9
			c-4.1-19.4-35.8-16.2-35.8-16.2c-47.2,0.6-33.7,42.3-33.9,47.9C586.1,816.9,587.6,816.1,588.3,816.5z"/>
		<path class="st22" d="M654.1,816.2c-1.6,0.3-3,0.8-3.1,1.7c-1.1,15.5-4.8,14.1-4.8,14.1s-0.6-8.1-0.3-10.2
			c1.9-16.8-4.7-12.3-5.7-12.1c-18.7,3.7-40.3-6.4-40.3-6.4s-8.2,3.4-6.7,21.1c0.1,1.8,1,7.9-0.8,8.2c-1.8,0.3-2-15.1-4-16.1
			c-0.7-0.4-2.2,0.4-3.9,1.5c0,0.2,0,0.3-0.1,0.4c-4.3,12.9,5.9,15.3,5.7,18.2c-1.2,24.3,26.7,33.1,31.3,32.1
			c29.8-6.3,26.3-29.1,27.4-30.3c11.9-12.3,5.3-22.1,5.3-22.1C654.1,816.3,654.1,816.3,654.1,816.2z"/>
	</g>
	<g>
		<path class="st23" d="M1218.7,1198.2c3.2,2.9,6,5.3,6.8,5.5c2.2,0.5,25.3,0.3,26.7-1c3.2-3,4.5-5.4,4.8-7.4
			C1254.2,1198.1,1244,1205.1,1218.7,1198.2z"/>
		<path class="st24" d="M1254.6,1189.1c-1.7-2-33.5-17.3-33.5-17.3l-7.6,7.6l-6.6,7.4c0,0,6.5,6.4,11.9,11.4
			c25.3,6.9,35.5-0.1,38.3-2.9C1257.4,1192.5,1255.8,1190.5,1254.6,1189.1z"/>
		<path class="st25" d="M1179.1,1172.7l2.1,15.3c0,0,11.8,3.5,12.7,3.4c0.9-0.1,9.8-10.6,9.8-10.6l1.2-11.6L1179.1,1172.7z"/>
		<path class="st26" d="M1237,1213.8c0.1-0.3,0.2-0.6,0.3-0.9c0.2-1-2.4-8-16.4-14.3c-1.6-0.7-13.3-12.5-13.8-19.8
			c0,0-0.6-7.3-5.7-3.3c-1.6,1.2-1.3,11.6-9.9,12.6c-1.9,0.2-10.2-1.4-9.3-7.5c0.9-6.1-6.6,0.5-6.6,0.5s-0.7,8.3-1.3,14
			C1181.5,1199.4,1213.6,1217.7,1237,1213.8z"/>
		<path class="st27" d="M1222.5,1172.7l-70.6-75.9l58.3,89.7C1210.3,1186.5,1223.1,1175.2,1222.5,1172.7z"/>
		<path class="st23" d="M1174.2,1195.1c-0.3,2.8-0.8,5-0.7,5.3c0.3,1.3,57.5,29.9,63.5,13.4
			C1213.6,1217.7,1181.5,1199.4,1174.2,1195.1z"/>
		<path class="st28" d="M1180.4,1051.5c0,0-2-14.5-11.9-19.2c-0.8-0.4-22.5-7-22.5-7l-96.8-38l-60.6,34.8c0,0,1.7,33.3,30.2,45.2
			c1.6,0.7,79.4,33.6,80.8,34.4c1.3,0.7,67,59.6,68.4,60.3c1.4,0.7,6.1,21.4,6.1,21.4s12.2-1.8,15.7-2.9c4.3-1.3,15.1-6.6,15.1-6.6
			L1180.4,1051.5z M1094.3,1049.7l53.2,19.2l4.9,27.8C1146.8,1086.5,1094.3,1049.7,1094.3,1049.7z"/>
		<path class="st29" d="M955.5,927c0,0-5-30.4-3.3-33.3c1.8-2.9,14.4-33.4,59.8-32.6c3.5,0.1,56.7-5.3,62.4,41.8
			c0.1,1.2-11.1,62.8-11.1,62.8l12.7,32.5l-34,25.8c0,0-47.8,5.5-54.4-1.1c-1.8-1.8-3-17.7-0.8-24c2.2-6.3-22.9-65.2-22.9-65.2
			S956.5,928.8,955.5,927z"/>
		<path class="st30" d="M1020.4,1038.1c0,0,18.3,14.9,60,28.9l45.5-60.5l-45.5-2.9L1020.4,1038.1z"/>
		<path class="st8" d="M1097.5,1014.2l-43,26.5c-1.1,0.7-1,2.3,0.2,2.8l30.8,13.6l15.8-42.8H1097.5z"/>
		<path class="st31" d="M1088.2,1023.4c2.2,0.5,0.4-3.2,0.4-3.2s1.4-1.4,2.3,3.9c0.1,0.4,1.2,1.9,2.2,0.7c1.1-1.2,0.3-7.7,1.3-7.8
			c1-0.1,2.4-1.7,2.7,6.4c0.3,8.1,9.4-18.7,9.4-18.7l-18-13.7c0,0-0.2-25.5-10.3-41.8c-1.2-1.9-0.5-40.3-3.7-46.1l-11.4,10.2
			c0,0,1.5,12.5-1.2,20c-0.3,0.9-2.7,24.5-0.7,31.8c2,7.2,15.9,29,15.9,29s-5.4,3.7-5.6,12c-0.1,2.8,5.8,10.2,7.2,9.4
			c1.3-0.8-2.4-7.3-1.6-9.5c0.7-2.2,6.3,0.6,7.3,10C1084.3,1015.9,1084.3,1022.6,1088.2,1023.4z"/>
		<path class="st31" d="M958.9,929.6c3,10.9,12.8,44.1,20.2,53c1.3,1.6,4.5,16.9,5.6,20.2c1.1,3.3,24.4,20.7,61.9,19.9
			c1.6,0,2.2,6.8,10.9,10.4c2.3,0.9,7,2.9,7,2.9s7.6,7.2,8.3,6.3s0.1-3.4-5-8.7c-0.7-0.7,0-2.8,2.9-1.1c0.9,0.5,5.5,7.8,6.7,7.9
			c1.2,0.1,4.4,0.1,5.2,1.1c0.8,1,4-1.4,4-2s-9.1-10.4-8.9-11.1c0.2-0.7,0.3-1.8,2.2-1.1c0.6,0.2,4.8,6.4,6,6.1
			c1.2-0.3,2.9-1.8-1.7-8.9c0,0-5-6.5-6.2-6.9c-1.2-0.4-15.5-3.2-16.2-3.6s-45.5-18.6-55.9-28.5c-1-1-3.7-7.5-3.7-8.7
			s-2.6-33.1-7.9-45.5c0,0-19.7,3.1-35-1.7"/>
		<path class="st32" d="M1108.3,995.9l63-29.2c1.7-0.8,3.5,0.9,2.9,2.7l-20.1,53.4c-0.3,0.8-0.9,1.5-1.7,2l-72,42.2l24.6-67.4
			C1105.5,998,1106.7,996.7,1108.3,995.9z"/>
		
			<ellipse transform="matrix(0.707 -0.7072 0.7072 0.707 -383.7858 1097.6508)" class="st5" cx="1132.9" cy="1012" rx="7.1" ry="4.6"/>
		<g>
			<g>
				<g>
					<path class="st23" d="M1218.2,1185.4c-0.2,0-0.3-0.1-0.4-0.2c-0.2-0.2-0.2-0.6,0-0.8c0.1-0.1,6.5-6,8.1-10.5
						c0.1-0.3,0.5-0.5,0.8-0.4c0.3,0.1,0.5,0.4,0.4,0.7c-1.7,4.8-8.2,10.7-8.4,11C1218.5,1185.3,1218.3,1185.4,1218.2,1185.4z"/>
				</g>
				<g>
					<path class="st23" d="M1222.9,1187.1c-0.2,0-0.3-0.1-0.4-0.2c-0.2-0.2-0.2-0.6,0-0.8c0.1-0.1,6.5-6,8.1-10.5
						c0.1-0.3,0.5-0.5,0.8-0.4c0.3,0.1,0.5,0.4,0.4,0.7c-1.7,4.8-8.2,10.7-8.4,11C1223.2,1187.1,1223,1187.1,1222.9,1187.1z"/>
				</g>
				<g>
					<path class="st23" d="M1227.6,1188c-0.2,0-0.3-0.1-0.5-0.2c-0.2-0.3-0.2-0.6,0.1-0.8c0.1,0,5.9-4.6,7.5-9.2
						c0.1-0.3,0.5-0.5,0.8-0.4c0.3,0.1,0.5,0.4,0.4,0.7c-1.7,4.8-7.6,9.5-7.9,9.7C1227.8,1188,1227.7,1188,1227.6,1188z"/>
				</g>
				<g>
					<path class="st23" d="M1232.4,1189.4c-0.2,0-0.3-0.1-0.4-0.2c-0.2-0.2-0.2-0.6,0-0.8c0,0,4.1-4.2,5.8-8.7
						c0.1-0.3,0.5-0.5,0.8-0.4c0.3,0.1,0.5,0.4,0.4,0.7c-1.7,4.8-5.9,8.9-6.1,9.1C1232.8,1189.4,1232.6,1189.4,1232.4,1189.4z"/>
				</g>
			</g>
			<g>
				<g>
					<line class="st23" x1="1204.2" y1="1193.3" x2="1209.7" y2="1188"/>
					<path class="st23" d="M1204.2,1193.9c-0.2,0-0.3-0.1-0.4-0.2c-0.2-0.2-0.2-0.6,0-0.9l5.5-5.3c0.2-0.2,0.6-0.2,0.9,0
						c0.2,0.2,0.2,0.6,0,0.9l-5.5,5.3C1204.5,1193.8,1204.4,1193.9,1204.2,1193.9z"/>
				</g>
				<g>
					<line class="st23" x1="1208.3" y1="1195.7" x2="1213.8" y2="1190.4"/>
					<path class="st23" d="M1208.3,1196.3c-0.2,0-0.3-0.1-0.4-0.2c-0.2-0.2-0.2-0.6,0-0.9l5.5-5.3c0.2-0.2,0.6-0.2,0.9,0
						c0.2,0.2,0.2,0.6,0,0.9l-5.5,5.3C1208.6,1196.2,1208.5,1196.3,1208.3,1196.3z"/>
				</g>
				<g>
					<line class="st23" x1="1212.9" y1="1197.3" x2="1216.5" y2="1193.9"/>
					<path class="st23" d="M1212.9,1197.9c-0.2,0-0.3-0.1-0.4-0.2c-0.2-0.2-0.2-0.6,0-0.9l3.5-3.5c0.2-0.2,0.6-0.2,0.9,0
						c0.2,0.2,0.2,0.6,0,0.9l-3.5,3.5C1213.3,1197.9,1213.1,1197.9,1212.9,1197.9z"/>
				</g>
				<g>
					<line class="st23" x1="1216.5" y1="1199.4" x2="1219.2" y2="1196.7"/>
					<path class="st23" d="M1216.5,1200c-0.2,0-0.3-0.1-0.4-0.2c-0.2-0.2-0.2-0.6,0-0.9l2.7-2.7c0.2-0.2,0.6-0.2,0.9,0
						c0.2,0.2,0.2,0.6,0,0.9l-2.7,2.7C1216.8,1199.9,1216.6,1200,1216.5,1200z"/>
				</g>
			</g>
		</g>
		<path class="st33" d="M1001.7,838.7c0,0,1.1,18-6.7,24.1c-3.7,2.9,22.1,23.6,39,22.6c2.3-0.1,19.1-7.6-3.3-26.4
			C1028.7,857.4,1015,833.9,1001.7,838.7z"/>
		<path class="st34" d="M1057.9,805.8c0,0-1.4,33.4-3.1,35.9c-1.8,2.5-10.4,17.2-12.3,18.5c-1.4,0.9-9.9,2.9-11,3.7
			c-1.1,0.8-24.7-11.4-29.8-21.1c-5.2-9.7-3.8-38.4-3.8-38.4l53.2-16.4L1057.9,805.8z"/>
		<path class="st35" d="M1001.7,847.9c0,0-4.5-3.9-4.7-10c-0.2-6.1-7.8-43.3,0-53.4s26.4-23.1,48.9-11.2c2.6,1.4,12.9,11,21.5,9
			c8.6-2,4.5,31.3-11.4,29.6c-7.1-0.7-23.7-13.3-29.6-11.7c-2.6,0.7-10.4,2.2-11.9,32.5c-0.1,2.1-4.3,1.6-4.1-1.6
			c0.2-3.3,1.1-16.7-5-17c0,0-9.4,0.8-2.4,14.7C1003.6,830.1,1004.6,845,1001.7,847.9z"/>
	</g>
	<g>
		<path class="st36" d="M1405.7,796.4c0,0-5.5-9.6-7.4-10.5c-44.3-20.7-85.3,85.5-85.3,85.5s21.6,8,26.4,5.7s25.6-39.2,27.3-39.3
			s0.5,4,3.2,5.1c3.7-7-0.5-11.2-0.5-11.2c-1.8-6.8,3.2-12.6,4-13.1c8-4.9,6.1,7.8,6.1,7.8s0.4,4.7,1.1,4.3s19.8-20.2,19.9-15.8
			c0.1,4.2,18.5,22.1,20.8,24.5c0.1,0.1,0.1,0.1,0.2,0.2c1.2,1.4-0.1,6.8,1.8,4.5C1447.9,813.1,1405.7,796.4,1405.7,796.4z"/>
		<path class="st37" d="M1425,896c0,0,3.4-27.4-29.7-26c-3.1,0.1-54.4-10.9-64.6,0c-2,2.1-8,12.4-4.1,27.3c0.2,0.6,1.9,4.4,1.8,6.4
			s8.1,32.8-13.1,35.5c-0.9,0.1-25.7,4.2-33.6,20.1c-0.4,0.7,98.4,8.9,98.4,8.9s2.3-10.8,14.6-22.2c1.1-1.1,15.6-16.6,18.2-31.7
			C1413,914,1413.5,900.6,1425,896z"/>
		<path class="st38" d="M1345.5,954.6c0,0-35-27.7-63.8,4.7c-2.8,3.2-8.2,25.6,5.1,33.9c5,3.1,87.5-17.5,87.5-17.5L1345.5,954.6z"/>
		<path class="st39" d="M1380.5,830.7c-0.7,0.4-1.1-4.3-1.1-4.3s1.9-12.7-6.1-7.8c-0.8,0.5-5.7,6.3-4,13.1c0,0,4.2,4.2,0.5,11.2
			c-0.7,1.3,1.5,15.5-13.2,22.9c-1.5,0.8,7,39.1,28.6,48.5c0.8,0.3,23.2,6.7,14.9-43.3c-0.1-0.7,13.7-8.9,16.7-13.2
			c0.5-0.7,4.3-8.7,4.4-18.3c-2.3-2.4-20.7-20.3-20.8-24.5C1400.2,810.5,1381.1,830.3,1380.5,830.7z"/>
		<path class="st39" d="M1423.3,895.9c0,0-1.9,38.7-2.5,41.4c-0.5,2.7,11.5,40.6,12.5,41.9c1,1.3,9.3,0.3,9.7,0.7
			c0.4,0.3,5.1,1,15.7,9c1.1,0.8-15.3,2.7-31.8,0.8c0,0-12.3-20-25.6-54.1c-0.7-1.8,13.1-37.6,13.1-37.6L1423.3,895.9z"/>
		<path class="st40" d="M1258.1,990.5c0,0-1.5-8.6-22.5-1.1c-1.5,0.5-32.8,9.2-32.8,25.9c0,1.4-0.1,5.4,10,5.4
			c0.6,0-2.4,5.3-3.1,6.7s-1.1,7.2,15.4,7.4c5.6,0.1,23.8-8.3,36.2-16.4C1262.8,1017.5,1258.1,990.5,1258.1,990.5z"/>
		<path class="st18" d="M1388.2,797.7c0,0,13.6-1.7,19-1.3c5.4,0.4-4-10.9-9.8-9.5C1396.2,787.1,1382,791.8,1388.2,797.7z"/>
		<path class="st39" d="M1256.6,990.4c0,0-5-2.6-12.5,0.6c-1.2,0.5-23.2,8.5-24.9,12.5c-0.4,0.9-4,9.1,4.2,11.4
			c3,0.9,20-9.1,26.7-10.6c1.2-0.3,5-0.3,6.1,1.8C1256.8,1007.4,1256.6,990.4,1256.6,990.4z"/>
		<path class="st39" d="M1257.7,1018.4c0,0-26.6,16.4-31.1,9c-0.3-0.4-3.8-6.2,1.4-11.1c1.9-1.8,25.3-11.5,27.5-10.5
			S1257.7,1018.4,1257.7,1018.4z"/>
		<path class="st38" d="M1397.9,1000.3c0,0,24.9,26.4-17.3,30.8c-1.8,0.2-48.9,1.6-84.5-7.8c-1.5-0.4-24.7-4.8-38.4-3.8
			c-2,0.1-7.8-10-2.6-14.3S1397.9,1000.3,1397.9,1000.3z"/>
		<path class="st41" d="M1385.9,1027.2c2.2,2.4,6.5,5.2,14.8,7.2c1.1,0.3,36.5,12.2,45.3,15.1c1.3,0.4,2.7,0.4,4,0l80.1-25.3
			c1.5-0.5,2.6-1.7,3-3.2l0.2-1.1l-85.3,26.7L1385.9,1027.2z"/>
		<path class="st42" d="M1544.2,954.8l-76.7,20.2c-1.2,0.3-2.1,1.2-2.4,2.3l-6.7,24.7l-4.6-0.7l-70.3,21.3c0,0,0,2.1,2.4,4.7
			l62.1,19.4l85.3-26.7l13.8-62.4C1547.4,955.8,1545.9,954.3,1544.2,954.8z"/>
		<polygon class="st37" points="1454.1,1012.4 1446.7,1039.1 1411,1025.7 		"/>
		
			<ellipse transform="matrix(0.3989 -0.917 0.917 0.3989 -16.1374 1980.3239)" class="st5" cx="1502.5" cy="1002.5" rx="7.5" ry="5.6"/>
		<path class="st43" d="M1256.3,989.6c0,0,40.2,0.8,110.9-15.7c3.1-0.7,41.6,19.5,41.6,19.5l-5,5.2c0,0-10.4,17.2-76.1,12.1
			c-1.9-0.1-72.6-5.6-72.6-5.6S1248.2,992.9,1256.3,989.6z"/>
		<path class="st39" d="M1329.6,896.8c0,0,5.8,46.8,14.5,60.3c0.9,1.3,4.4,12.7,31.5,22.6c0.8,0.3,18.5,6.8,20.2,9.3
			c1.7,2.5,4.1,8.6,9,12.2c4.9,3.6,12.7,9.2,15.1,10.2c2.4,1,7.2,1.6,7.1,0.3c-0.1-1.3-3.2-3-3.2-3.6s-2.7-13.1-4.2-14.2
			s-24.3-18.9-57.9-42.7c-0.5-0.3-2.5-4.8-3-13.9c0-0.7-3.6-38.5-3.6-38.5S1333.2,902.8,1329.6,896.8z"/>
	</g>
	<g>
		<path class="st44" d="M795.3,653.9c-0.5,2-22.4-19.5-17-44.6c1.1-5.2,1-30.9,21.5-36c4.3-1.1,10.6,0.6,15.9-1.4s41.3-3.9,45,38.6
			c0.2,2.5,1.4,27.6-16.4,41.1C841.4,653.9,795.3,653.9,795.3,653.9z"/>
		<path class="st45" d="M896.1,720.3c-5.1-57.9-24.7-62.9-27-63.3c-16.6-3-27.9-10.1-27.9-10.1l-21.4-3.3l-21.4,3.3
			c0,0-11.3,7.1-27.9,10.1c-2.2,0.4-21.9,5.4-27,63.3c-0.1,1.7-0.7,24.5,0,26.4s1.7,13.8,27.3,36.2c2,1.7,49,0,49,0s47,1.7,49,0
			c25.5-22.4,26.6-34.4,27.3-36.2S896.2,722,896.1,720.3z"/>
		<path class="st46" d="M819.7,643.6l-21.2,3.3c0,0-0.9,0.5-2.4,1.4L819.7,643.6C819.7,643.6,819.7,643.6,819.7,643.6z"/>
		<polygon class="st46" points="819.8,643.6 819.8,643.6 819.8,643.6 		"/>
		<path class="st46" d="M843.7,648.3c-1.6-0.9-2.5-1.4-2.5-1.4l-21.4-3.3l0.8,0.2L843.7,648.3z"/>
		<path class="st47" d="M820.6,643.8l-0.8-0.2c0,0,0,0,0,0L820.6,643.8z"/>
		<path class="st48" d="M819.7,643.6C819.7,643.6,819.7,643.6,819.7,643.6L819.7,643.6L819.7,643.6z"/>
		<path class="st48" d="M819.7,698C819.7,698,819.7,698,819.7,698C819.7,698,819.7,698,819.7,698c0.1,0,0.1,0,0.1,0c0,0,0,0,0,0
			c24.4-0.2,26-41.7,26-48.3l-25.3-5.9l-0.8-0.2c0,0,0,0,0,0l-26.2,6.1C793.7,656.4,795.3,697.8,819.7,698z"/>
		<path class="st49" d="M790.3,848.6c2-0.3,29.5-9.7,29.5-9.7s23.7,8.4,26.4,8.7c3.6,0.4,18.8,1.6,18.8-15.3
			c-16-2.5-44.7-7-45.2-6.3c-4,5.1-30,7.3-43.7,8.9C777,839.2,780.2,850,790.3,848.6z"/>
		<path class="st50" d="M875.5,834c0,0-4.3-0.7-10.5-1.7c0,16.9-15.3,15.7-18.8,15.3c-2.7-0.3-26.4-8.7-26.4-8.7s-27.5,9.4-29.5,9.7
			c-10.1,1.4-13.3-9.4-14.2-13.7c-5,0.6-8.4,1-8.5,1.6c-1.8,25.4,23.7,17.1,25.6,16.2c5.6-2.6,23.1-6.1,23.6-7
			c0.5-0.8,3.7-4.5,3.7-4.5c8.5,9.4,12.5,5.3,13.3,5.6c31.9,11.6,34.7,4.8,36.1,3.8C878.1,845.2,875.5,834,875.5,834z"/>
		<path class="st51" d="M774.2,784.7c0,0-55.2-21.5-57.9-21.7s-24.1,0-9.8,30.7c1.5,3.2,13.7,20.3,60.2,44c2.1,1.1,50-1,53.1-11.7
			l8.4,20.2c0,0,40.1-19.4,47.8-8c0,0,17.5-12.9,20.4-13.7c2.9-0.8,51.3-22.7,44.9-53c-0.6-2.9-3.8-23.5-75.7,16.2
			C860.9,790.4,774.2,784.7,774.2,784.7z"/>
		<path class="st52" d="M838.8,644.8l-18.9-2.4l-18.9,2.4c0,0-7.8,2.8-4.9,11.3c0.1,0.4,9,20.2,9.9,20.6c0.9,0.5,4.7-6.9,4.5-8.1
			c-0.2-1.2,7.4,12.7,9.5,12.7c2.1,0,9.7-13.9,9.5-12.7c-0.2,1.2,3.6,8.5,4.5,8.1c0.9-0.5,9.7-20.2,9.9-20.6
			C846.6,647.6,838.8,644.8,838.8,644.8z"/>
		<path class="st47" d="M867.1,719.7c-0.1-2,0.8-9.1-0.8-10.4s-0.8-12.1-1-14.2c-0.1-1.8,2.7-30.3,3.5-38.1
			c-9.4-1.8-17.1-4.8-22-7.1c-0.3-0.1-0.6-0.3-0.9-0.4c0,0.1,0,0.1,0,0.2c-0.1,6.6-1.6,48.2-26,48.3c0,0,0,0,0,0c0,0,0,0-0.1,0
			c0,0,0,0-0.1,0c0,0,0,0,0,0c-24.4-0.2-25.9-41.6-26-48.3c0-0.1,0-0.1,0-0.2c-0.2,0.1-0.5,0.2-0.8,0.4c-4.8,2.3-12.6,5.3-22,7.1
			c0.8,7.8,3.6,36.4,3.5,38.1c-0.1,2,0.7,12.9-1,14.2c-1.6,1.2-0.7,8.3-0.8,10.4s-6.4,18.5-5.8,20.7l53,12.1l52.4-11.6
			C872.9,738.7,867.2,721.7,867.1,719.7z"/>
		<path class="st49" d="M848.1,618.1c-1.1,0.3-2.2,3.4-3,5c-0.8,1.6-1.4-4.1-3.1-4.5c-1.2-0.3-8.9-7.1-10.9-9.8
			c-1.3-1.8-9.7-0.8-12.3,0c-2.6,0.8-5.6-1.2-6.8-2.6c-1.8-2-4.8-7.4-8.5-6.4c-1.4,0.4-6,4.4-8.3,13.6c-0.3,1.1-3.5,7.5-4.1,6.1
			c-0.5-1.4-1.7-3.5-3-2.3c-1.2,1.1-4.6,9.5,2.2,19.4c0.7,1,2.3-1.1,2.3-1.1s1.5,12.1,5,12.5c0.4,0,1,0.4,1.7,1.1
			c1.2,1,2.8,2.7,4.5,4.8c9.6,5,26.1,8.4,37.2-7c1.1-2.4,3.8-5.3,2.8-10.3c-0.1-0.7,5.5,1.5,6.5-10.5
			C850.8,624.1,851.9,617.1,848.1,618.1z"/>
		<path class="st53" d="M804,654c6.7,7.9,15.9,21,15.9,21s6.1-13.4,7-13.5c0.6-0.1,7.3-6.5,11.4-10.9c1.5-1.7,2.7-3,2.9-3.6
			c0,0,0,0,0-0.1C830,662.4,813.5,658.9,804,654z"/>
		<g>
			<path class="st20" d="M865.5,800.6l16-17.5H758.6c0,0,0.4,1.5,1,3.1l18,16.7L865.5,800.6z"/>
			<path class="st21" d="M865.5,800.6l-87.8,2.4l-18-16.7c0.5,1.3,1.1,2.7,1.6,3.3c6.5,7.4,14.7,14.8,14.7,14.8h89.5l16.8-21.2h-0.8
				L865.5,800.6z"/>
			<g>
				<path class="st32" d="M875.7,739.6H765.6c-2.3,0-4.1,1.7-4.4,3.8h118.8C879.8,741.3,878,739.6,875.7,739.6z"/>
				<path class="st32" d="M761.2,743.4c-0.1,0.5-0.1,1.1,0.1,1.7l14.6,59.3h89.4L880,745c0.1-0.6,0.2-1.1,0.1-1.7H761.2z"/>
			</g>
		</g>
	</g>
	<g>
		<g>
			<g>
				<path id="XMLID_18_" class="st5" d="M619.2,221.3h11.1v11.1c0,4.1,3.3,7.4,7.4,7.4c4.1,0,7.4-3.3,7.4-7.4v-11.1H656
					c4.1,0,7.4-3.3,7.4-7.4c0-4.1-3.3-7.4-7.4-7.4H645v-11.1c0-4.1-3.3-7.4-7.4-7.4c-4.1,0-7.4,3.3-7.4,7.4v11.1h-11.1
					c-4.1,0-7.4,3.3-7.4,7.4C611.8,218,615.1,221.3,619.2,221.3z"/>
				<path id="XMLID_17_" class="st5" d="M987.6,221.3h11.1v11.1c0,4.1,3.3,7.4,7.4,7.4s7.4-3.3,7.4-7.4v-11.1h11.1
					c4.1,0,7.4-3.3,7.4-7.4c0-4.1-3.3-7.4-7.4-7.4h-11.1v-11.1c0-4.1-3.3-7.4-7.4-7.4s-7.4,3.3-7.4,7.4v11.1h-11.1
					c-4.1,0-7.4,3.3-7.4,7.4C980.2,218,983.5,221.3,987.6,221.3z"/>
			</g>
			<g>
				<path class="st5" d="M980.3,376.5c0-29.5-31.2-50.2-47.1-61.6c-2.3-1.6-4.6-2.9-6.8-4v92h53.9V376.5z"/>
				<path class="st5" d="M663.3,376.5v26.4h54v-92.2C703.3,317.6,663.3,334.6,663.3,376.5z"/>
				<path class="st5" d="M864.6,37.2C847.9,16.6,830.9,5.1,821.8,0c-9,5.1-26,16.5-42.8,37.2c-8.8,10.8-16.4,22.7-22.9,35.5h131.4
					C881,59.9,873.4,48,864.6,37.2z"/>
				<path class="st5" d="M914.3,288.5v-88.1c0-34.2-4.2-65-12.7-92.5H742c-8.4,27.4-12.7,58.3-12.7,92.5v88.1v124.8l33.7,33.7h117.5
					l33.7-33.7V288.5z M879.3,211.7c-3.2,3.8-8.1,6.3-13.5,6.3c-9.7,0-17.6-7.9-17.6-17.6c0-14.6-11.8-26.4-26.4-26.4
					c-5.5,0-10.5,1.7-14.8,4.5c-7,4.8-11.7,12.8-11.7,21.9c0,6.1-3.1,11.4-7.8,14.6c-2.8,1.9-6.2,3-9.8,3c-9.7,0-17.6-7.9-17.6-17.6
					c0-13.8,4.6-26.6,12.3-36.9c11.2-15,29.2-24.8,49.4-24.8c34,0,61.6,27.7,61.6,61.6C883.4,204.7,881.9,208.7,879.3,211.7z"/>
				<g>
					<path class="st5" d="M782.9,476.1c-5.7,0-10.4,3.2-10.4,7.2v54c0,4,4.6,7.2,10.4,7.2s10.4-3.2,10.4-7.2v-54
						C793.3,479.3,788.6,476.1,782.9,476.1z"/>
					<path class="st5" d="M860.7,476.1c-5.7,0-10.4,3.2-10.4,7.2v54c0,4,4.6,7.2,10.4,7.2c5.7,0,10.4-3.2,10.4-7.2v-54
						C871.1,479.3,866.4,476.1,860.7,476.1z"/>
					<path class="st5" d="M822.3,464.6c-5.7,0-10.4,3.2-10.4,7.2V520c0,4,4.6,7.2,10.4,7.2c5.7,0,10.4-3.2,10.4-7.2v-48.2
						C832.7,467.8,828.1,464.6,822.3,464.6z"/>
				</g>
			</g>
		</g>
	</g>
</g>
</svg>
