<?xml version="1.0" encoding="utf-8"?>
<!-- Generator: Adobe Illustrator 23.0.2, SVG Export Plug-In . SVG Version: 6.00 Build 0)  -->
<svg version="1.1" id="Laag_1" xmlns="http://www.w3.org/2000/svg" xmlns:xlink="http://www.w3.org/1999/xlink" x="0px" y="0px"
	 width="987.4px" height="761.3px" viewBox="0 0 987.4 761.3" style="enable-background:new 0 0 987.4 761.3;" xml:space="preserve"
	>
<style type="text/css">
	.st0{fill-rule:evenodd;clip-rule:evenodd;fill:url(#SVGID_1_);}
	.st1{opacity:0.8062;}
	.st2{fill-rule:evenodd;clip-rule:evenodd;fill:#E2EBFC;}
	.st3{fill:url(#Leaf_1_);}
	.st4{fill:#98BBE9;}
	.st5{fill:#8FAFDA;}
	.st6{fill:url(#SVGID_2_);}
	.st7{fill:#5ACE87;}
	.st8{fill:#42B16D;}
	.st9{fill:url(#SVGID_3_);}
	.st10{fill:#D2DEF8;}
	.st11{fill:url(#Vase-base_1_);}
	.st12{fill:url(#SVGID_4_);}
	.st13{fill-rule:evenodd;clip-rule:evenodd;fill:url(#Path_1_);}
	.st14{fill:url(#Rocket-base_1_);}
	.st15{fill:url(#SVGID_5_);}
	.st16{fill:url(#SVGID_6_);}
	.st17{fill:#9BBBE8;}
	.st18{fill:url(#SVGID_7_);}
	.st19{fill:url(#SVGID_8_);}
	.st20{fill:#FFFFFF;}
	.st21{fill:url(#SVGID_9_);}
	.st22{fill:url(#SVGID_10_);}
	.st23{fill:url(#Jacket_1_);}
	.st24{fill:url(#Leg_1_);}
	.st25{fill:url(#Shoes_1_);}
	.st26{fill:url(#Pants_1_);}
	.st27{fill:url(#SVGID_11_);}
	.st28{fill:url(#SVGID_12_);}
	.st29{fill:url(#SVGID_13_);}
	.st30{fill:none;stroke:#5F90CC;stroke-linecap:round;stroke-linejoin:round;stroke-dasharray:5,10;}
	.st31{fill:url(#SVGID_14_);}
	.st32{fill:url(#hairbands_1_);}
	.st33{fill:#F2A384;}
	.st34{fill:url(#SVGID_15_);}
	.st35{fill:url(#Body_1_);}
	.st36{fill:url(#SVGID_16_);}
	.st37{filter:url(#Adobe_OpacityMaskFilter);}
	.st38{fill-rule:evenodd;clip-rule:evenodd;fill:#FFFFFF;}
	.st39{opacity:0.5;mask:url(#mask-17_1_);fill:#A83C5F;enable-background:new    ;}
	.st40{fill:url(#Jacket-sleeve_1_);}
	.st41{fill:url(#SVGID_17_);}
	.st42{filter:url(#Adobe_OpacityMaskFilter_1_);}
	.st43{opacity:0.5;mask:url(#mask-19_1_);fill:#A83C5F;enable-background:new    ;}
	.st44{fill:url(#SVGID_18_);}
	.st45{fill:url(#Table-base_1_);}
	.st46{fill:url(#SVGID_19_);}
	.st47{fill:url(#Imac-base_1_);}
	.st48{fill:url(#SVGID_20_);}
	.st49{fill:url(#Display-base_1_);}
	.st50{fill:url(#SVGID_21_);}
	.st51{fill:url(#SVGID_22_);}
	.st52{fill:url(#SVGID_23_);}
	.st53{fill:url(#SVGID_24_);}
	.st54{fill:url(#SVGID_25_);}
	.st55{fill:none;stroke:#FFFFFF;stroke-width:1.2;stroke-linecap:round;stroke-linejoin:round;}
	.st56{fill:url(#SVGID_26_);}
	.st57{fill:url(#SVGID_27_);}
	.st58{fill:url(#SVGID_28_);}
	.st59{fill:url(#SVGID_29_);}
	.st60{fill:url(#SVGID_30_);}
	.st61{fill:url(#SVGID_31_);}
	.st62{fill:url(#SVGID_32_);}
	.st63{fill:url(#SVGID_33_);}
	.st64{fill:#B06C57;}
	.st65{fill:url(#SVGID_34_);}
	.st66{fill:url(#SVGID_35_);}
	.st67{fill:#111AA7;}
	.st68{fill:url(#SVGID_36_);}
	.st69{fill:url(#SVGID_37_);}
	.st70{filter:url(#Adobe_OpacityMaskFilter_2_);}
	.st71{opacity:0.5;mask:url(#mask-26_1_);fill:#EFAB45;enable-background:new    ;}
	.st72{fill:url(#SVGID_38_);}
	.st73{fill:#D2D9FF;}
	.st74{fill:url(#Wheel_1_);}
	.st75{fill:url(#SVGID_39_);}
	.st76{fill:url(#SVGID_40_);}
	.st77{fill:url(#SVGID_41_);}
	.st78{fill:url(#SVGID_42_);}
	.st79{fill:url(#SVGID_43_);}
</style>
<title>START UP@2x</title>
<desc>Created with Sketch.</desc>
<g id="START-UP">
	<g id="Background" transform="translate(271.000000, 214.000000)">
		
			<linearGradient id="SVGID_1_" gradientUnits="userSpaceOnUse" x1="-403.3871" y1="481.3943" x2="-403.4171" y2="482.7041" gradientTransform="matrix(929.1906 0 0 -637.7153 375084.1563 307446.7813)">
			<stop  offset="0" style="stop-color:#FFFFFF;stop-opacity:0"/>
			<stop  offset="1" style="stop-color:#E2EBFC"/>
		</linearGradient>
		<ellipse class="st0" cx="251.8" cy="188.9" rx="464.6" ry="318.9"/>
	</g>
	<g id="Shadow" transform="translate(219.000000, 797.000000)" class="st1">
		<ellipse class="st2" cx="152.2" cy="-119" rx="219" ry="11"/>
		<ellipse class="st2" cx="571.2" cy="-56.5" rx="154" ry="20.8"/>
		<ellipse class="st2" cx="-148.8" cy="-113.8" rx="64" ry="13.2"/>
		<ellipse class="st2" cx="99.2" cy="-55.8" rx="94" ry="18.2"/>
	</g>
	<g id="leaves" transform="translate(181.000000, 510.000000)">
		
			<g id="Leaves" transform="translate(136.982509, 133.079657) scale(-1, 1) rotate(-16.000000) translate(-136.982509, -133.079657) translate(82.482509, 11.079657)">
			
				<linearGradient id="Leaf_1_" gradientUnits="userSpaceOnUse" x1="471.0829" y1="298.4319" x2="471.0829" y2="296.3889" gradientTransform="matrix(-103.8843 57.3788 -29.7884 -200.1039 58122.8359 32404.0859)">
				<stop  offset="0" style="stop-color:#FFFFFF"/>
				<stop  offset="1" style="stop-color:#B3CDEF"/>
			</linearGradient>
			<path id="Leaf" class="st3" d="M315-65.9c14.3,1.4,9.3,33.7,13.3,39.6c3.9,5.9,14.9,7.7,13.4,20.6c-1.5,12.9-12.1,12.5-13.4,23.2
				c-1.3,10.7,22.6,9.3,20.6,26.2c-2,16.9-20.4,22-21.6,32.2s7.9,14.2,5.2,36.7c-2.7,22.6-21.3,27.2-49,29.1
				c-27.7,2-44.9-5.6-42.2-30c2.7-24.3,32.1-23.6,35.8-37c3.6-13.3-15-20.5-13.3-36.1s29.8-14.9,31.2-27.4s-20.5-19.3-19.1-32.2
				c1.5-12.9,7-14.9,17.5-19.3C303.9-44.5,300.8-67.4,315-65.9z"/>
			<path id="leaves-base" class="st4" d="M286,130.2c-0.6,0.2-1.1-0.2-1.1-0.9c0-0.7,0.4-1.3,1-1.5c14-4.2,21.7-12.8,23.2-25.9
				c0.1-0.7,0.6-1.2,1.2-1.2c0.6,0,1,0.5,0.9,1.2C309.5,116.2,301,125.7,286,130.2z"/>
			<path class="st4" d="M294.1,76.3c-0.6,0-0.9-0.6-0.7-1.3c0.2-0.7,0.8-1.2,1.4-1.1c9.4,0.8,17.5-4.8,24.3-16.8
				c0.3-0.6,1-0.9,1.5-0.6c0.5,0.3,0.6,0.9,0.3,1.5C313.5,70.9,304.5,77.1,294.1,76.3z"/>
			<path class="st4" d="M313.2,4.2c-0.4-0.1-0.6-0.5-0.5-0.9c0.1-0.4,0.5-0.7,0.9-0.7c4.8,0.7,8.8-1.9,12.3-7.8
				c0.2-0.4,0.7-0.6,1-0.4c0.3,0.2,0.4,0.7,0.2,1.1C323.4,2.1,318.7,5,313.2,4.2z"/>
			<path class="st4" d="M312.7-4.4c0.4,0,0.7-0.4,0.7-0.8c0-0.4-0.3-0.8-0.8-0.8c-4.9,0.2-8.3-2.7-10.4-9c-0.1-0.4-0.6-0.6-0.9-0.5
				c-0.4,0.2-0.6,0.6-0.4,1C303.2-7.5,307.1-4.1,312.7-4.4z"/>
			<path class="st4" d="M298,60.1c0.6-0.1,1.1-0.6,1-1.3c0-0.7-0.5-1.1-1.1-1.1c-8.8,0.8-14.9-4.2-18.6-15.6
				c-0.2-0.6-0.8-0.9-1.4-0.7c-0.6,0.3-0.8,1-0.6,1.6C281.3,55.4,288.3,61.1,298,60.1z"/>
			<path class="st4" d="M281.4,117.2c0.6-0.1,1.1-0.7,1-1.3c0-0.7-0.5-1.1-1.1-1c-8.8,1.3-14.9-3.6-18.6-14.8
				c-0.2-0.6-0.8-0.9-1.4-0.6c-0.6,0.3-0.8,1-0.6,1.6C264.7,113.2,271.7,118.6,281.4,117.2z"/>
			<path class="st5" d="M281.7,175.3c-0.1,0.9-0.8,1.7-1.6,1.8c-0.8,0.1-2.4-0.5-2.3-1.4c1.8-5.5,3.2-13.1,4.3-22.8
				c1.7-14.4-3.1-38.1,0.2-54.2c3.3-16.1,21.5-46.5,28-70.3c5.3-19.3,1.7-37,1.1-48.7c-0.6-11.7,2-25.6,2.2-25.5
				c0.3,0-2.3,14.2-1.5,25.6c0.8,11.3,3.9,26.3,1.2,42.9c-4.9,30.8-25.4,58-27.7,78.4c-2.3,20.4,2.2,32.8,1.1,50.8
				C286,163.7,284.3,171.5,281.7,175.3z"/>
		</g>
		
			<g transform="translate(84.361701, 144.156680) rotate(-17.000000) translate(-84.361701, -144.156680) translate(34.361701, 19.156680)">
			
				<linearGradient id="SVGID_2_" gradientUnits="userSpaceOnUse" x1="-342.9702" y1="49.3022" x2="-342.7973" y2="48.4636" gradientTransform="matrix(95.6305 62.4382 29.2372 -204.226 31234.1465 31368.4883)">
				<stop  offset="0" style="stop-color:#84F0A8"/>
				<stop  offset="1" style="stop-color:#48B676"/>
			</linearGradient>
			<path class="st6" d="M-111.9-186.5c14.3,0,13.1,33.7,17.7,39.6c4.6,5.9,15.7,7,15.7,20.7c0,13.7-10.6,13.7-10.6,24.9
				c0,11.3,23.6,9.2,23.6,27.3c0,18.1-17.8,23.5-17.8,34.2c0,10.8,9.6,15.3,9.6,39.3S-91.9,27-119.6,27s-45.9-8.8-45.9-32.8
				c0-24,29.6-22.5,31.7-36c2.1-13.4-17.3-20.8-17.3-36.3s28-15.6,28-28.3c0-12.7-22.6-18.5-22.6-31.5c0-13,5.3-15.3,15.2-20.6
				S-126.2-186.5-111.9-186.5z"/>
			<path id="Leaves-base" class="st7" d="M-118.3,15.2c-0.6,0.1-1.1-0.3-1.3-1c-0.1-0.7,0.2-1.3,0.8-1.5c13.7-3.5,20.3-12,20.3-25.7
				c0-0.7,0.5-1.2,1.1-1.2c0.6,0,1.1,0.6,1.1,1.2C-96.3,2-103.7,11.4-118.3,15.2z"/>
			<path class="st7" d="M-116.8-39.9c-0.6,0-1-0.6-0.9-1.3c0.1-0.7,0.7-1.2,1.3-1.1c9.6,0.7,17.3-5.1,23.1-17.7
				c0.3-0.6,1-0.9,1.5-0.7c0.5,0.2,0.7,1,0.4,1.6C-97.7-45.6-106.2-39.1-116.8-39.9z"/>
			<path class="st7" d="M-105.8-114.4c-0.4,0-0.7-0.4-0.6-0.9c0.1-0.5,0.5-0.8,0.9-0.8c4.9,0.4,8.8-2.5,11.7-8.9
				c0.2-0.4,0.7-0.6,1-0.5c0.4,0.2,0.5,0.6,0.3,1.1C-95.8-117.3-100.3-114-105.8-114.4z"/>
			<path class="st7" d="M-106.9-123.2c-5.6,0.4-10-2.9-13.3-9.9c-0.2-0.4-0.1-0.9,0.3-1.1c0.4-0.2,0.8,0,1,0.5
				c2.9,6.3,6.8,9.2,11.7,8.9c0.4,0,0.8,0.3,0.9,0.8C-106.2-123.6-106.5-123.3-106.9-123.2z"/>
			<path class="st7" d="M-113.9-56.5c-9.8,0.7-17.6-5.3-23.4-17.7c-0.3-0.6-0.1-1.3,0.4-1.6s1.2,0.1,1.5,0.7
				c5.3,11.5,12.3,16.8,21.1,16.2c0.6,0,1.2,0.5,1.3,1.1C-113-57.1-113.3-56.5-113.9-56.5z"/>
			<path class="st7" d="M-124,1.7c-9.8,0.7-17.6-5.3-23.4-17.7c-0.3-0.6-0.1-1.3,0.4-1.6c0.5-0.2,1.2,0.1,1.5,0.7
				c5.3,11.5,12.3,16.8,21.1,16.2c0.6,0,1.2,0.5,1.3,1.1C-123,1.1-123.4,1.7-124,1.7z"/>
			<path class="st8" d="M-117.4,61.4c0,0.9-0.6,1.7-1.4,1.7c-0.8,0-2.5-0.7-2.5-1.7c1.1-5.6,1.7-13.3,1.7-23.1
				c0-14.8-7.6-39.4-6.1-55.7s16.2-47.4,19.9-72.1c3-20.1-2.6-38.2-4.5-50.1c-1.9-12-1-26.3-0.7-26.3c0.3,0-0.6,14.7,1.5,26.3
				c2.1,11.6,6.9,26.9,6.2,44.1c-1.3,32-18.7,59.7-18.7,80.6s6,34,7,52.4C-114.4,49.8-115.2,57.8-117.4,61.4z"/>
		</g>
		
			<g transform="translate(164.000000, 165.500000) scale(-1, 1) rotate(-28.000000) translate(-164.000000, -165.500000) translate(114.000000, 59.000000)">
			
				<linearGradient id="SVGID_3_" gradientUnits="userSpaceOnUse" x1="459.9505" y1="348.5496" x2="459.8432" y2="347.5496" gradientTransform="matrix(-88.2948 85.5435 -46.9471 -160.884 57280.9688 16714.7109)">
				<stop  offset="0" style="stop-color:#FFFFFF"/>
				<stop  offset="1" style="stop-color:#E5EEFF"/>
			</linearGradient>
			<path class="st9" d="M302.5-14.9c14.3,0,13.1,28.8,17.7,33.8c4.6,5,15.7,6,15.7,17.7s-10.6,11.7-10.6,21.3s23.6,7.8,23.6,23.3
				s-17.8,20-17.8,29.2s9.6,13,9.6,33.5s-18.2,23.5-45.9,23.5c-27.7,0-45.9-7.5-45.9-28s29.6-19.2,31.7-30.7
				c2.1-11.5-17.3-17.7-17.3-31c0-13.3,28-13.3,28-24.1c0-10.9-22.6-15.8-22.6-26.9s5.3-13.1,15.2-17.5S288.2-14.9,302.5-14.9z"/>
			<path class="st10" d="M296.1,157.3c-0.6,0.1-1.1-0.2-1.3-0.8c-0.1-0.6,0.2-1.1,0.8-1.3c13.7-3,20.3-10.3,20.3-22
				c0-0.6,0.5-1.1,1.1-1.1s1.1,0.5,1.1,1.1C318.1,146,310.7,154,296.1,157.3z"/>
			<path class="st10" d="M298.5,109.8c-0.6-0.1-1-0.6-0.9-1.2c0.1-0.6,0.6-1,1.2-0.9c9.4,1.1,16.5-3.5,21.5-14.2
				c0.2-0.5,0.9-0.8,1.4-0.5c0.5,0.2,0.8,0.9,0.5,1.4C316.9,105.9,308.9,111.1,298.5,109.8z"/>
			<path class="st10" d="M309.1,46.5c-0.4,0-0.7-0.4-0.6-0.8c0-0.4,0.4-0.7,0.8-0.6c4.8,0.6,8.4-1.7,10.9-7.1c0.2-0.4,0.6-0.5,1-0.3
				c0.4,0.2,0.5,0.6,0.4,1C318.7,44.4,314.5,47.1,309.1,46.5z"/>
			<path class="st10" d="M307,38.9c-5.5,0.7-9.6-2-12.4-8c-0.2-0.4,0-0.8,0.4-1c0.4-0.2,0.8,0,1,0.3c2.5,5.4,6.1,7.7,10.9,7.1
				c0.4,0,0.8,0.2,0.8,0.6C307.7,38.5,307.4,38.9,307,38.9z"/>
			<path class="st10" d="M299.7,95.7c-9.5,1.1-16.9-3.7-21.8-14.3c-0.2-0.5,0-1.2,0.5-1.4s1.2,0,1.4,0.5c4.6,9.8,11,14.1,19.6,13
				c0.6-0.1,1.1,0.3,1.2,0.9C300.7,95.1,300.2,95.7,299.7,95.7z"/>
			<path class="st10" d="M289.6,145.4c-9.5,1.1-16.9-3.7-21.8-14.3c-0.2-0.5,0-1.2,0.5-1.4s1.2,0,1.4,0.5c4.6,9.8,11,14.1,19.6,13
				c0.6-0.1,1.1,0.3,1.2,0.9C290.6,144.8,290.2,145.3,289.6,145.4z"/>
			<path class="st10" d="M297,196.7c0,0.8-0.6,1.4-1.4,1.4c-0.8,0-2.5-0.6-2.5-1.4c1.1-4.7,1.7-11.3,1.7-19.7
				c0-12.6-7.6-33.6-6.1-47.6s16.2-40.4,19.9-61.5c3-17.2-2.6-32.6-4.5-42.8s-1-22.4-0.7-22.4c0.3,0-0.6,12.5,1.5,22.4
				s6.9,22.9,6.2,37.6c-1.3,27.3-18.7,51-18.7,68.8c0,17.8,6,29,7,44.7C300,186.8,299.2,193.6,297,196.7z"/>
		</g>
		<g id="vase" transform="translate(73.000000, 244.000000)">
			
				<linearGradient id="Vase-base_1_" gradientUnits="userSpaceOnUse" x1="-387.0842" y1="-53.6926" x2="-387.4701" y2="-55.2489" gradientTransform="matrix(85.043 0 0 -53.7224 32764.4297 -3046.2222)">
				<stop  offset="0" style="stop-color:#E5EDFF"/>
				<stop  offset="1" style="stop-color:#6B9AD9"/>
			</linearGradient>
			<polygon id="Vase-base" class="st11" points="-211.1,-128.3 -126.1,-128.3 -145,-74.6 -192.2,-74.6 			"/>
			
				<linearGradient id="SVGID_4_" gradientUnits="userSpaceOnUse" x1="-387.2679" y1="-45.3674" x2="-387.1875" y2="-48.4296" gradientTransform="matrix(86.7439 0 0 -16.7883 33420.6406 -905.7191)">
				<stop  offset="0" style="stop-color:#E5EDFF"/>
				<stop  offset="1" style="stop-color:#6B9AD9"/>
			</linearGradient>
			<path class="st12" d="M-207.4-130h75.9c3,0,5.4,2.4,5.4,5.4v6c0,3-2.4,5.4-5.4,5.4h-75.9c-3,0-5.4-2.4-5.4-5.4v-6
				C-212.8-127.6-210.4-130-207.4-130z"/>
		</g>
	</g>
	<g id="Rocket" transform="translate(509.000000, 130.000000)">
		
			<linearGradient id="Path_1_" gradientUnits="userSpaceOnUse" x1="-641.4818" y1="566.1118" x2="-641.4818" y2="567.0032" gradientTransform="matrix(467 0 0 -184.8976 299592.7188 105103.1719)">
			<stop  offset="0" style="stop-color:#FFFFFF"/>
			<stop  offset="1" style="stop-color:#D9E5FF"/>
		</linearGradient>
		<path id="Path" class="st13" d="M66.4,293.5c7.4,1.3,13.8,5.3,18.4,10.8c3.5-2.7,7.8-4.3,12.5-4.3c11.2,0,20.3,9.1,20.3,20.3
			c0,1.2-0.1,2.4-0.3,3.5c0.1,0,0.2,0,0.3,0c9.4,0,17.9,4.2,23.5,10.9c8.3-11.3,21.6-18.6,36.7-18.6c25.1,0,45.5,20.4,45.5,45.5
			c0,0.5,0,0.9,0,1.4h0c17,0,30.8,13.8,30.8,30.8c0,17-13.8,30.8-30.8,30.8c-6.4,0-12.3-1.9-17.2-5.3c-4.7,10.9-15.6,18.6-28.3,18.6
			c-14.6,0-26.8-10.2-30-23.8c-4.4,3.8-10,6.1-16.2,6.3c-7.8,7-18.1,11.2-29.4,11.2c-16,0-29.9-8.5-37.7-21.2
			c-9.3,14.4-25.5,24-43.9,24s-34.6-9.6-43.9-24c-7.7,12.7-21.7,21.2-37.7,21.2c-11.3,0-21.6-4.2-29.4-11.2
			c-6.2-0.2-11.9-2.5-16.2-6.3c-3.2,13.6-15.4,23.8-30,23.8c-12.7,0-23.5-7.6-28.3-18.6c-4.9,3.3-10.8,5.3-17.2,5.3
			c-17,0-30.8-13.8-30.8-30.8c0-17,13.8-30.8,30.8-30.8h0c0-0.5,0-0.9,0-1.4c0-25.1,20.4-45.5,45.5-45.5c15.1,0,28.4,7.3,36.7,18.6
			c5.7-6.7,14.1-10.9,23.5-10.9c0.1,0,0.2,0,0.3,0c-0.2-1.1-0.3-2.3-0.3-3.5c0-11.2,9.1-20.3,20.3-20.3c4.7,0,9.1,1.6,12.5,4.3
			c4.6-5.6,11-9.5,18.4-10.8c3.7-6.3,8.9-11.5,15.1-15.4c2.7-14.3,15.2-25,30.3-25c14.9,0,27.3,10.5,30.2,24.5
			C57,281.5,62.5,287,66.4,293.5z"/>
		<g transform="translate(71.415292, 0.000000)">
			
				<linearGradient id="Rocket-base_1_" gradientUnits="userSpaceOnUse" x1="-713.3069" y1="568.4435" x2="-713.6927" y2="566.8872" gradientTransform="matrix(84.018 0 0 -105.7559 59790.9883 60171.6445)">
				<stop  offset="0" style="stop-color:#E5EDFF"/>
				<stop  offset="1" style="stop-color:#6B9AD9"/>
			</linearGradient>
			<path id="Rocket-base" class="st14" d="M-191.8,150.8c14-17.6,35-29.3,63-35v105.8h-84C-212.8,192.1-205.8,168.5-191.8,150.8z"/>
			
				<linearGradient id="SVGID_5_" gradientUnits="userSpaceOnUse" x1="-713.4063" y1="568.4681" x2="-713.7922" y2="566.9118" gradientTransform="matrix(84.018 0 0 -105.7559 60029.0391 60171.6445)">
				<stop  offset="0" style="stop-color:#E5EDFF"/>
				<stop  offset="1" style="stop-color:#6B9AD9"/>
			</linearGradient>
			<path class="st15" d="M88.3,150.8c14,17.6,21,41.2,21,70.7h-84V115.8C53.2,121.5,74.3,133.2,88.3,150.8z"/>
			
				<linearGradient id="SVGID_6_" gradientUnits="userSpaceOnUse" x1="-713.2145" y1="567.5753" x2="-713.2145" y2="565.5324" gradientTransform="matrix(163.7076 0 0 -371.8964 116707.5469 210561.375)">
				<stop  offset="0" style="stop-color:#FFFFFF"/>
				<stop  offset="1" style="stop-color:#B3CDEF"/>
			</linearGradient>
			<path class="st16" d="M15.1-21.5C23.7,17.6,29,98.3,30.8,220.6c0.2,11.6-9.1,21.1-20.7,21.3c-0.1,0-0.2,0-0.3,0h-121.7
				c-11.6,0-21-9.4-21-21c0-0.1,0-0.2,0-0.3c1.8-122.3,7-203,15.7-242.1c13.7-62,35.7-98.1,66.2-108.5
				C-20.6-119.7,1.4-83.5,15.1-21.5z"/>
			<path id="Shape" class="st17" d="M-123,173.5h42v7h-42V173.5z M-123,184.9h25v7h-25V184.9z"/>
			
				<linearGradient id="SVGID_7_" gradientUnits="userSpaceOnUse" x1="-713.3098" y1="569.4029" x2="-713.6006" y2="566.4532" gradientTransform="matrix(109.4875 0 0 -67.9359 78063.5234 38519.7109)">
				<stop  offset="0" style="stop-color:#E5EDFF"/>
				<stop  offset="1" style="stop-color:#6B9AD9"/>
			</linearGradient>
			<path class="st18" d="M-105.8-62.1c13.4-37.5,31.7-60.1,54.7-67.9C-28-122.2-9.8-99.5,3.7-62.1H-105.8z"/>
			
				<linearGradient id="SVGID_8_" gradientUnits="userSpaceOnUse" x1="-713.5645" y1="568.8104" x2="-713.8553" y2="565.8607" gradientTransform="matrix(85.4183 0 0 -85.4451 60908.7383 48530.0938)">
				<stop  offset="0" style="stop-color:#E5EDFF"/>
				<stop  offset="1" style="stop-color:#6B9AD9"/>
			</linearGradient>
			<path class="st19" d="M-51.1,55.6c-23.6,0-42.7-19.1-42.7-42.7s19.1-42.7,42.7-42.7S-8.4-10.7-8.4,12.9S-27.5,55.6-51.1,55.6z"/>
			<path class="st20" d="M-51.1,47.9c19.3,0,35-15.7,35-35s-15.7-35-35-35s-35,15.7-35,35S-70.4,47.9-51.1,47.9z"/>
			
				<linearGradient id="SVGID_9_" gradientUnits="userSpaceOnUse" x1="-713.1465" y1="574.6866" x2="-713.5323" y2="573.1303" gradientTransform="matrix(125.3268 0 0 -24.5129 89354.3438 14314.2197)">
				<stop  offset="0" style="stop-color:#E5EDFF"/>
				<stop  offset="1" style="stop-color:#6B9AD9"/>
			</linearGradient>
			<path class="st21" d="M-112,241.9H13.3l-6.2,15.7c-2.1,5.3-7.3,8.8-13,8.8h-86.9c-5.7,0-10.9-3.5-13-8.8L-112,241.9z"/>
			
				<linearGradient id="SVGID_10_" gradientUnits="userSpaceOnUse" x1="-714.8345" y1="568.3153" x2="-715.2203" y2="566.759" gradientTransform="matrix(32.2069 0 0 -113.4599 22982.9082 64531.4414)">
				<stop  offset="0" style="stop-color:#E5EDFF"/>
				<stop  offset="1" style="stop-color:#6B9AD9"/>
			</linearGradient>
			<path class="st22" d="M-51.8,115.1c5.1,0,9.3,4,9.7,9.1l6.4,104.4h-32.2l6.4-104.4C-61.1,119.1-56.9,115.1-51.8,115.1z"/>
		</g>
	</g>
	<g id="Girl" transform="translate(841.000000, 312.000000)">
		
			<linearGradient id="Jacket_1_" gradientUnits="userSpaceOnUse" x1="-973.7625" y1="386.664" x2="-973.7625" y2="385.2348" gradientTransform="matrix(177 0 0 -96 172311.6563 37261)">
			<stop  offset="0" style="stop-color:#F59BA9"/>
			<stop  offset="1" style="stop-color:#DD4156"/>
		</linearGradient>
		<path id="Jacket" class="st23" d="M-130.9,267.8c9.6,15.4,56.5,24.2,140.5,26.4l31.7,0.7c1.8-3.3,2.8-8.1,2.9-14.2
			c0.1-6.2-0.6-19-2-38.7L-50,199C-113.6,229.5-140.5,252.4-130.9,267.8z"/>
		<g id="Foots" transform="translate(98.000000, 267.000000)">
			<g id="Foot">
				
					<linearGradient id="Leg_1_" gradientUnits="userSpaceOnUse" x1="-1074.4318" y1="125.6865" x2="-1074.171" y2="126.6289" gradientTransform="matrix(27.5956 0 0 -20.0316 29472.5293 2668.9792)">
					<stop  offset="0" style="stop-color:#FAD0BA"/>
					<stop  offset="1" style="stop-color:#F2A384"/>
				</linearGradient>
				<path id="Leg" class="st24" d="M-159.8,127.3l2.7,14.3c-3.3,3.8-7.3,5.7-12.1,5.7s-9.1-1-12.8-2.9l-2.7-15.6L-159.8,127.3z"/>
				
					<linearGradient id="Shoes_1_" gradientUnits="userSpaceOnUse" x1="-1072.1979" y1="125.9041" x2="-1073.1979" y2="125.9041" gradientTransform="matrix(57.6666 0 0 -21.0547 61675.1016 2801.304)">
					<stop  offset="0" style="stop-color:#2865C6"/>
					<stop  offset="1" style="stop-color:#10378A"/>
				</linearGradient>
				<path id="Shoes" class="st25" d="M-157,139.9c2,0,2,5.9,2.1,10.4c0,1.6-0.3,4.1-1,7.5c-0.3,1.4-1.6,2.4-3.1,2.4
					c-32.7,1-52.4,1-52.4-0.1c-2.6-7.3-1.2-8.1,13.6-13.8c6-2.3,11.6-3.4,15.3-5.4c1.3-0.7,4,4.6,12.8,4.6
					C-160.9,145.6-159,139.9-157,139.9z"/>
				
					<linearGradient id="Pants_1_" gradientUnits="userSpaceOnUse" x1="-1072.1447" y1="117.4633" x2="-1072.0923" y2="116.7048" gradientTransform="matrix(96.9491 0 0 -266.9665 103784.4141 31303.5645)">
					<stop  offset="0" style="stop-color:#1542AB"/>
					<stop  offset="1" style="stop-color:#2B68EE"/>
				</linearGradient>
				<path id="Pants" class="st26" d="M-171.6-129.5l55.7,11.8c4.1,24.8,6.1,38.5,6.1,41.2s-53.6,95.9-55.6,112
					c-2,16,10.2,94.3,6.7,97.9c-3.2,3.2-19.2,5.8-25.8,2.6c-12.8-42-22.2-79.2-22.2-102.1S-197.8-75.3-171.6-129.5z"/>
			</g>
			
				<g transform="translate(94.395244, 150.237185) scale(-1, 1) rotate(-360.000000) translate(-94.395244, -150.237185) translate(40.895244, 0.237185)">
				
					<linearGradient id="SVGID_11_" gradientUnits="userSpaceOnUse" x1="1216.5205" y1="125.447" x2="1216.7814" y2="126.3894" gradientTransform="matrix(-27.5956 0 0 -20.0316 33807.3984 2673.0039)">
					<stop  offset="0" style="stop-color:#FAD0BA"/>
					<stop  offset="1" style="stop-color:#F2A384"/>
				</linearGradient>
				<path class="st27" d="M231.6,136.1l24.9,1.5l-2.7,15.6c-3.7,1.9-8,2.9-12.8,2.9s-8.8-1.9-12.1-5.7L231.6,136.1z"/>
				
					<linearGradient id="SVGID_12_" gradientUnits="userSpaceOnUse" x1="1217.3185" y1="125.6669" x2="1216.3185" y2="125.6669" gradientTransform="matrix(-57.6666 0 0 -21.0547 70482.9453 2805.0825)">
					<stop  offset="0" style="stop-color:#2865C6"/>
					<stop  offset="1" style="stop-color:#10378A"/>
				</linearGradient>
				<path class="st28" d="M228.8,148.7c2,0,3.9,5.7,12.7,5.7s11.5-5.3,12.8-4.6c3.7,1.9,9.3,3,15.3,5.4c14.8,5.7,16.2,6.5,13.6,13.8
					c-0.1,1.1-19.8,1.1-52.4,0.1c-1.5,0-2.8-1.1-3.1-2.4c-0.7-3.4-1.1-5.8-1-7.5C226.8,154.6,226.8,148.7,228.8,148.7z"/>
				
					<linearGradient id="SVGID_13_" gradientUnits="userSpaceOnUse" x1="1218.4407" y1="117.4954" x2="1218.3542" y2="116.9954" gradientTransform="matrix(-106.6814 0 0 -276.3034 130252.9453 32330.4531)">
					<stop  offset="0" style="stop-color:#3485F7"/>
					<stop  offset="1" style="stop-color:#1A57CF"/>
				</linearGradient>
				<path class="st29" d="M319.7-129.5c-8,20.2-18.1,34.6-30.4,43.4c-10.5,7.5,2.1,62.9-11.1,125.4s-19.7,96.7-22.4,102.9
					c-2.7,6.1-25.3,6.7-27.2-1.8c-1.9-8.5,7.2-47.3,8.5-104.8c-15-58.9-25.2-123.7-24-126.2s-2-17.3,12.8-39H319.7z"/>
				<path id="Texture" class="st30" d="M237.8,129.1c14.5-53.1,19.3-87.6,14.5-103.5C245,1.9,227.4-71.7,227.4-83.5"/>
			</g>
		</g>
		<g id="Hair" transform="translate(178.000000, 26.000000)">
			
				<linearGradient id="SVGID_14_" gradientUnits="userSpaceOnUse" x1="-1151.5552" y1="358.1386" x2="-1152.3577" y2="359.7034" gradientTransform="matrix(142.5669 0 0 -158.4781 164081.0469 56808.5313)">
				<stop  offset="0" style="stop-color:#032258"/>
				<stop  offset="1" style="stop-color:#133E94"/>
			</linearGradient>
			<path class="st31" d="M-202.9-111.1c5.8-18.1,16.1-18,31,0.2c22.3,27.4,51.3-4.1,50.9,43.7s71.2-9.2,51,71
				c-11.6,45.9-74,35.8-107.9-6.5c-25.4-31.7-25.2-93.9-28.2-96.3C-210.8-102.9-209.8-106.9-202.9-111.1z"/>
			
				<linearGradient id="hairbands_1_" gradientUnits="userSpaceOnUse" x1="-1147.8677" y1="365.1086" x2="-1147.6948" y2="364.27" gradientTransform="matrix(-23 0 0 -26.6234 -26600.7012 9600.1445)">
				<stop  offset="0" style="stop-color:#84F0A8"/>
				<stop  offset="1" style="stop-color:#48B676"/>
			</linearGradient>
			<ellipse id="hairbands" class="st32" cx="-200.6" cy="-115.7" rx="11.5" ry="13.3"/>
		</g>
		<g id="Head" transform="translate(96.000000, 0.000000)">
			<path id="Face" class="st33" d="M-192-86.9l6.4-0.9L-146-80l11.9,13.9l7,19.8c-0.8,7.2,0.4,13,3.4,17.3s8.5,7.7,16.3,10.3
				c-18.3,21.4-32,33.3-41.2,35.7c-13.8,3.5-7.8-9.8,1.3-28.6c6-12.5-0.8-19-8.6-22c-6.6,4.3-10.8,6.7-12.6,7.2
				c-2.5,0.7-11.4-9.4-18.3-22.1c-0.7-1.3-5.6-5.3-6.3-6.6c-1.5-3,1-3.5,0.3-6.9c-0.6-2.5-3.3-5.7-3.2-10
				C-195.9-74.8-194.6-79.8-192-86.9z"/>
			
				<linearGradient id="SVGID_15_" gradientUnits="userSpaceOnUse" x1="-1069.8217" y1="385.1343" x2="-1070.6241" y2="386.6991" gradientTransform="matrix(96.2501 0 0 -88.2677 102836.9375 33963.2305)">
				<stop  offset="0" style="stop-color:#032258"/>
				<stop  offset="1" style="stop-color:#133E94"/>
			</linearGradient>
			<path class="st34" d="M-193-58.3c-1.5,2.9,5,6.2,6.8,9.7c2.5,3-27.9-2.2-26.2-35.6s21-31.5,26.4-32.5
				c5.3-0.9,20.1-17.8,42.4-11.4c22.2,6.4,27.7,21.7,27.4,43.8c-0.3,26.7-9.3,42.2-14.6,42.9c-6,0.8-15.7-2.8-29.2-10.6
				c5.5-1.7,7.1-5.9,4.6-12.7c-3.7-10.2-12.8-6.7-13.9,1.6l-3.7-6l-21.7,0.4C-192.4-64.2-191.8-60.7-193-58.3z"/>
		</g>
		
			<linearGradient id="Body_1_" gradientUnits="userSpaceOnUse" x1="-973.9024" y1="385.1844" x2="-974.0097" y2="384.1844" gradientTransform="matrix(124 0 0 -168 120746.6953 64691)">
			<stop  offset="0" style="stop-color:#FFFFFF"/>
			<stop  offset="1" style="stop-color:#E5EEFF"/>
		</linearGradient>
		<path id="Body" class="st35" d="M-49.9-14.9c-6.8,10.1-7.1,16.8-1,20.2c6.1,3.4,19.2-4.7,39.1-24.3C14.4-7.7,30.1,1.2,35.4,7.8
			c5.3,6.6,2.9,36-7.3,88.1c-10.8,25.4-20.1,32.2-28,40.4c-11.4,11.9-39.5,10.9-61.2,12.5c-12.1,0.9-20-0.5-24.7-17.8
			c11.6-19.4,16.9-30,16.9-38.3c0-8.2-3.9-28.4-11.6-60.4l17-40L-49.9-14.9z"/>
		<path id="Path-11" class="st33" d="M-185-22.3l-11.3-11.1c-6.3-3.4-10.5-6.9-12.6-10.4c-1.8-3.1,0.6-7.6,3.9-9.8
			c0.7-0.4-7.5-9.5-6.8-9.8c1.9-0.6,12.8,8.4,14.4,10.2c2.3,2.6,2.1-0.6,4.7,0.7c1.7,0.8,3.1,4.9,4.1,12.2l13.3,10.8L-185-22.3z"/>
		<g transform="translate(199.000000, 116.000000)">
			<g>
				
					<linearGradient id="SVGID_16_" gradientUnits="userSpaceOnUse" x1="-1173.7867" y1="268.3932" x2="-1173.4855" y2="267.8379" gradientTransform="matrix(63.6154 0 0 -309.0521 74476.5781 82894.2578)">
					<stop  offset="0" style="stop-color:#F59BA9"/>
					<stop  offset="1" style="stop-color:#F25267"/>
				</linearGradient>
				<path class="st36" d="M-200.8-101.6c-12.6,51.1-14.7,91.5-6.5,121.3c12.4,44.7-7.8,96.7-3.1,121.4c39,9.9,56.3,22.7,51.7,38.2
					c7.4-10.2,10.8-32.5,10-67.1c-1.2-51.8-2.8-54.7-4.5-78.2c-1.2-15.7-1.2-35.3,0-58.7l-16.7-89.6c-6.5-4-11.3-6.8-14.7-8.6
					s-8.3-4-14.9-6.9L-200.8-101.6z"/>
			</g>
			<defs>
				<filter id="Adobe_OpacityMaskFilter" filterUnits="userSpaceOnUse" x="-209.3" y="-98.8" width="78.6" height="175.6">
					<feColorMatrix  type="matrix" values="1 0 0 0 0  0 1 0 0 0  0 0 1 0 0  0 0 0 1 0"/>
				</filter>
			</defs>
			<mask maskUnits="userSpaceOnUse" x="-209.3" y="-98.8" width="78.6" height="175.6" id="mask-17_1_">
				<g class="st37">
					<path id="path-16_1_" class="st38" d="M-200.8-101.6c-12.6,51.1-14.7,91.5-6.5,121.3c12.4,44.7-7.8,96.7-3.1,121.4
						c39,9.9,56.3,22.7,51.7,38.2c7.4-10.2,10.8-32.5,10-67.1c-1.2-51.8-2.8-54.7-4.5-78.2c-1.2-15.7-1.2-35.3,0-58.7l-16.7-89.6
						c-6.5-4-11.3-6.8-14.7-8.6s-8.3-4-14.9-6.9L-200.8-101.6z"/>
				</g>
			</mask>
			<path class="st39" d="M-186.3-49.4c-6.1-8.8-6.1-23.2,0-43.3c2.2-7.1,11.3-9.1,24.4,0c15.6,10.9,39.5,57.1,28.4,91
				c-17.2,52.2-45.5,66.5-61.1,69.9c-3,0.7-3.6-0.9-9.9,6c-7.1,7.9-6.2-1.8,2.5-29.1c20.1-30.5,29.3-50.9,27.6-61.2
				S-180-37.5-186.3-49.4z"/>
		</g>
		<g id="Hand" transform="translate(178.000000, 130.000000)">
			<path class="st33" d="M-165.7,38.7c-4.5,6.8-10,12.9-16.3,18.2c-9.5,8-14.5,14.4-15.8,13.7c-1.2-0.7,3.9-7,2.9-6.6
				c-2.3,0.8-8.1,8.4-9.5,7.6c-0.5-0.2,1.6-3.8,6-10.6c-6.8,5.9-10.5,8.3-11.3,7.4c-1.2-1.4,9.2-9.5,8.9-10
				c-0.5-0.9-10.9,3.7-11.2,2.8c-0.6-2.5,11.9-7.8,14.1-9.7c5.7-4.8-5.2-4.5-5-7.1c0.1-1.7,5.7-1.6,16.7,0.4l14.3-15.9L-165.7,38.7z
				"/>
			
				<linearGradient id="Jacket-sleeve_1_" gradientUnits="userSpaceOnUse" x1="-1152.7303" y1="254.8737" x2="-1152.4291" y2="254.3185" gradientTransform="matrix(66.9017 0 0 -176.1364 76957.5078 44806.6797)">
				<stop  offset="0" style="stop-color:#F59BA9"/>
				<stop  offset="1" style="stop-color:#F25267"/>
			</linearGradient>
			<path id="Jacket-sleeve" class="st40" d="M-165.2-80.6c-6.1-8.8-6.1-23.2,0-43.3c2.2-7.1,11.3-9.1,24.4,0
				c15.6,10.9,35.1,62.7,23.9,96.6c-20.5,62-39,63.3-50.4,71.1c-7.6,5.2-12,1.8-13.2-10.2c21.5-33.4,31.4-55.2,29.8-65.5
				S-157.3-58.5-165.2-80.6z"/>
		</g>
		<g transform="translate(18.000000, 87.000000)">
			<g>
				
					<linearGradient id="SVGID_17_" gradientUnits="userSpaceOnUse" x1="-991.869" y1="297.508" x2="-991.5677" y2="296.9528" gradientTransform="matrix(145.168 0 0 -308.9207 143846.5938 91818.2266)">
					<stop  offset="0" style="stop-color:#F59BA9"/>
					<stop  offset="1" style="stop-color:#F25267"/>
				</linearGradient>
				<path class="st41" d="M-77.1-97.5c-4.7,17.4-8.1,29.6-10.2,36.7c-3.2,10.6-3.1,19.5-2.4,26.4c2.2,20.7,12.3,30.1,7.1,79.7
					c-2,19.4-16,44.5-18.2,66.1c-3.4,33.7,2.1,44.8,0,50.3c-2.9,7.6-33.7,0.6-49.1,17.9c-5-10.3,13.9-46.5,13.9-52.1
					c0-5.5,0.6-47.1,16.5-77.6C-109,29.6-105-0.1-107.5-39.3c-26.6-5.5-46-12.6-58.3-21.4c-12.3-8.8-27.9-27.8-46.8-57
					c2.8-7.7,6.1-11.5,9.7-11.5c5.5,0,42.6,36.1,71.2,40.5c12,1.8,21.7-5.8,30.8-8c14.5-3.5,31.7-5.4,33.5-6.1
					c-0.3,0.9-0.6,2.1-1,2.9C-70.4-100.4-73.3-99.6-77.1-97.5z"/>
			</g>
			<defs>
				<filter id="Adobe_OpacityMaskFilter_1_" filterUnits="userSpaceOnUse" x="-167.8" y="-61.1" width="65.2" height="34.4">
					<feColorMatrix  type="matrix" values="1 0 0 0 0  0 1 0 0 0  0 0 1 0 0  0 0 0 1 0"/>
				</filter>
			</defs>
			<mask maskUnits="userSpaceOnUse" x="-167.8" y="-61.1" width="65.2" height="34.4" id="mask-19_1_">
				<g class="st42">
					<path id="path-18_1_" class="st38" d="M-77.1-97.5c-4.7,17.4-8.1,29.6-10.2,36.7c-3.2,10.6-3.1,19.5-2.4,26.4
						c2.2,20.7,12.3,30.1,7.1,79.7c-2,19.4-16,44.5-18.2,66.1c-3.4,33.7,2.1,44.8,0,50.3c-2.9,7.6-33.7,0.6-49.1,17.9
						c-5-10.3,13.9-46.5,13.9-52.1c0-5.5,0.6-47.1,16.5-77.6C-109,29.6-105-0.1-107.5-39.3c-26.6-5.5-46-12.6-58.3-21.4
						c-12.3-8.8-27.9-27.8-46.8-57c2.8-7.7,6.1-11.5,9.7-11.5c5.5,0,42.6,36.1,71.2,40.5c12,1.8,21.7-5.8,30.8-8
						c14.5-3.5,31.7-5.4,33.5-6.1c-0.3,0.9-0.6,2.1-1,2.9C-70.4-100.4-73.3-99.6-77.1-97.5z"/>
				</g>
			</mask>
			<path id="Path-47" class="st43" d="M-108-35.5c0.1-7.2,1.2-13.1,3.2-17.6c2-4.5,2.6-7.2,1.7-8c-22.2,11.7-40.8,14.4-55.8,8
				s-11.2,2.4,11.3,26.4L-108-35.5z"/>
		</g>
	</g>
	<g id="Group-5" transform="translate(386.000000, 461.000000)">
		<g transform="translate(0.010183, 0.000000)">
			<g id="Table" transform="translate(0.000000, 136.112903)">
				
					<linearGradient id="SVGID_18_" gradientUnits="userSpaceOnUse" x1="-521.4442" y1="101.3212" x2="-521.4442" y2="98.1962" gradientTransform="matrix(25.613 0 0 -195.8871 13176.7617 19453.707)">
					<stop  offset="0" style="stop-color:#95B7E5"/>
					<stop  offset="1" style="stop-color:#476DB1"/>
				</linearGradient>
				<path class="st44" d="M-188.6,65.6l18.9-177.5h-18.9V65.6z M-166.2-115l-20.6,193.5c-0.1,1.4-1.3,2.4-2.7,2.4
					c-1.3,0-2.4-1.1-2.4-2.4V-115H-166.2z"/>
				
					<linearGradient id="Table-base_1_" gradientUnits="userSpaceOnUse" x1="-521.4441" y1="101.3212" x2="-521.4441" y2="98.1962" gradientTransform="matrix(25.613 0 0 -195.8871 13504.9307 19453.707)">
					<stop  offset="0" style="stop-color:#95B7E5"/>
					<stop  offset="1" style="stop-color:#476DB1"/>
				</linearGradient>
				<path id="Table-base" class="st45" d="M158.8,65.6v-177.5h-18.9L158.8,65.6z M136.4-115H162V78.5c0,1.3-1.1,2.4-2.4,2.4
					c-1.4,0-2.5-1-2.7-2.4L136.4-115z"/>
				
					<linearGradient id="SVGID_19_" gradientUnits="userSpaceOnUse" x1="-518.4033" y1="111.2143" x2="-518.6372" y2="110.3537" gradientTransform="matrix(393 0 0 -15.9908 203764.7188 1649.8906)">
					<stop  offset="0" style="stop-color:#476DB1"/>
					<stop  offset="1" style="stop-color:#283F6F"/>
				</linearGradient>
				<polygon class="st46" points="-211.8,-129.4 181.2,-129.4 181.2,-113.4 -211.8,-113.4 				"/>
			</g>
			<g id="Imac" transform="translate(101.841141, 0.000000)">
				
					<linearGradient id="Imac-base_1_" gradientUnits="userSpaceOnUse" x1="-621.8791" y1="242.4447" x2="-622.8731" y2="238.0695" gradientTransform="matrix(44.0224 0 0 -26.3848 27268.6543 6383.5591)">
					<stop  offset="0" style="stop-color:#476DB1"/>
					<stop  offset="1" style="stop-color:#283F6F"/>
				</linearGradient>
				<polygon id="Imac-base" class="st47" points="-134.4,-14.9 -90.3,-14.9 -90.3,11.5 -134.4,11.5 				"/>
				
					<linearGradient id="SVGID_20_" gradientUnits="userSpaceOnUse" x1="-620.4423" y1="236.6529" x2="-620.6762" y2="235.7924" gradientTransform="matrix(199.3014 0 0 -115.9332 123565.9766 27312.2969)">
					<stop  offset="0" style="stop-color:#476DB1"/>
					<stop  offset="1" style="stop-color:#283F6F"/>
				</linearGradient>
				<path class="st48" d="M-209.6-130h192.9c1.8,0,3.2,1.4,3.2,3.2v109.5c0,1.8-1.4,3.2-3.2,3.2h-192.9c-1.8,0-3.2-1.4-3.2-3.2
					v-109.5C-212.8-128.6-211.4-130-209.6-130z"/>
				<g id="Display" transform="translate(8.000000, 7.000000)">
					
						<linearGradient id="Display-base_1_" gradientUnits="userSpaceOnUse" x1="-628.5137" y1="229.7585" x2="-629.3519" y2="227.0106" gradientTransform="matrix(183.2933 0 0 -99.9424 115096.6797 22855.8613)">
						<stop  offset="0" style="stop-color:#F7FAFF"/>
						<stop  offset="1" style="stop-color:#6B9AD9"/>
					</linearGradient>
					<polygon id="Display-base" class="st49" points="-212.8,-129 -29.5,-129 -29.5,-29.1 -212.8,-29.1 					"/>
					
						<linearGradient id="SVGID_21_" gradientUnits="userSpaceOnUse" x1="-633.6288" y1="237.7508" x2="-634.0146" y2="236.1945" gradientTransform="matrix(13.9406 0 0 -21.6277 8745.0967 5074.1177)">
						<stop  offset="0" style="stop-color:#E5EDFF"/>
						<stop  offset="1" style="stop-color:#6B9AD9"/>
					</linearGradient>
					<path class="st50" d="M-97.8-55h11.9c0.6,0,1,0.4,1,1v19.6c0,0.6-0.4,1-1,1h-11.9c-0.6,0-1-0.4-1-1V-54
						C-98.8-54.6-98.4-55-97.8-55z"/>
					
						<linearGradient id="SVGID_22_" gradientUnits="userSpaceOnUse" x1="-633.9005" y1="235.9091" x2="-633.9005" y2="233.8662" gradientTransform="matrix(13.9406 0 0 -28.8369 8779.0918 6710.8218)">
						<stop  offset="0" style="stop-color:#FFFFFF"/>
						<stop  offset="1" style="stop-color:#B3CDEF"/>
					</linearGradient>
					<path class="st51" d="M-63.8-62h11.9c0.6,0,1,0.4,1,1v26.8c0,0.6-0.4,1-1,1h-11.9c-0.6,0-1-0.4-1-1V-61
						C-64.8-61.6-64.4-62-63.8-62z"/>
					
						<linearGradient id="SVGID_23_" gradientUnits="userSpaceOnUse" x1="-633.6288" y1="239.1071" x2="-634.0146" y2="237.5508" gradientTransform="matrix(13.9406 0 0 -18.8369 8796.0918 4440.8218)">
						<stop  offset="0" style="stop-color:#E5EDFF"/>
						<stop  offset="1" style="stop-color:#6B9AD9"/>
					</linearGradient>
					<path class="st52" d="M-46.8-52h11.9c0.6,0,1,0.4,1,1v16.8c0,0.6-0.4,1-1,1h-11.9c-0.6,0-1-0.4-1-1V-51
						C-47.8-51.6-47.4-52-46.8-52z"/>
					
						<linearGradient id="SVGID_24_" gradientUnits="userSpaceOnUse" x1="-633.9005" y1="234.0365" x2="-633.9005" y2="231.9936" gradientTransform="matrix(13.9406 0 0 -39.6508 8762.0918 9165.3809)">
						<stop  offset="0" style="stop-color:#FFFFFF"/>
						<stop  offset="1" style="stop-color:#B3CDEF"/>
					</linearGradient>
					<path class="st53" d="M-80.8-73h11.9c0.6,0,1,0.4,1,1v37.7c0,0.6-0.4,1-1,1h-11.9c-0.6,0-1-0.4-1-1V-72
						C-81.8-72.6-81.4-73-80.8-73z"/>
					<g transform="translate(114.000000, 6.000000)">
						
							<linearGradient id="SVGID_25_" gradientUnits="userSpaceOnUse" x1="-743.3964" y1="227.4429" x2="-743.3964" y2="225.4" gradientTransform="matrix(64.8006 0 0 -45 47992.1641 10058)">
							<stop  offset="0" style="stop-color:#FFFFFF"/>
							<stop  offset="1" style="stop-color:#B3CDEF"/>
						</linearGradient>
						<path class="st54" d="M-212-130h63.2c0.4,0,0.8,0.4,0.8,0.8v43.4c0,0.4-0.4,0.8-0.8,0.8H-212c-0.4,0-0.8-0.4-0.8-0.8v-43.4
							C-212.8-129.6-212.4-130-212-130z"/>
						<path class="st55" d="M-208.4-94.3l8.1-13.8c0.4-0.8,1.4-1,2.2-0.6c0.1,0.1,0.2,0.2,0.4,0.3l6.9,7.2c0.6,0.6,1.6,0.7,2.3,0.1
							c0.1-0.1,0.1-0.1,0.2-0.2l13.1-16.9c0.5-0.7,1.5-0.8,2.2-0.3c0.1,0.1,0.3,0.2,0.4,0.4l6.3,9.6c0.5,0.7,1.5,0.9,2.2,0.5
							c0.2-0.1,0.3-0.2,0.4-0.4l11.1-15.6L-208.4-94.3z"/>
						<path class="st55" d="M-208.4-94.3l16.8-13.4c0.5-0.4,1.3-0.5,1.9-0.1l7.3,4.9c0.6,0.4,1.5,0.3,2-0.2l7-7.1
							c0.6-0.6,1.6-0.6,2.2-0.1l7.9,7.2c0.6,0.6,1.5,0.5,2.1,0l9-8.2L-208.4-94.3z"/>
					</g>
					<g transform="translate(22.000000, 6.000000)">
						
							<linearGradient id="SVGID_26_" gradientUnits="userSpaceOnUse" x1="-651.2285" y1="229.727" x2="-651.2285" y2="227.6841" gradientTransform="matrix(75 0 0 -29.6227 48666.8281 6705.6143)">
							<stop  offset="0" style="stop-color:#FFFFFF"/>
							<stop  offset="1" style="stop-color:#B3CDEF"/>
						</linearGradient>
						<path class="st56" d="M-168-62.1c1.2,0.2,2.2,0.8,3,1.7c0.6-0.4,1.3-0.7,2-0.7c1.8,0,3.3,1.5,3.3,3.3c0,0.2,0,0.4,0,0.6
							c0,0,0,0,0,0c1.5,0,2.9,0.7,3.8,1.7c1.3-1.8,3.5-3,5.9-3c4,0,7.3,3.3,7.3,7.3c0,0.1,0,0.1,0,0.2h0c2.7,0,4.9,2.2,4.9,4.9
							c0,2.7-2.2,4.9-4.9,4.9c-1,0-2-0.3-2.8-0.8c-0.8,1.8-2.5,3-4.5,3c-2.3,0-4.3-1.6-4.8-3.8c-0.7,0.6-1.6,1-2.6,1
							c-1.3,1.1-2.9,1.8-4.7,1.8c-2.6,0-4.8-1.4-6.1-3.4c-1.5,2.3-4.1,3.8-7,3.8s-5.6-1.5-7-3.8c-1.2,2-3.5,3.4-6.1,3.4
							c-1.8,0-3.5-0.7-4.7-1.8c-1,0-1.9-0.4-2.6-1c-0.5,2.2-2.5,3.8-4.8,3.8c-2,0-3.8-1.2-4.5-3c-0.8,0.5-1.7,0.8-2.8,0.8
							c-2.7,0-4.9-2.2-4.9-4.9c0-2.7,2.2-4.9,4.9-4.9h0c0-0.1,0-0.1,0-0.2c0-4,3.3-7.3,7.3-7.3c2.4,0,4.6,1.2,5.9,3
							c0.9-1.1,2.3-1.7,3.8-1.7c0,0,0,0,0,0c0-0.2,0-0.4,0-0.6c0-1.8,1.5-3.3,3.3-3.3c0.8,0,1.5,0.3,2,0.7c0.7-0.9,1.8-1.5,3-1.7
							c0.6-1,1.4-1.8,2.4-2.5c0.4-2.3,2.4-4,4.9-4c2.4,0,4.4,1.7,4.8,3.9C-169.5-64.1-168.6-63.2-168-62.1z"/>
						<g id="Group-3" transform="translate(11.469265, 0.000000)">
							
								<linearGradient id="SVGID_27_" gradientUnits="userSpaceOnUse" x1="-667.189" y1="234.2573" x2="-667.5748" y2="232.701" gradientTransform="matrix(13.4933 0 0 -16.9433 8801.4922 3868.7935)">
								<stop  offset="0" style="stop-color:#E5EDFF"/>
								<stop  offset="1" style="stop-color:#6B9AD9"/>
							</linearGradient>
							<path class="st57" d="M-209.4-85c2.2-2.8,5.6-4.7,10.1-5.6v16.9h-13.5C-212.8-78.4-211.7-82.2-209.4-85z"/>
							
								<linearGradient id="SVGID_28_" gradientUnits="userSpaceOnUse" x1="-667.2883" y1="234.2819" x2="-667.6741" y2="232.7256" gradientTransform="matrix(13.4933 0 0 -16.9433 8839.7227 3868.7935)">
								<stop  offset="0" style="stop-color:#E5EDFF"/>
								<stop  offset="1" style="stop-color:#6B9AD9"/>
							</linearGradient>
							<path class="st58" d="M-164.5-85c2.2,2.8,3.4,6.6,3.4,11.3h-13.5v-16.9C-170.1-89.7-166.7-87.8-164.5-85z"/>
							
								<linearGradient id="SVGID_29_" gradientUnits="userSpaceOnUse" x1="-664.674" y1="226.366" x2="-664.674" y2="224.3232" gradientTransform="matrix(26.2915 0 0 -59.582 17288.4316 13295.2051)">
								<stop  offset="0" style="stop-color:#FFFFFF"/>
								<stop  offset="1" style="stop-color:#B3CDEF"/>
							</linearGradient>
							<path class="st59" d="M-176.2-112.6c1.4,6.3,2.2,19.2,2.5,38.8h0c0,1.9-1.5,3.4-3.3,3.4c0,0,0,0-0.1,0l-19.6,0
								c-1.9,0-3.4-1.5-3.4-3.4c0,0,0,0,0-0.1c0.3-19.6,1.1-32.5,2.5-38.8c2.2-9.9,5.7-15.7,10.6-17.4
								C-181.9-128.3-178.4-122.6-176.2-112.6z"/>
							
								<linearGradient id="SVGID_30_" gradientUnits="userSpaceOnUse" x1="-666.0341" y1="240.6801" x2="-666.3249" y2="237.7303" gradientTransform="matrix(17.5837 0 0 -10.8841 11527.0557 2484.2688)">
								<stop  offset="0" style="stop-color:#E5EDFF"/>
								<stop  offset="1" style="stop-color:#6B9AD9"/>
							</linearGradient>
							<path class="st60" d="M-195.6-119.1c2.2-6,5.1-9.6,8.8-10.9c3.7,1.3,6.6,4.9,8.8,10.9H-195.6z"/>
							
								<linearGradient id="SVGID_31_" gradientUnits="userSpaceOnUse" x1="-667.3649" y1="236.957" x2="-667.6557" y2="234.0073" gradientTransform="matrix(13.7181 0 0 -13.6893 8969.5137 3123.0645)">
								<stop  offset="0" style="stop-color:#E5EDFF"/>
								<stop  offset="1" style="stop-color:#6B9AD9"/>
							</linearGradient>
							<path class="st61" d="M-186.8-100.3c-3.8,0-6.9-3.1-6.9-6.8s3.1-6.8,6.9-6.8s6.9,3.1,6.9,6.8S-183-100.3-186.8-100.3z"/>
							<path class="st20" d="M-186.8-101.5c3.1,0,5.6-2.5,5.6-5.6s-2.5-5.6-5.6-5.6s-5.6,2.5-5.6,5.6S-189.9-101.5-186.8-101.5z"/>
							
								<linearGradient id="SVGID_32_" gradientUnits="userSpaceOnUse" x1="-665.3881" y1="273.0262" x2="-665.7739" y2="271.4699" gradientTransform="matrix(20.1274 0 0 -3.9272 13210.3828 999.4315)">
								<stop  offset="0" style="stop-color:#E5EDFF"/>
								<stop  offset="1" style="stop-color:#6B9AD9"/>
							</linearGradient>
							<path class="st62" d="M-196.6-70.4h20.1l-1,2.5c-0.3,0.9-1.2,1.4-2.1,1.4h-14c-0.9,0-1.7-0.6-2.1-1.4L-196.6-70.4z"/>
							
								<linearGradient id="SVGID_33_" gradientUnits="userSpaceOnUse" x1="-676.7225" y1="233.4628" x2="-677.1084" y2="231.9065" gradientTransform="matrix(5.1724 0 0 -18.1776 3315.2822 4142.6904)">
								<stop  offset="0" style="stop-color:#E5EDFF"/>
								<stop  offset="1" style="stop-color:#6B9AD9"/>
							</linearGradient>
							<path class="st63" d="M-186.9-90.7c0.8,0,1.5,0.6,1.6,1.5l1,16.7h-5.2l1-16.7C-188.4-90.1-187.8-90.7-186.9-90.7z"/>
						</g>
					</g>
				</g>
			</g>
		</g>
	</g>
	<g id="Man" transform="translate(376.000000, 378.000000)">
		<g transform="translate(80.000000, 270.000000)">
			<path id="leg" class="st64" d="M-80,16.2c1.2-0.8,20.4-3.8,18.3,5.5c-2,9.3-9.8,13.4-6.9,18.5c1.9,3.4,1.5,5.4-1.2,5.9l-11.4-5.9
				l-5-8.1C-82.8,22-80.8,16.7-80,16.2z"/>
			
				<linearGradient id="SVGID_34_" gradientUnits="userSpaceOnUse" x1="-589.5118" y1="53.9494" x2="-590.5118" y2="53.9494" gradientTransform="matrix(47.0232 0 0 -30.7005 27674.877 1701.9457)">
				<stop  offset="0" style="stop-color:#2865C6"/>
				<stop  offset="1" style="stop-color:#10378A"/>
			</linearGradient>
			<path class="st65" d="M-86.5,30.3c2.8-0.3,3.9,6.6,8.3,8c4.4,1.4,8.9-3,9.8-2.1c2.8,2.6,7.3,5,12,8.5c11.5,8.8,12.5,9.8,8.4,16
				c-0.5,1.5-15.4-2.5-44.8-12.1c-0.2-3.5,0.1-6.7,0.9-9.4C-90.7,35.1-89.3,30.6-86.5,30.3z"/>
			<path class="st64" d="M-152.7,8.9c0.5,0.8,0.2,5.9-1.1,15.2l-7.5,7.1l-12.8,1c0.4-1.1,1.1-2.8,1.9-5.2c1.2-3.6,1.7-5.8,3.4-15.1
				C-167.1,2.6-153.5,7.7-152.7,8.9z"/>
			
				<linearGradient id="SVGID_35_" gradientUnits="userSpaceOnUse" x1="-590.9456" y1="56.4651" x2="-591.9456" y2="56.4651" gradientTransform="matrix(25.5182 0 0 -22.0856 14929.9072 1276.2837)">
				<stop  offset="0" style="stop-color:#2865C6"/>
				<stop  offset="1" style="stop-color:#10378A"/>
			</linearGradient>
			<path class="st66" d="M-161.5,18.2c4.7,0,9.3,4.9,10.5,9c0.8,2.8,1.1,5.9,0.9,9.4c-11.7,3.1-18.7,4.2-21,3.3
				c-9.3-3.8-1.4-16.3,0-17.5C-170.1,21.5-166.2,18.2-161.5,18.2z"/>
			<path class="st67" d="M-190.6-108.9c43.3-20.3,68.9-25.3,76.7-15.2c11.7,15.2,21.7,65.1-36.8,139c-4.2,3-8,4.2-11.2,3.8
				s-6-3.5-8.2-9l16.2-66l-45.6-6.2L-212.7-91L-190.6-108.9z"/>
			
				<linearGradient id="SVGID_36_" gradientUnits="userSpaceOnUse" x1="-588.9244" y1="49.4395" x2="-589.0109" y2="48.9395" gradientTransform="matrix(118.2199 0 0 -138.2832 69555.9375 6724.043)">
				<stop  offset="0" style="stop-color:#3485F7"/>
				<stop  offset="1" style="stop-color:#1A57CF"/>
			</linearGradient>
			<path class="st68" d="M-100.6-108.9c45.8-5.1,72.6-2.7,80.4,7.5C-8.6-86.3-14.3-50.9-56.9,24c-8.1,2.2-13.8,3.1-17.1,2.6
				s-6-3.5-8.2-9l18.2-74l-69.2,9.9l10.4-44.6L-100.6-108.9z"/>
		</g>
		<g transform="translate(11.000000, 120.000000)">
			<path class="st64" d="M-155.6-115.1c18.5,8.5,29.8,10.6,33.8,6.4c4-4.2,5.8-7.4,5.3-9.4c33.1,4.6,53.6,15.1,61.4,31.6
				c9.4,19.8,26,71,37.2,78.5c2-2.6,12.7-8.5,32-17.7c-3-1.5-4.5-3.4-4.5-5.9c0-3.7,1.9-2.5,3.2-3.8c1.3-1.3,1.9-3.4,3.8-3.4
				c1.7,0,3.5,0.4,5.4,0.9c0.9,0.3,3.1-1.3,4-0.9c5.2,1.9,10,5.5,10,6.9s0.7,3.7-1.7,6.2c-0.9,0.9-2.7,2-5.4,3.3
				C1.7,10.3-16.1,26.7-24.3,26.7c-12.3,0-30.5-25.1-35.4-30.3c-3.5,11.3-27.3,37.3-71.4,78l-72.6-67l-7.2-73.5l58.1-57.7
				L-155.6-115.1z"/>
			<g>
				
					<linearGradient id="SVGID_37_" gradientUnits="userSpaceOnUse" x1="-519.7375" y1="198.9756" x2="-519.7375" y2="197.8669" gradientTransform="matrix(187.3842 0 0 -228.4134 97271.5625 45294.6523)">
					<stop  offset="0" style="stop-color:#FFE579"/>
					<stop  offset="1" style="stop-color:#FEB755"/>
				</linearGradient>
				<path class="st69" d="M-136.8-108.7c11,0,18.8-3.3,23.5-9.8c32.6,3.3,52.8,13.1,60.5,29.6c6.8,14.4,8.3,18.7,20.9,41.2
					c5.9,10.6-5,22.5-32.7,35.8c16.2,32.6,28.4,50.8,36.8,54.6c2.8,2.7,2.8,11.3,1.8,14.8c-1.9,6.6-30.1,46.5-44.3,41.3
					c-9.5-3.5-30-11.6-61.6-24.3l-71.9-67l-9-72.7c3.9-13.1,9.7-27.6,17.6-43.4c10.4-20.7,24.3-25.8,41.7-15.1
					C-153.3-113.7-147.8-108.7-136.8-108.7z"/>
			</g>
			<defs>
				<filter id="Adobe_OpacityMaskFilter_2_" filterUnits="userSpaceOnUse" x="-79.5" y="-31.8" width="57.9" height="76.6">
					<feColorMatrix  type="matrix" values="1 0 0 0 0  0 1 0 0 0  0 0 1 0 0  0 0 0 1 0"/>
				</filter>
			</defs>
			<mask maskUnits="userSpaceOnUse" x="-79.5" y="-31.8" width="57.9" height="76.6" id="mask-26_1_">
				<g class="st70">
					<path id="path-25_1_" class="st38" d="M-136.8-108.7c11,0,18.8-3.3,23.5-9.8c32.6,3.3,52.8,13.1,60.5,29.6
						c6.8,14.4,8.3,18.7,20.9,41.2c5.9,10.6-5,22.5-32.7,35.8c16.2,32.6,28.4,50.8,36.8,54.6c2.8,2.7,2.8,11.3,1.8,14.8
						c-1.9,6.6-30.1,46.5-44.3,41.3c-9.5-3.5-30-11.6-61.6-24.3l-71.9-67l-9-72.7c3.9-13.1,9.7-27.6,17.6-43.4
						c10.4-20.7,24.3-25.8,41.7-15.1C-153.3-113.7-147.8-108.7-136.8-108.7z"/>
				</g>
			</mask>
			<path class="st71" d="M-63.6-11.4c-7.3-9-12.5-15.8-15.8-20.4c-2.1,6,17.7,70.6,41.3,75c15.8,2.9,20.2,1.7,13.4-3.6L-63.6-11.4z"
				/>
		</g>
		<g transform="translate(41.000000, 0.000000)">
			<path class="st64" d="M-178.2-17.7c-3.1,10-5.6,16.6-7.5,19.8c-2.8,4.9,2.2,17.1,14.5,17.1c8.2,0,17.8-3.2,28.9-9.6
				c-4.2-6.6-6.2-12.8-6.2-18.6s1.2-10.8,3.6-14.9c4.5,2.9,8.2,2.9,11.1,0c4.3-4.3,22.6-54.9-26.4-67.3
				c-11.9-8.6-30.1,12.4-30.1,21.7c0,6.2,0,11.7,0,16.6c-5.8-2.5-8.8-0.5-8.8,5.9s3.8,10.9,11.3,13.3L-178.2-17.7z"/>
			
				<linearGradient id="SVGID_38_" gradientUnits="userSpaceOnUse" x1="-549.8725" y1="318.7202" x2="-550.6749" y2="320.2849" gradientTransform="matrix(87.3705 0 0 -109.2826 47905.3672 34820.8203)">
				<stop  offset="0" style="stop-color:#032258"/>
				<stop  offset="1" style="stop-color:#133E94"/>
			</linearGradient>
			<path class="st72" d="M-155.2-123.1c14.3-14.3,27.9-0.1,30.5,15.9c2.6,16.4-14.1,33.2-14.1,33.2s0,6.5,0,19.4
				c-3.4-5.7-7.2-7.8-11.3-6.4c-4.4,1.5-3.8,7.7-1.5,13.1c2.3,5.4,5.2,5.1,4.8,6.2c-2.8,6.8-13.1,14.1-30.9,21.9
				c-12.7-2.7-22.4-12.5-29.1-29.2s-6.7-29.7,0-38.9c-3-8.6,0.4-16.8,10.1-24.6C-182.3-124.1-169.5-108.8-155.2-123.1z"/>
		</g>
		<g id="Chair" transform="translate(0.000000, 187.000000)">
			<polygon id="Chair-base" class="st73" points="-58.8,54 -46.8,54 -46.8,103 -58.8,103 			"/>
			
				<linearGradient id="Wheel_1_" gradientUnits="userSpaceOnUse" x1="-512.634" y1="141.945" x2="-512.8679" y2="141.0845" gradientTransform="matrix(18 0 0 -18 9111.7793 2713)">
				<stop  offset="0" style="stop-color:#476DB1"/>
				<stop  offset="1" style="stop-color:#283F6F"/>
			</linearGradient>
			<circle id="Wheel" class="st74" cx="-117.8" cy="166" r="9"/>
			
				<linearGradient id="SVGID_39_" gradientUnits="userSpaceOnUse" x1="-512.634" y1="141.945" x2="-512.8679" y2="141.0845" gradientTransform="matrix(18 0 0 -18 9237.7793 2713)">
				<stop  offset="0" style="stop-color:#476DB1"/>
				<stop  offset="1" style="stop-color:#283F6F"/>
			</linearGradient>
			<circle class="st75" cx="8.2" cy="166" r="9"/>
			
				<linearGradient id="SVGID_40_" gradientUnits="userSpaceOnUse" x1="-512.634" y1="141.945" x2="-512.8679" y2="141.0845" gradientTransform="matrix(18 0 0 -18 9176.7793 2723)">
				<stop  offset="0" style="stop-color:#476DB1"/>
				<stop  offset="1" style="stop-color:#283F6F"/>
			</linearGradient>
			<circle class="st76" cx="-52.8" cy="176" r="9"/>
			
				<linearGradient id="SVGID_41_" gradientUnits="userSpaceOnUse" x1="-508.881" y1="135.1011" x2="-508.881" y2="131.9762" gradientTransform="matrix(140.2394 0 0 -73.9394 71311.4609 9986.1504)">
				<stop  offset="0" style="stop-color:#95B7E5"/>
				<stop  offset="1" style="stop-color:#476DB1"/>
			</linearGradient>
			<path class="st77" d="M-64.9,113.9l-0.7-7.5c0-0.2,0-0.3,0-0.5c0-2.2,1.9-4,4.1-3.9l17.2,0.4c0.1,0,0.1,0,0.2,0
				c2.2,0.2,3.9,2.1,3.7,4.3l-0.5,6.4l54.7,37.6c0.1,0.1,0.3,0.2,0.4,0.3c2.6,2.1,3,6,0.8,8.6c-2.5,3-6.7,3.8-10.1,1.9l-47.6-26.2
				l-2.6,33.9c-0.3,3.8-3.4,6.7-7.2,6.8c-3.8,0.1-6.9-2.7-7.3-6.5l-3.3-35.1l-49.3,27.2c-3.4,1.9-7.6,1.1-10.1-1.9
				c-2.1-2.6-1.8-6.5,0.8-8.6c0.1-0.1,0.3-0.2,0.4-0.3l55.8-38.3L-64.9,113.9z"/>
			
				<linearGradient id="SVGID_42_" gradientUnits="userSpaceOnUse" x1="-508.683" y1="131.9964" x2="-508.9169" y2="131.1358" gradientTransform="matrix(163.8468 0 0 -188.5817 83235.1641 24772.5703)">
				<stop  offset="0" style="stop-color:#476DB1"/>
				<stop  offset="1" style="stop-color:#283F6F"/>
			</linearGradient>
			<path class="st78" d="M-193.6-128.2c-6.1-3.4-15.3-0.2-18.2,4c0.9,6,1.5,8.6,1.6,8.7c9.5,51.3,46.3,100.6,75,131.5
				c16.3,17.6,30.2,31.7,41.6,42.1c11,1.7,21.2,0.5,30.5-3.5c6-2.7,15.5-1.9,15.3-10.2c-0.6-17.1-15.8-25.8-21.8-50.6
				c-5.6-23.3,0.7-70.7-16.3-80.5s-38.4,7.2-70.9-6.9C-180-103.6-187.5-124.8-193.6-128.2z"/>
			
				<linearGradient id="SVGID_43_" gradientUnits="userSpaceOnUse" x1="-508.6428" y1="133.4108" x2="-508.6428" y2="130.2859" gradientTransform="matrix(240.8035 0 0 -200.5049 122391.4219 26339.3906)">
				<stop  offset="0" style="stop-color:#95B7E5"/>
				<stop  offset="1" style="stop-color:#476DB1"/>
			</linearGradient>
			<path class="st79" d="M-211.9-124.7c7.4,58.9,13.8,97.6,19.3,116.2c8.3,28.2,18.8,40.1,30.2,51.4c11.4,11.3,53.9,31,87.8,32.8
				c30.1,1.5,72-7.2,87.6-16.9s23.6-30.4,6-35.5s-74.2,16.1-79.5,13.7C-90.2,24-81.2-65.2-95.5-74.7c-13.6-9-42.6,2.6-77.5-12.9
				C-183.2-92.1-196.2-104.5-211.9-124.7z"/>
		</g>
	</g>
</g>
</svg>
