<?xml version="1.0" encoding="utf-8"?>
<!-- Generator: Adobe Illustrator 23.0.2, SVG Export Plug-In . SVG Version: 6.00 Build 0)  -->
<svg version="1.1" id="Laag_1" xmlns="http://www.w3.org/2000/svg" xmlns:xlink="http://www.w3.org/1999/xlink" x="0px" y="0px"
	 width="1178.3px" height="726.9px" viewBox="0 0 1178.3 726.9" style="enable-background:new 0 0 1178.3 726.9;"
	 xml:space="preserve">
<style type="text/css">
	.st0{opacity:0.3;}
	.st1{fill-rule:evenodd;clip-rule:evenodd;fill:#E2EBFC;}
	.st2{opacity:0.5;}
	.st3{opacity:0.8062;fill-rule:evenodd;clip-rule:evenodd;fill:#E2EBFC;enable-background:new    ;}
	.st4{fill:url(#SVGID_1_);}
	.st5{fill:url(#Sleeve_1_);}
	.st6{fill:url(#File-base_1_);}
	.st7{fill:#ABC6ED;}
	.st8{fill:url(#SVGID_2_);}
	.st9{fill-rule:evenodd;clip-rule:evenodd;fill:url(#Hair_1_);}
	.st10{fill-rule:evenodd;clip-rule:evenodd;fill:url(#SVGID_3_);}
	.st11{fill:url(#Face_1_);}
	.st12{fill-rule:evenodd;clip-rule:evenodd;fill:url(#SVGID_4_);}
	.st13{fill:url(#Path_1_);}
	.st14{fill-rule:evenodd;clip-rule:evenodd;fill:url(#SVGID_5_);}
	.st15{fill:url(#Rectangle-3-Copy_1_);}
	.st16{fill:url(#Shoes_1_);}
	.st17{fill:url(#leg_1_);}
	.st18{fill:url(#SVGID_6_);}
	.st19{fill:url(#Pants_1_);}
	.st20{fill:url(#SVGID_7_);}
	.st21{fill:url(#SVGID_8_);}
	.st22{opacity:0.4664;fill:url(#Texture_1_);enable-background:new    ;}
	.st23{opacity:0.5;fill:url(#SVGID_9_);enable-background:new    ;}
	.st24{fill:url(#SVGID_10_);}
	.st25{fill:url(#SVGID_11_);}
	.st26{fill:url(#Box-base_1_);}
	.st27{fill:url(#SVGID_12_);}
	.st28{fill:url(#SVGID_13_);}
	.st29{fill:url(#SVGID_14_);}
	.st30{fill:url(#SVGID_15_);}
	.st31{fill:url(#SVGID_16_);}
	.st32{fill:url(#SVGID_17_);}
	.st33{fill:url(#SVGID_18_);}
	.st34{fill:url(#SVGID_19_);stroke:url(#SVGID_20_);stroke-width:10;}
	.st35{fill:url(#SVGID_21_);stroke:url(#SVGID_22_);stroke-width:10;}
	.st36{opacity:0.4;fill:url(#SVGID_23_);enable-background:new    ;}
	.st37{opacity:0.4;fill:url(#SVGID_24_);enable-background:new    ;}
	.st38{opacity:0.4;fill:url(#SVGID_25_);enable-background:new    ;}
	.st39{opacity:0.4;fill:url(#SVGID_26_);enable-background:new    ;}
	.st40{opacity:0.4;fill:url(#SVGID_27_);enable-background:new    ;}
	.st41{opacity:0.4;fill:url(#SVGID_28_);enable-background:new    ;}
	.st42{fill:url(#SVGID_29_);}
	.st43{fill:url(#Rectangle-2-Copy-9_1_);stroke:url(#Rectangle-2-Copy-9_2_);stroke-width:2;}
	.st44{fill:#2A73E7;}
	.st45{fill:url(#Rectangle-2-Copy-11_1_);}
	.st46{fill:url(#Rectangle-2-Copy-13_1_);}
	.st47{fill:url(#Rectangle-2-Copy-12_1_);}
	.st48{fill:url(#SVGID_30_);stroke:url(#SVGID_31_);stroke-width:2;}
	.st49{fill:#F35F73;}
	.st50{fill:url(#Oval_1_);}
	.st51{fill:url(#Oval-Copy_1_);}
	.st52{fill:url(#Oval-Copy-2_1_);}
	.st53{fill:#233A67;}
	.st54{fill:url(#SVGID_32_);}
	.st55{fill:url(#Rectangle_1_);}
	.st56{fill:url(#SVGID_33_);}
	.st57{fill:url(#SVGID_34_);}
	.st58{opacity:0.5;fill:url(#SVGID_35_);enable-background:new    ;}
	.st59{fill-rule:evenodd;clip-rule:evenodd;fill:url(#SVGID_36_);}
	.st60{fill:url(#Jacket_1_);}
	.st61{fill:url(#SVGID_37_);}
	.st62{fill:url(#SVGID_38_);}
	.st63{fill:url(#SVGID_39_);}
	.st64{fill:url(#SVGID_40_);}
	.st65{fill:url(#SVGID_41_);}
	.st66{fill:url(#SVGID_42_);}
	.st67{fill:none;stroke:#1542AB;}
	.st68{fill:url(#Path-5_1_);}
	.st69{fill:none;stroke:#F58898;}
	.st70{fill:none;stroke:#48C172;stroke-linecap:round;stroke-linejoin:round;stroke-dasharray:5,10;}
	.st71{fill:url(#Jacket-base_1_);}
	.st72{fill:url(#Shape_1_);}
	.st73{fill:none;stroke:#5FCC89;}
	.st74{fill-rule:evenodd;clip-rule:evenodd;fill:#5FCC89;}
	.st75{fill-rule:evenodd;clip-rule:evenodd;fill:url(#Neck_1_);}
	.st76{fill-rule:evenodd;clip-rule:evenodd;fill:url(#SVGID_43_);}
	.st77{fill-rule:evenodd;clip-rule:evenodd;fill:url(#SVGID_44_);}
	.st78{fill-rule:evenodd;clip-rule:evenodd;fill:url(#SVGID_45_);}
	.st79{fill:url(#SVGID_46_);}
	.st80{fill:url(#SVGID_47_);}
	.st81{fill:url(#SVGID_48_);}
	.st82{fill:url(#SVGID_49_);}
	.st83{fill:url(#SVGID_50_);}
	.st84{fill:url(#SVGID_51_);}
	.st85{fill:url(#SVGID_52_);}
	.st86{fill:url(#SVGID_53_);}
	.st87{fill:url(#SVGID_54_);}
	.st88{fill:url(#SVGID_55_);}
	.st89{fill:url(#SVGID_56_);}
	.st90{opacity:0.5;fill:url(#SVGID_57_);enable-background:new    ;}
	.st91{fill:url(#Picture-base_1_);}
	.st92{fill:url(#SVGID_58_);}
	.st93{filter:url(#Adobe_OpacityMaskFilter);}
	.st94{fill-rule:evenodd;clip-rule:evenodd;fill:#FFFFFF;}
	.st95{mask:url(#mask-35_1_);}
	.st96{fill:url(#Moon_1_);}
	.st97{fill:url(#Rocket-base_1_);}
	.st98{fill:#FFFFFF;}
	.st99{fill:url(#SVGID_59_);}
	.st100{fill:url(#SVGID_60_);}
	.st101{fill:url(#Smoke_1_);}
	.st102{fill:url(#SVGID_61_);}
	.st103{fill:url(#SVGID_62_);}
	.st104{fill:url(#SVGID_63_);}
</style>
<title>PRODUCTION@2x</title>
<desc>Created with Sketch.</desc>
<g id="PRODUCTION">
	<g id="Background" transform="translate(136.000000, 210.000000)" class="st0">
		<circle class="st1" cx="761" cy="49.6" r="247"/>
		<circle id="Bzckground" class="st1" cx="111" cy="219.6" r="247"/>
	</g>
	<g id="Shadow" transform="translate(326.000000, 851.000000)" class="st2">
		<path class="st3" d="M401.8-170.2v22.6c0,13-10.5,23.5-23.5,23.5H124.3c-13,0-23.5-10.5-23.5-23.5v-22.6h-223.1
			c-7.4,0-13.4-6-13.4-13.4c0-7.4,6-13.4,13.4-13.4h747.2c7.4,0,13.4,6,13.4,13.4c0,7.4-6,13.4-13.4,13.4H401.8z"/>
	</g>
	<g id="Man" transform="translate(152.000000, 265.000000)">
		<g id="Hand" transform="translate(62.000000, 108.000000)">
			
				<linearGradient id="SVGID_1_" gradientUnits="userSpaceOnUse" x1="-270.7004" y1="258.0799" x2="-270.1434" y2="258.1329" gradientTransform="matrix(126.409 0 0 -63.4893 34116.4844 16301.0703)">
				<stop  offset="0" style="stop-color:#925948"/>
				<stop  offset="1" style="stop-color:#B06C57"/>
			</linearGradient>
			<path class="st4" d="M-31-81.4c1.3-0.3,4.1-1.3,5-1.4c7.9-4.1,12.5-6.1,13.9-5.7c1.4,0.3,0.5,3-2.8,7.9
				c12.2-0.6,18.8-0.3,19.8,0.7c1.1,1-2.4,2.6-10.5,4.6c9.6,1.2,14.3,2.4,14,3.6s-5,2.6-14.1,4c7.7,2.5,11.1,4.1,10.3,5
				c-0.8,0.8-5.4,1.2-13.9,1.1c4.2,4,5.9,6.2,4.9,6.6c-1,0.5-9.1-3.5-22.4-10.8l-12.8-1.6c-12-0.5-48.3-8.8-77.1-23.5
				c-6.4-3.3,15.3-31.8,21.1-27C-84.1-108.3-60.3-95.6-31-81.4z"/>
			
				<linearGradient id="Sleeve_1_" gradientUnits="userSpaceOnUse" x1="-270.6682" y1="257.2932" x2="-270.8117" y2="255.7723" gradientTransform="matrix(76.5983 0 0 -123.5819 20640.4121 31575.8027)">
				<stop  offset="0" style="stop-color:#F7FAFF"/>
				<stop  offset="1" style="stop-color:#6B9AD9"/>
			</linearGradient>
			<path id="Sleeve" class="st5" d="M-88.6-168.2c2.7,29.6,5.6,35.8,10.6,51.2c0.9,2.6,2.9,5.6,6,8.9c0.4,0.4,2.4-1.7,2.8-1.2
				c1.8,1.8,4.3,2.5,6.7,4.5c10.7,8.8-6.7,36-26.2,30.2c-2.5-0.7-4.8-4.5-6.5-7c-0.4-0.5,1.1-2.2,0.6-2.5c-3.8-2.4-7.5-4.9-10.9-7.6
				c-29.7-22.9-37.5-88.8-23.6-100.7C-116.6-202.9-91.2-197.8-88.6-168.2z"/>
		</g>
		<g id="File" transform="translate(149.000000, 205.000000)">
			
				<linearGradient id="File-base_1_" gradientUnits="userSpaceOnUse" x1="-357.4843" y1="160.0379" x2="-358.3224" y2="157.29" gradientTransform="matrix(88.7856 0 0 -112.0216 31657.7578 17756.3398)">
				<stop  offset="0" style="stop-color:#F7FAFF"/>
				<stop  offset="1" style="stop-color:#6B9AD9"/>
			</linearGradient>
			<path id="File-base" class="st6" d="M-50.8-196.1c2.2,0,4,1.9,3.9,4.1l-1.8,103c0,2.2-1.9,4-4.1,3.9l-79-1.4
				c-2.2,0-4-1.9-3.9-4.1l1.5-83.4l23.9-23.2L-50.8-196.1z"/>
			<path class="st7" d="M-62-163.4c0.8,0,1.5,0.7,1.5,1.5c0,0.8-0.7,1.5-1.5,1.5l-56-1c-0.8,0-1.5-0.7-1.5-1.5
				c0-0.8,0.7-1.5,1.5-1.5L-62-163.4z"/>
			<path class="st7" d="M-62.2-146.6c0.8,0,1.5,0.7,1.5,1.5c0,0.8-0.7,1.5-1.5,1.5l-56-1c-0.8,0-1.5-0.7-1.5-1.5
				c0-0.8,0.7-1.5,1.5-1.5L-62.2-146.6z"/>
			<path class="st7" d="M-62.5-130.6c0.8,0,1.5,0.7,1.5,1.5c0,0.8-0.7,1.5-1.5,1.5l-56-1c-0.8,0-1.5-0.7-1.5-1.5s0.7-1.5,1.5-1.5
				L-62.5-130.6z"/>
			<path class="st7" d="M-62.8-114.6c0.8,0,1.5,0.7,1.5,1.5s-0.7,1.5-1.5,1.5l-56-1c-0.8,0-1.5-0.7-1.5-1.5c0-0.8,0.7-1.5,1.5-1.5
				L-62.8-114.6z"/>
			
				<linearGradient id="SVGID_2_" gradientUnits="userSpaceOnUse" x1="-359.9938" y1="167.8852" x2="-359.9938" y2="165.8423" gradientTransform="matrix(24.2191 0 0 -23.7344 8596.834 3762.6311)">
				<stop  offset="0" style="stop-color:#FFFFFF"/>
				<stop  offset="1" style="stop-color:#B3CDEF"/>
			</linearGradient>
			<path class="st8" d="M-109.8-197.3l-0.3,19.8c0,2.2-1.9,4-4.1,3.9l-19.8-0.3L-109.8-197.3z"/>
		</g>
		<g id="Head" transform="translate(15.000000, 0.000000)">
			
				<linearGradient id="Hair_1_" gradientUnits="userSpaceOnUse" x1="-227.0361" y1="370.6972" x2="-226.383" y2="372.2189" gradientTransform="matrix(19.4474 0 0 -23.8016 4298.2788 8711.5654)">
				<stop  offset="0" style="stop-color:#062764"/>
				<stop  offset="1" style="stop-color:#1C4CB9"/>
			</linearGradient>
			<path id="Hair" class="st9" d="M-122.2-129.3c5.7,9.9,10.7,14.8,15,14.8c4.3,0,5.5-6.1,3.5-18.3l-10-5.5L-122.2-129.3z"/>
			
				<linearGradient id="SVGID_3_" gradientUnits="userSpaceOnUse" x1="-224.421" y1="366.5548" x2="-225.2234" y2="368.1197" gradientTransform="matrix(39.1905 0 0 -47.5 8736.2549 17267.25)">
				<stop  offset="0" style="stop-color:#032258"/>
				<stop  offset="1" style="stop-color:#133E94"/>
			</linearGradient>
			<path class="st10" d="M-62.4-187.4c8.2,4.9,11.8,11.1,10.7,18.7c-1.3,9.3-4.5,15.7-9.5,19.2h-20l-9.5-21.8l2.5-5.7l6-4.2v-3.4
				l13.5-12.5C-68.4-193.7-66.3-190.4-62.4-187.4z"/>
			
				<linearGradient id="Face_1_" gradientUnits="userSpaceOnUse" x1="-224.0799" y1="364.671" x2="-223.5229" y2="364.724" gradientTransform="matrix(78.9314 0 0 -114.9936 17568.2988 41823.6602)">
				<stop  offset="0" style="stop-color:#925948"/>
				<stop  offset="1" style="stop-color:#B06C57"/>
			</linearGradient>
			<path id="Face" class="st11" d="M-118.9-128c-6.2,0-10.8-10.5-9.2-15.7c0.8-2.6,2.5-3.6,5.2-2.8c-1.9-6.3-2.3-10.6-1.2-12.8
				c2.3-4.9,27.9-15.1,42.9-15.1c11.2,0,20.6,8.3,22,19.4c0.2,1.7,0.3,2.9,0.3,3.6v10.8c0.3,16.4-1,19.8-2.8,24.2s-1,7.5-8.8,11.7
				c2.4,14.1,1.5,14.5,3.3,18c2.7,5.3,32.5,13.9,8.3,24.7C-75-54.9-93.3-62.2-115.5-89c5-4.5,8.8-10.1,9.2-16.3s-0.7-3.4-2.9-7.9
				c-2.6-5.5-4.9-10.5-6.8-15.1C-116.9-128.1-117.9-128-118.9-128z"/>
			
				<linearGradient id="SVGID_4_" gradientUnits="userSpaceOnUse" x1="-227.0331" y1="381.3124" x2="-226.9332" y2="379.8299" gradientTransform="matrix(18.7291 0 0 -11.4616 4161.9448 4211.333)">
				<stop  offset="0" style="stop-color:#925948"/>
				<stop  offset="0.5678" style="stop-color:#A0624F;stop-opacity:0.5228"/>
				<stop  offset="1" style="stop-color:#B06C57;stop-opacity:0"/>
			</linearGradient>
			<path class="st12" d="M-92.6-152.9c3.5-0.1,6.8,0.7,9.9,2.4c8.7,4.8-2.6,9.1-9.7,9.1c-3.2,0-5.9-2.6-5.9-5.7
				C-98.2-150.3-95.7-152.8-92.6-152.9L-92.6-152.9z"/>
			
				<linearGradient id="Path_1_" gradientUnits="userSpaceOnUse" x1="-229.7012" y1="369.4875" x2="-227.8764" y2="369.8782" gradientTransform="matrix(14.0403 0 0 -29.1268 3140.76 10631.8057)">
				<stop  offset="0" style="stop-color:#925948"/>
				<stop  offset="1" style="stop-color:#B06C57"/>
			</linearGradient>
			<path id="Path" class="st13" d="M-58.9-151.7c0,0.1,0,0.2,0,0.2v10.8c0.1,7.8-0.1,12.6-0.5,16.1l-6.3-1.8c-6.3-3-8.5-4.7-6.5-5
				c3-0.5,6.5-1.5,6.5-5s-7.5-7.5-6.5-13.5c0.7-4,5-4.8,13-2.5L-58.9-151.7z"/>
			
				<linearGradient id="SVGID_5_" gradientUnits="userSpaceOnUse" x1="-223.341" y1="364.5453" x2="-224.1434" y2="366.1101" gradientTransform="matrix(78.6594 0 0 -92.9444 17500.0156 33785.8047)">
				<stop  offset="0" style="stop-color:#032258"/>
				<stop  offset="1" style="stop-color:#133E94"/>
			</linearGradient>
			<path class="st14" d="M-100.2-162.4c-0.3,1-1,1.7-2,2c-5.2,1.6-8.3,4.6-9.3,8.8c0.1,3.2,0.3,7,0.3,11.6c0,15,7.5,20,14,20
				s13-12,22.5-12c6.3,0,11.8,1.8,15.5,4.5c3.3,10.3,2,16.8-3,20.5c-7.5,5.5-32.5,0-41.5,0s-7.5-10.5-10-25c-1.7-9.7-4.7-14.3-9-14
				c-2,0.2-3.4,0.8-4,2s-1,3.5-1,7c-22-38,4.5-58.5,23-55.5c12.3,2,24,1.7,36-5c3.7,31.6-17.4,26.8-30.2,30.5L-100.2-162.4z
				 M-66.8-118c1.5,0,3-0.3,4.6-0.9c0.5-0.2,0.8-0.8,0.6-1.3c0-0.1-0.1-0.2-0.2-0.3c-4.1-4.3-7.5-6.4-10.1-6.4c-0.2,0-0.3,0-0.5,0
				c-0.1,0-0.3,0-0.5,0c-2.6,0-6,2.1-10.1,6.4c-0.4,0.4-0.4,1,0,1.4c0.1,0.1,0.2,0.2,0.3,0.2c1.6,0.6,3.1,0.9,4.6,0.9
				c1.1,0,2.4-0.3,4-1c1-0.4,2.2-0.4,3.2,0C-69.3-118.3-67.9-118-66.8-118z"/>
		</g>
		<g id="Foot" transform="translate(9.000000, 243.000000)">
			
				<linearGradient id="Rectangle-3-Copy_1_" gradientUnits="userSpaceOnUse" x1="-219.7209" y1="126.8611" x2="-219.1639" y2="126.914" gradientTransform="matrix(30.1772 0 0 -28.7997 6516.3291 3789.8787)">
				<stop  offset="0" style="stop-color:#925948"/>
				<stop  offset="1" style="stop-color:#B06C57"/>
			</linearGradient>
			<path id="Rectangle-3-Copy" class="st15" d="M-117.9,121.5l30.2,2.2l-2.2,22.5c-3.1,2.8-7.5,4.1-13.4,4.1
				c-5.8,0-10.7-2.4-14.7-7.1L-117.9,121.5z"/>
			
				<linearGradient id="Shoes_1_" gradientUnits="userSpaceOnUse" x1="-217.4435" y1="124.9302" x2="-218.4435" y2="124.9302" gradientTransform="matrix(63.8534 0 0 -40.1603 13827.8076 5179.2192)">
				<stop  offset="0" style="stop-color:#2865C6"/>
				<stop  offset="1" style="stop-color:#10378A"/>
			</linearGradient>
			<path id="Shoes" class="st16" d="M-117.7,142c2,0.4,7.8,5.6,16.5,7.5s10.7-8.7,12-7.5c2.5,2.4,6.6,7.4,12.5,15l16.9,12.2
				c1.9,1.4,3.1,3.6,3.1,6c0,2.3-1.5,4.2-3.7,4.7h0c-6.8,1.6-11.9,2.3-15.3,2c-6-0.5-26.1-8.6-40.7-12.6c-1.5-0.4-2.8-2.1-3.1-4.2
				c-0.7-5-1-8.6-1-11C-120.5,147.8-119.7,141.6-117.7,142z"/>
			
				<linearGradient id="leg_1_" gradientUnits="userSpaceOnUse" x1="-219.7209" y1="126.8611" x2="-219.1639" y2="126.9141" gradientTransform="matrix(30.1772 0 0 -28.7997 6586.9736 3776.8489)">
				<stop  offset="0" style="stop-color:#925948"/>
				<stop  offset="1" style="stop-color:#B06C57"/>
			</linearGradient>
			<path id="leg" class="st17" d="M-47.2,108.5l30.2,2.2l-2.2,22.5c-3.1,2.8-7.5,4.1-13.4,4.1s-10.7-2.4-14.7-7.1L-47.2,108.5z"/>
			
				<linearGradient id="SVGID_6_" gradientUnits="userSpaceOnUse" x1="-217.3193" y1="126.541" x2="-218.3193" y2="126.541" gradientTransform="matrix(70.8806 0 0 -30.2706 15424.7051 3971.8594)">
				<stop  offset="0" style="stop-color:#2865C6"/>
				<stop  offset="1" style="stop-color:#10378A"/>
			</linearGradient>
			<path class="st18" d="M-47.3,126.2c2.5,0,4.7,8.2,15.4,8.2s11.8-7.6,13.4-6.7c3,1.8,7.3,4.6,12.8,8.3
				c19.7,5.9,28.5,12.3,26.4,19.3c-0.1,1.5-25.9,1.6-65.5,0.1c-1.9-0.1-3.5-1.5-3.8-3.5c-0.9-4.8-1.3-8.4-1.3-10.8
				C-49.8,134.7-49.8,126.2-47.3,126.2z"/>
			
				<linearGradient id="Pants_1_" gradientUnits="userSpaceOnUse" x1="-217.2315" y1="121.0936" x2="-217.318" y2="120.5936" gradientTransform="matrix(129.1261 0 0 -336.3521 27989.5566 40531.5508)">
				<stop  offset="0" style="stop-color:#3485F7"/>
				<stop  offset="1" style="stop-color:#1A57CF"/>
			</linearGradient>
			<path id="Pants" class="st19" d="M-78.7,0.6c-14.8,83.3-3.2,127.6-5.2,133.1c-3,8.2-36.1,8.2-38.3-3.1c-1.4-7.6-1.4-49.6,0-126.2
				c-6.5-81.4-13.7-93.5-13.3-112.6c0.4-19.1,8.2-48.6,23.3-88.6l39.8,51.9c3.9-6.9,8.7-15.2,14.3-25.1
				c20.5-12.2,33.8-5.8,39.8,19.5c6,25.2,16,74.5,10,147.7c-14.8,83.3-3.2,119.6-5.2,125.1c-3,8.2-36.1,8.2-38.3-3.1
				c-1.4-7.6-1.4-41.6,0-118.2C-58-29-64.5-53.3-70.1-72.3L-78.7,0.6z"/>
			
				<linearGradient id="SVGID_7_" gradientUnits="userSpaceOnUse" x1="-220.8157" y1="122.578" x2="-220.7634" y2="121.8195" gradientTransform="matrix(19.4889 0 0 -84 4242.6299 10235.5)">
				<stop  offset="0" style="stop-color:#1542AB"/>
				<stop  offset="1" style="stop-color:#2B68EE"/>
			</linearGradient>
			<path class="st20" d="M-51.9-0.5c-6.3-29.3-12.8-53.3-18.3-72l12.5-12l7,84H-51.9z"/>
		</g>
		<g id="Body" transform="translate(0.000000, 97.000000)">
			
				<linearGradient id="SVGID_8_" gradientUnits="userSpaceOnUse" x1="-208.2199" y1="268.0251" x2="-208.5137" y2="265.6174" gradientTransform="matrix(121.3996 0 0 -200.5105 25218.3359 53437.3711)">
				<stop  offset="0" style="stop-color:#F7FAFF"/>
				<stop  offset="1" style="stop-color:#6B9AD9"/>
			</linearGradient>
			<path class="st21" d="M-54.7-193.5l17.8,16.2c12.8,8.2,20,23.6,21.3,46.4s1.4,61,0,114.7C-37.9,6.6-73.4,9.9-122.2-6.2
				c2.9-16.2,1.3-41.1-4.7-74.9c-9.9-50.6-11.6-79.6-5.3-87c5.6-6.6,17.1-10.7,31.6-20c1.2-0.8,2.6-3.3,4.1-7.5
				c2.5-0.9,3.8-1.3,4-1.2c0.4,0.3-1.8,2.9-1.5,3.2c17.4,13.3,29.1,18.4,36.3,16.2c4.6-1.4,6.1,15.9,8.7,14.6
				c0.8-0.4,1.1-3.4,0.8-8.8c-0.3-4.3-1.8-8.5-4.4-12c0,0,0-0.1-0.1-0.1C-53.5-184.6-53.6-189-54.7-193.5z"/>
			
				<linearGradient id="Texture_1_" gradientUnits="userSpaceOnUse" x1="-208.266" y1="268.0627" x2="-208.5598" y2="265.655" gradientTransform="matrix(116.9545 0 0 -193.6485 24297.3594 51615.457)">
				<stop  offset="0" style="stop-color:#F7FAFF"/>
				<stop  offset="1" style="stop-color:#6B9AD9"/>
			</linearGradient>
			<path id="Texture" class="st22" d="M-89-189.7c0.5,0.4,1.1,0.8,1.6,1.1l-6.7,14.4l18,38.9l18-38.9l-1.3-2.7
				c0.5-0.1,1-0.2,1.5-0.3c0.1,0,0.3-0.1,0.4-0.1l0.4,0.9l0.3-0.8c0.5,0.2,1,0.7,1.5,1.4l-0.8,1.7l17.8,38.5l13.4-28.9
				c0.4,0.7,0.8,1.3,1.2,2L-37-133.5L-19.1-95l4.5-9.6c0,1.4,0,2.9,0.1,4.4l-3.5,7.5l3.5,7.6c0,1.5,0,3,0,4.5l-4.6-9.9l-18,38.9
				l18,38.9c-0.5,0.4-1,0.9-1.5,1.3l-17.6-37.9l-17.8,38.5l6,13c-0.6,0.1-1.3,0.2-1.9,0.4l-5.1-11.1l-5.7,12.3
				c-0.7,0-1.4,0.1-2.1,0.1l6.8-14.7L-76-49.3l-17.8,38.5l6.1,13.2C-88.5,2.2-89.3,2.1-90,2l-4.9-10.6L-99,0.2
				c-0.6-0.1-1.3-0.3-1.9-0.4l5-10.7l-17.8-38.5l-7.2,15.5c-0.1-1.3-0.1-2.7-0.2-4l6.4-13.8L-126-75.5c-0.3-1.8-0.6-3.7-1-5.5
				c-0.1-0.6-0.2-1.2-0.4-1.9l13.5,29L-96-92.3l-18-38.9L-129.9-97c-0.2-1.1-0.4-2.2-0.6-3.3l15.4-33.2l-16.4-35.3
				c0.5-0.5,0.9-0.9,1.5-1.4l16,34.5l17.8-38.5l-6-12.9c0.5-0.3,1-0.6,1.5-1c0,0,0.1,0,0.1-0.1l5.4,11.6L-89-189.7z M-49.2-188.5
				l-2.8,6c-0.2-0.3-0.4-0.6-0.6-0.9c0,0,0-0.1-0.1-0.1c-0.2-0.2-0.3-0.6-0.4-1.2l2.4-5.2L-49.2-188.5z M-112.8-51.6l17.8,38.5
				l17.8-38.5l-17.8-38.5L-112.8-51.6z M-57.1-13.2l17.8-38.5l-17.8-38.5L-75-51.6L-57.1-13.2z M-76-53.9l17.8-38.5L-76-130.8
				l-17.8,38.5L-76-53.9z M-94.9-94.6l17.8-38.5l-18-38.9l-17.8,38.5L-94.9-94.6z M-75-133l17.8,38.5l18-38.9l-17.8-38.5L-75-133z
				 M-56.1-92.3l17.8,38.5l18-38.9L-38-131.2L-56.1-92.3z"/>
			
				<linearGradient id="SVGID_9_" gradientUnits="userSpaceOnUse" x1="-208.4382" y1="267.2739" x2="-208.9099" y2="267.3444" gradientTransform="matrix(87.5936 0 0 -152.34 18181.7461 40648.1133)">
				<stop  offset="0" style="stop-color:#7EA6DC"/>
				<stop  offset="1" style="stop-color:#B6CEED"/>
			</linearGradient>
			<path class="st23" d="M-46.8,1.4C-66.9,6.3-92,3.8-122.2-6.2c2.9-16.2,1.3-41.1-4.7-74.9c-3.5-18.2-6-33.6-7.5-46.2l37.7-21.3
				c20.7,28.7,26.7,53,18,73c-13,30,20.5,26.5,13,54.5C-69.1-8.2-57.4-3.2-46.8,1.4L-46.8,1.4z"/>
		</g>
	</g>
	<g transform="translate(421.000000, 489.000000)">
		
			<linearGradient id="SVGID_10_" gradientUnits="userSpaceOnUse" x1="-477.5003" y1="141.0534" x2="-478.3384" y2="138.3055" gradientTransform="matrix(87 0 0 -111 41459.9219 15485.1924)">
			<stop  offset="0" style="stop-color:#F7FAFF"/>
			<stop  offset="1" style="stop-color:#6B9AD9"/>
		</linearGradient>
		<path class="st24" d="M-52.7-197.3c2.2,0,4,1.8,4,4v103c0,2.2-1.8,4-4,4h-79c-2.2,0-4-1.8-4-4v-83.4l23.5-23.6H-52.7z"/>
		<path class="st7" d="M-63.3-164.5c0.8,0,1.5,0.7,1.5,1.5s-0.7,1.5-1.5,1.5h-56c-0.8,0-1.5-0.7-1.5-1.5s0.7-1.5,1.5-1.5H-63.3z"/>
		<path class="st7" d="M-63.3-147.6c0.8,0,1.5,0.7,1.5,1.5s-0.7,1.5-1.5,1.5h-56c-0.8,0-1.5-0.7-1.5-1.5s0.7-1.5,1.5-1.5H-63.3z"/>
		<path class="st7" d="M-63.3-131.6c0.8,0,1.5,0.7,1.5,1.5s-0.7,1.5-1.5,1.5h-56c-0.8,0-1.5-0.7-1.5-1.5s0.7-1.5,1.5-1.5H-63.3z"/>
		<path class="st7" d="M-63.3-115.6c0.8,0,1.5,0.7,1.5,1.5c0,0.8-0.7,1.5-1.5,1.5h-56c-0.8,0-1.5-0.7-1.5-1.5c0-0.8,0.7-1.5,1.5-1.5
			H-63.3z"/>
		
			<linearGradient id="SVGID_11_" gradientUnits="userSpaceOnUse" x1="-480.051" y1="148.8597" x2="-480.051" y2="146.8168" gradientTransform="matrix(23.8072 0 0 -23.8072 11305.0908 3321.6091)">
			<stop  offset="0" style="stop-color:#FFFFFF"/>
			<stop  offset="1" style="stop-color:#B3CDEF"/>
		</linearGradient>
		<path class="st25" d="M-111.7-197.5v19.8c0,2.2-1.8,4-4,4h-19.8L-111.7-197.5z"/>
	</g>
	<g id="Box" transform="translate(952.000000, 523.000000)">
		
			<linearGradient id="Box-base_1_" gradientUnits="userSpaceOnUse" x1="-1009.0516" y1="108.6641" x2="-1009.4374" y2="107.1078" gradientTransform="matrix(48.6131 0 0 -77 48955.6211 8124)">
			<stop  offset="0" style="stop-color:#E5EDFF"/>
			<stop  offset="1" style="stop-color:#6B9AD9"/>
		</linearGradient>
		<polygon id="Box-base" class="st26" points="-135.7,-188.9 -87.1,-197.5 -87.1,-120.5 -135.7,-120.5 		"/>
		
			<linearGradient id="SVGID_12_" gradientUnits="userSpaceOnUse" x1="-1014.1774" y1="115.9143" x2="-1015.0155" y2="113.1664" gradientTransform="matrix(12.1533 0 0 -18.6083 12210.1006 1967.957)">
			<stop  offset="0" style="stop-color:#F7FAFF"/>
			<stop  offset="1" style="stop-color:#6B9AD9"/>
		</linearGradient>
		<polygon class="st27" points="-122.7,-191.1 -110.6,-193.2 -110.6,-175.3 -122.7,-174.6 		"/>
		
			<linearGradient id="SVGID_13_" gradientUnits="userSpaceOnUse" x1="-1008.8531" y1="108.6095" x2="-1009.1469" y2="106.2017" gradientTransform="matrix(62.056 0 0 -77 62557.2266 8124)">
			<stop  offset="0" style="stop-color:#F7FAFF"/>
			<stop  offset="1" style="stop-color:#6B9AD9"/>
		</linearGradient>
		<polygon class="st28" points="-25,-188.9 -25,-120.5 -87.1,-120.5 -87.1,-197.5 		"/>
	</g>
	<g transform="translate(830.000000, 523.000000)">
		
			<linearGradient id="SVGID_14_" gradientUnits="userSpaceOnUse" x1="-887.0516" y1="108.6641" x2="-887.4374" y2="107.1078" gradientTransform="matrix(48.6131 0 0 -77 43024.8203 8124)">
			<stop  offset="0" style="stop-color:#E5EDFF"/>
			<stop  offset="1" style="stop-color:#6B9AD9"/>
		</linearGradient>
		<polygon class="st29" points="-135.7,-188.9 -87.1,-197.5 -87.1,-120.5 -135.7,-120.5 		"/>
		
			<linearGradient id="SVGID_15_" gradientUnits="userSpaceOnUse" x1="-892.1774" y1="115.9143" x2="-893.0155" y2="113.1664" gradientTransform="matrix(12.1533 0 0 -18.6083 10727.4004 1967.957)">
			<stop  offset="0" style="stop-color:#F7FAFF"/>
			<stop  offset="1" style="stop-color:#6B9AD9"/>
		</linearGradient>
		<polygon class="st30" points="-122.7,-191.1 -110.6,-193.2 -110.6,-175.3 -122.7,-174.6 		"/>
		
			<linearGradient id="SVGID_16_" gradientUnits="userSpaceOnUse" x1="-886.8531" y1="108.6095" x2="-887.1469" y2="106.2017" gradientTransform="matrix(62.056 0 0 -77 54986.3906 8124)">
			<stop  offset="0" style="stop-color:#F7FAFF"/>
			<stop  offset="1" style="stop-color:#6B9AD9"/>
		</linearGradient>
		<polygon class="st31" points="-25,-188.9 -25,-120.5 -87.1,-120.5 -87.1,-197.5 		"/>
	</g>
	<g transform="translate(549.000000, 489.000000)">
		
			<linearGradient id="SVGID_17_" gradientUnits="userSpaceOnUse" x1="-605.5003" y1="141.0534" x2="-606.3384" y2="138.3055" gradientTransform="matrix(87 0 0 -111 52595.9219 15485.1924)">
			<stop  offset="0" style="stop-color:#F7FAFF"/>
			<stop  offset="1" style="stop-color:#6B9AD9"/>
		</linearGradient>
		<path class="st32" d="M-52.7-197.3c2.2,0,4,1.8,4,4v103c0,2.2-1.8,4-4,4h-79c-2.2,0-4-1.8-4-4v-83.4l23.5-23.6H-52.7z"/>
		<path class="st7" d="M-63.3-164.5c0.8,0,1.5,0.7,1.5,1.5s-0.7,1.5-1.5,1.5h-56c-0.8,0-1.5-0.7-1.5-1.5s0.7-1.5,1.5-1.5H-63.3z"/>
		<path class="st7" d="M-63.3-147.6c0.8,0,1.5,0.7,1.5,1.5s-0.7,1.5-1.5,1.5h-56c-0.8,0-1.5-0.7-1.5-1.5s0.7-1.5,1.5-1.5H-63.3z"/>
		<path class="st7" d="M-63.3-131.6c0.8,0,1.5,0.7,1.5,1.5s-0.7,1.5-1.5,1.5h-56c-0.8,0-1.5-0.7-1.5-1.5s0.7-1.5,1.5-1.5H-63.3z"/>
		<path class="st7" d="M-63.3-115.6c0.8,0,1.5,0.7,1.5,1.5c0,0.8-0.7,1.5-1.5,1.5h-56c-0.8,0-1.5-0.7-1.5-1.5c0-0.8,0.7-1.5,1.5-1.5
			H-63.3z"/>
		
			<linearGradient id="SVGID_18_" gradientUnits="userSpaceOnUse" x1="-608.051" y1="148.8597" x2="-608.051" y2="146.8168" gradientTransform="matrix(23.8072 0 0 -23.8072 14352.417 3321.6091)">
			<stop  offset="0" style="stop-color:#FFFFFF"/>
			<stop  offset="1" style="stop-color:#B3CDEF"/>
		</linearGradient>
		<path class="st33" d="M-111.7-197.5v19.8c0,2.2-1.8,4-4,4h-19.8L-111.7-197.5z"/>
	</g>
	<g id="Conveyor" transform="translate(324.000000, 410.000000)">
		<g id="Conveyor-base" transform="translate(0.000000, 190.000000)">
			
				<linearGradient id="SVGID_19_" gradientUnits="userSpaceOnUse" x1="-379.9538" y1="32.8785" x2="-379.9538" y2="29.7536" gradientTransform="matrix(304 0 0 -67 115527.2578 1915)">
				<stop  offset="0" style="stop-color:#95B7E5"/>
				<stop  offset="1" style="stop-color:#476DB1"/>
			</linearGradient>
			
				<linearGradient id="SVGID_20_" gradientUnits="userSpaceOnUse" x1="-379.9538" y1="31.4552" x2="-379.9538" y2="30.4552" gradientTransform="matrix(304 0 0 -67 115527.2578 1915)">
				<stop  offset="0" style="stop-color:#36558E"/>
				<stop  offset="1" style="stop-color:#233A67"/>
			</linearGradient>
			<path class="st34" d="M173.3-125.5v-67H-97.2c-18.5,0-33.5,15-33.5,33.5s15,33.5,33.5,33.5H173.3z"/>
			
				<linearGradient id="SVGID_21_" gradientUnits="userSpaceOnUse" x1="-379.9538" y1="32.8785" x2="-379.9538" y2="29.7536" gradientTransform="matrix(304 0 0 -67 115987.2578 1915)">
				<stop  offset="0" style="stop-color:#95B7E5"/>
				<stop  offset="1" style="stop-color:#476DB1"/>
			</linearGradient>
			
				<linearGradient id="SVGID_22_" gradientUnits="userSpaceOnUse" x1="-379.9538" y1="31.4552" x2="-379.9538" y2="30.4552" gradientTransform="matrix(304 0 0 -67 115987.2578 1915)">
				<stop  offset="0" style="stop-color:#36558E"/>
				<stop  offset="1" style="stop-color:#233A67"/>
			</linearGradient>
			<path class="st35" d="M329.3-192.5v67h270.5c18.5,0,33.5-15,33.5-33.5s-15-33.5-33.5-33.5H329.3z"/>
			
				<linearGradient id="SVGID_23_" gradientUnits="userSpaceOnUse" x1="-381.5697" y1="33.395" x2="-381.8036" y2="32.5345" gradientTransform="matrix(40 0 0 -40 15183.9346 1157.5)">
				<stop  offset="0" style="stop-color:#476DB1"/>
				<stop  offset="1" style="stop-color:#283F6F"/>
			</linearGradient>
			<circle class="st36" cx="-83.7" cy="-160.5" r="20"/>
			
				<linearGradient id="SVGID_24_" gradientUnits="userSpaceOnUse" x1="-381.5697" y1="33.395" x2="-381.8036" y2="32.5345" gradientTransform="matrix(40 0 0 -40 15263.9346 1157.5)">
				<stop  offset="0" style="stop-color:#476DB1"/>
				<stop  offset="1" style="stop-color:#283F6F"/>
			</linearGradient>
			<circle class="st37" cx="-3.7" cy="-160.5" r="20"/>
			
				<linearGradient id="SVGID_25_" gradientUnits="userSpaceOnUse" x1="-381.5697" y1="33.395" x2="-381.8036" y2="32.5345" gradientTransform="matrix(40 0 0 -40 15343.9346 1157.5)">
				<stop  offset="0" style="stop-color:#476DB1"/>
				<stop  offset="1" style="stop-color:#283F6F"/>
			</linearGradient>
			<circle class="st38" cx="76.3" cy="-160.5" r="20"/>
			
				<linearGradient id="SVGID_26_" gradientUnits="userSpaceOnUse" x1="-381.5697" y1="33.395" x2="-381.8036" y2="32.5345" gradientTransform="matrix(40 0 0 -40 15853.9346 1157.5)">
				<stop  offset="0" style="stop-color:#476DB1"/>
				<stop  offset="1" style="stop-color:#283F6F"/>
			</linearGradient>
			<path class="st39" d="M586.3-140.5c-11,0-20-9-20-20s9-20,20-20s20,9,20,20S597.4-140.5,586.3-140.5z"/>
			
				<linearGradient id="SVGID_27_" gradientUnits="userSpaceOnUse" x1="-381.5697" y1="33.395" x2="-381.8036" y2="32.5345" gradientTransform="matrix(40 0 0 -40 15773.9346 1157.5)">
				<stop  offset="0" style="stop-color:#476DB1"/>
				<stop  offset="1" style="stop-color:#283F6F"/>
			</linearGradient>
			<path class="st40" d="M506.3-140.5c-11,0-20-9-20-20s9-20,20-20s20,9,20,20S517.4-140.5,506.3-140.5z"/>
			
				<linearGradient id="SVGID_28_" gradientUnits="userSpaceOnUse" x1="-381.5697" y1="33.395" x2="-381.8036" y2="32.5345" gradientTransform="matrix(40 0 0 -40 15693.9346 1157.5)">
				<stop  offset="0" style="stop-color:#476DB1"/>
				<stop  offset="1" style="stop-color:#283F6F"/>
			</linearGradient>
			<path class="st41" d="M426.3-140.5c-11,0-20-9-20-20s9-20,20-20s20,9,20,20S437.4-140.5,426.3-140.5z"/>
		</g>
		
			<linearGradient id="SVGID_29_" gradientUnits="userSpaceOnUse" x1="-379.857" y1="219.1833" x2="-380.0909" y2="218.3227" gradientTransform="matrix(267 0 0 -267 101707.2109 58340)">
			<stop  offset="0" style="stop-color:#476DB1"/>
			<stop  offset="1" style="stop-color:#283F6F"/>
		</linearGradient>
		<path class="st42" d="M146.3-197.5h207c16.6,0,30,13.4,30,30v237h-267v-237C116.3-184.1,129.7-197.5,146.3-197.5z"/>
		<g transform="translate(290.000000, 52.000000)">
			<g id="Group-15" transform="translate(70.000000, 86.000000)">
				
					<linearGradient id="Rectangle-2-Copy-9_1_" gradientUnits="userSpaceOnUse" x1="-740.2214" y1="83.5232" x2="-741.0596" y2="80.7753" gradientTransform="matrix(130 0 0 -61 96169.0938 4911)">
					<stop  offset="0" style="stop-color:#F7FAFF"/>
					<stop  offset="1" style="stop-color:#6B9AD9"/>
				</linearGradient>
				
					<linearGradient id="Rectangle-2-Copy-9_2_" gradientUnits="userSpaceOnUse" x1="-740.306" y1="83.7459" x2="-740.306" y2="82.7459" gradientTransform="matrix(130 0 0 -61 96169.0938 4911)">
					<stop  offset="0" style="stop-color:#36558E"/>
					<stop  offset="1" style="stop-color:#233A67"/>
				</linearGradient>
				<polygon id="Rectangle-2-Copy-9" class="st43" points="-135.7,-197.5 -5.7,-197.5 -5.7,-136.5 -135.7,-136.5 				"/>
				<g id="Group-11" transform="translate(10.000000, 8.000000)">
					<path id="Rectangle-2-Copy-3" class="st44" d="M-83.7-196.5v9c0,0.6-1.1,1-2.4,1h-46.9c-1.3,0-2.4-0.4-2.4-1v-9
						c0-0.6,1.1-1,2.4-1h46.9C-84.8-197.5-83.7-197.1-83.7-196.5z"/>
					<path id="Rectangle-2-Copy-8" class="st44" d="M-76.7-162.5v9c0,0.6-0.9,1-2,1h-54.8c-1.1,0-2-0.4-2-1v-9c0-0.6,0.9-1,2-1h54.8
						C-77.6-163.5-76.7-163.1-76.7-162.5z"/>
					
						<linearGradient id="Rectangle-2-Copy-11_1_" gradientUnits="userSpaceOnUse" x1="-757.6035" y1="90.5035" x2="-757.69" y2="90.0035" gradientTransform="matrix(10 0 0 -11 7545.2158 832)">
						<stop  offset="0" style="stop-color:#3485F7"/>
						<stop  offset="1" style="stop-color:#1A57CF"/>
					</linearGradient>
					<path id="Rectangle-2-Copy-11" class="st45" d="M-26.7-162.5v9c0,0.6-0.2,1-0.3,1h-9.3c-0.2,0-0.3-0.4-0.3-1v-9
						c0-0.6,0.2-1,0.3-1h9.3C-26.8-163.5-26.7-163.1-26.7-162.5z"/>
					
						<linearGradient id="Rectangle-2-Copy-13_1_" gradientUnits="userSpaceOnUse" x1="-757.6035" y1="90.5035" x2="-757.69" y2="90.0035" gradientTransform="matrix(10 0 0 -11 7545.2158 798)">
						<stop  offset="0" style="stop-color:#3485F7"/>
						<stop  offset="1" style="stop-color:#1A57CF"/>
					</linearGradient>
					<path id="Rectangle-2-Copy-13" class="st46" d="M-26.7-196.5v9c0,0.6-0.2,1-0.3,1h-9.3c-0.2,0-0.3-0.4-0.3-1v-9
						c0-0.6,0.2-1,0.3-1h9.3C-26.8-197.5-26.7-197.1-26.7-196.5z"/>
					
						<linearGradient id="Rectangle-2-Copy-12_1_" gradientUnits="userSpaceOnUse" x1="-757.6035" y1="90.5035" x2="-757.69" y2="90.0035" gradientTransform="matrix(10 0 0 -11 7545.2158 814)">
						<stop  offset="0" style="stop-color:#3485F7"/>
						<stop  offset="1" style="stop-color:#1A57CF"/>
					</linearGradient>
					<path id="Rectangle-2-Copy-12" class="st47" d="M-26.7-180.5v9c0,0.6-0.2,1-0.3,1h-9.3c-0.2,0-0.3-0.4-0.3-1v-9
						c0-0.6,0.2-1,0.3-1h9.3C-26.8-181.5-26.7-181.1-26.7-180.5z"/>
					<path id="Rectangle-2-Copy-10" class="st44" d="M-65.7-179.5v9c0,0.6-0.8,1-1.8,1h-66.1c-1,0-1.8-0.4-1.8-1v-9
						c0-0.6,0.8-1,1.8-1h66.1C-66.5-180.5-65.7-180.1-65.7-179.5z"/>
				</g>
			</g>
			<g id="Group-12" transform="translate(70.000000, 2.000000)">
				
					<linearGradient id="SVGID_30_" gradientUnits="userSpaceOnUse" x1="-740.2214" y1="167.5232" x2="-741.0596" y2="164.7753" gradientTransform="matrix(130 0 0 -61 96169.0938 10035)">
					<stop  offset="0" style="stop-color:#F7FAFF"/>
					<stop  offset="1" style="stop-color:#6B9AD9"/>
				</linearGradient>
				
					<linearGradient id="SVGID_31_" gradientUnits="userSpaceOnUse" x1="-740.306" y1="167.7459" x2="-740.306" y2="166.7459" gradientTransform="matrix(130 0 0 -61 96169.0938 10035)">
					<stop  offset="0" style="stop-color:#36558E"/>
					<stop  offset="1" style="stop-color:#233A67"/>
				</linearGradient>
				<polygon class="st48" points="-135.7,-197.5 -5.7,-197.5 -5.7,-136.5 -135.7,-136.5 				"/>
				<path id="Path-51" class="st49" d="M-123.3-149.1c-0.2,0.2-0.6,0.2-0.8,0c-0.2-0.2-0.2-0.6,0-0.8l12.2-12.7
					c4.3-4.5,11.3-5.2,16.5-1.6c4.8,3.4,11.3,3.3,16.1-0.3l16.2-12.3c5.3-4,12.6-3.4,17.2,1.3c4.1,4.2,10.7,4.5,15.2,0.7l17.7-15.2
					c0.3-0.2,0.6-0.2,0.8,0.1c0.2,0.3,0.2,0.6-0.1,0.8L-30-173.8c-4.9,4.2-12.3,3.9-16.8-0.7c-4.2-4.3-10.9-4.8-15.7-1.2l-16.2,12.3
					c-5.1,3.9-12.2,4-17.5,0.3c-4.6-3.3-11-2.7-14.9,1.4L-123.3-149.1z"/>
				<path id="Path-51-Copy" class="st49" d="M-123.4-149c-0.3,0.2-0.7,0.1-0.8-0.2s-0.1-0.7,0.2-0.8l25.7-14
					c5.7-3.1,12.6-3.5,18.6-0.9c5.6,2.4,12.1,1.9,17.4-1.2l1.6-0.9c6-3.5,13.3-3.4,19.2,0.2c5.5,3.4,12.4,3.5,18.1,0.3L-12-173
					c0.3-0.2,0.7-0.1,0.8,0.2c0.2,0.3,0.1,0.7-0.2,0.8l-11.5,6.5c-6,3.4-13.4,3.3-19.3-0.3c-5.5-3.4-12.4-3.4-18-0.2l-1.6,0.9
					c-5.6,3.3-12.4,3.7-18.4,1.2c-5.7-2.4-12.1-2-17.5,0.9L-123.4-149z"/>
			</g>
			<g id="Group-14">
				
					<linearGradient id="Oval_1_" gradientUnits="userSpaceOnUse" x1="-672.3462" y1="172.4742" x2="-672.0449" y2="171.9189" gradientTransform="matrix(32 0 0 -32 21390.4102 5328.5)">
					<stop  offset="0" style="stop-color:#F59BA9"/>
					<stop  offset="1" style="stop-color:#F25267"/>
				</linearGradient>
				<circle id="Oval" class="st50" cx="-119.7" cy="-181.5" r="16"/>
				
					<linearGradient id="Oval-Copy_1_" gradientUnits="userSpaceOnUse" x1="-672.1906" y1="172.7963" x2="-672.1906" y2="171.6875" gradientTransform="matrix(32 0 0 -32 21390.4102 5384.5)">
					<stop  offset="0" style="stop-color:#FFE579"/>
					<stop  offset="1" style="stop-color:#FEB755"/>
				</linearGradient>
				<circle id="Oval-Copy" class="st51" cx="-119.7" cy="-125.5" r="16"/>
				
					<linearGradient id="Oval-Copy-2_1_" gradientUnits="userSpaceOnUse" x1="-672.226" y1="172.359" x2="-672.0531" y2="171.5204" gradientTransform="matrix(32 0 0 -32 21390.4102 5443.5)">
					<stop  offset="0" style="stop-color:#84F0A8"/>
					<stop  offset="1" style="stop-color:#48B676"/>
				</linearGradient>
				<circle id="Oval-Copy-2" class="st52" cx="-119.7" cy="-66.5" r="16"/>
			</g>
		</g>
		<path id="Combined-Shape" class="st53" d="M126.9,29.5h4.9v11h-4.9V29.5z M142.8,29.5h4.9v11h-4.9V29.5z M157.8,29.5h4.9v11h-4.9
			V29.5z M172.8,29.5h4.9v11h-4.9V29.5z M187.8,29.5h4.9v11h-4.9V29.5z M202.8,29.5h4.9v11h-4.9V29.5z M217.8,29.5h4.9v11h-4.9V29.5
			z M232.8,29.5h4.9v11h-4.9V29.5z M247.8,29.5h4.9v11h-4.9V29.5z M262.8,29.5h4.9v11h-4.9V29.5z M277.8,29.5h4.9v11h-4.9V29.5z
			 M292.8,29.5h4.9v11h-4.9V29.5z M307.8,29.5h4.9v11h-4.9V29.5z M322.8,29.5h4.9v11h-4.9V29.5z M337.8,29.5h4.9v11h-4.9V29.5z
			 M352.8,29.5h4.9v11h-4.9V29.5z M367.8,29.5h4.9v11h-4.9V29.5z"/>
		
			<linearGradient id="SVGID_32_" gradientUnits="userSpaceOnUse" x1="-379.8038" y1="221.816" x2="-379.8038" y2="218.9437" gradientTransform="matrix(707 0 0 -183.9908 268771.0938 40479.4844)">
			<stop  offset="0" style="stop-color:#476DB1"/>
			<stop  offset="1" style="stop-color:#283F6F"/>
		</linearGradient>
		<path class="st54" d="M510.3,98.5h-170v165h-22v-165h-160v165h-22v-165h-170v165h-22v-165h-38.5c-5.2,0-9.5-4.3-9.5-9.5
			s4.3-9.5,9.5-9.5h688c5.2,0,9.5,4.3,9.5,9.5s-4.3,9.5-9.5,9.5h-61.5v165h-22V98.5z"/>
		
			<linearGradient id="Rectangle_1_" gradientUnits="userSpaceOnUse" x1="-379.806" y1="238.1688" x2="-379.806" y2="233.2456" gradientTransform="matrix(693.6508 0 0 -11 263702.5 2670)">
			<stop  offset="0" style="stop-color:#476DB1"/>
			<stop  offset="1" style="stop-color:#283F6F"/>
		</linearGradient>
		<path id="Rectangle" class="st55" d="M-92.2,68.5h684c2.7,0,4.8,0.3,4.8,0.8v9.5c0,0.4-2.2,0.8-4.8,0.8h-684
			c-2.7,0-4.8-0.3-4.8-0.8v-9.5C-97,68.8-94.9,68.5-92.2,68.5z"/>
		<path class="st53" d="M108.3,40.5h283c1.1,0,2,0.9,2,2v25c0,1.1-0.9,2-2,2h-283c-1.1,0-2-0.9-2-2v-25
			C106.3,41.4,107.2,40.5,108.3,40.5z"/>
	</g>
	<g transform="translate(143.000000, 390.000000)">
		
			<linearGradient id="SVGID_33_" gradientUnits="userSpaceOnUse" x1="-199.7004" y1="241.0799" x2="-199.1434" y2="241.1329" gradientTransform="matrix(126.409 0 0 -63.4893 25178.1641 15240.5918)">
			<stop  offset="0" style="stop-color:#925948"/>
			<stop  offset="1" style="stop-color:#B06C57"/>
		</linearGradient>
		<path class="st56" d="M5.7-62.6c1.3-0.3,4.1-1.3,5-1.4c7.9-4.1,12.5-6.1,13.9-5.7c1.4,0.3,0.5,3-2.8,7.9
			c12.2-0.6,18.8-0.3,19.8,0.7c1.1,1-2.4,2.6-10.5,4.6c9.6,1.2,14.3,2.4,14,3.6s-5,2.6-14.1,4c7.7,2.5,11.1,4.1,10.3,5
			c-0.8,0.8-5.4,1.2-13.9,1.1c4.2,4,5.9,6.2,4.9,6.6c-1,0.5-9.1-3.5-22.4-10.8L-3-48.6c-12-0.5-48.3-8.8-77.1-23.5
			c-6.4-3.3,15.3-31.8,21.1-27C-47.4-89.5-23.6-76.8,5.7-62.6z"/>
		
			<linearGradient id="SVGID_34_" gradientUnits="userSpaceOnUse" x1="-199.5416" y1="240.1864" x2="-199.685" y2="238.6656" gradientTransform="matrix(87.2964 0 0 -132.4103 17333.0605 31580.9082)">
			<stop  offset="0" style="stop-color:#F7FAFF"/>
			<stop  offset="1" style="stop-color:#6B9AD9"/>
		</linearGradient>
		<path class="st57" d="M-84.3-166.8c4.6,32,8.1,38.6,14.4,55c1.1,2.8,3.4,5.9,7,9.3c0.5,0.4,2.5-1.9,3-1.5c2,1.8,4.8,2.5,7.5,4.5
			c12.1,8.9-5.2,39.5-26.7,34.3c-2.7-0.7-5.5-4.6-7.5-7.3c-0.4-0.5,1.1-2.4,0.5-2.7c-4.3-2.4-8.4-4.9-12.3-7.6
			c-33.5-23.2-45.8-94.3-31.3-107.9C-116.7-202.8-88.9-198.7-84.3-166.8z"/>
		
			<linearGradient id="SVGID_35_" gradientUnits="userSpaceOnUse" x1="-200.7065" y1="243.7155" x2="-200.8499" y2="242.1946" gradientTransform="matrix(38.312 0 0 -39.403 7624.8101 9491.6787)">
			<stop  offset="0" style="stop-color:#F7FAFF"/>
			<stop  offset="1" style="stop-color:#6B9AD9"/>
		</linearGradient>
		<path class="st58" d="M-62.7-102.4c0.6,0,2.4-1.9,2.9-1.5c2,1.8,4.8,2.5,7.5,4.5c12.1,8.9-5.2,39.5-26.7,34.3
			c-2.7-0.7-5.5-4.6-7.5-7.3c-0.3-0.4,0.6-1.8,0.7-2.4C-70-80.7-62.3-89.9-62.7-102.4z"/>
	</g>
	<g id="Girl" transform="translate(1121.000000, 346.000000)">
		
			<linearGradient id="SVGID_36_" gradientUnits="userSpaceOnUse" x1="-1177.7281" y1="283.1" x2="-1178.0787" y2="284.3327" gradientTransform="matrix(64.1674 0 0 -108.6532 75534.0234 30697.1035)">
			<stop  offset="0" style="stop-color:#092871"/>
			<stop  offset="1" style="stop-color:#1C4CB9"/>
		</linearGradient>
		<path class="st59" d="M-59.1-195.4c-15.5,4.3-23.6,14.3-24.2,29.7c-0.3,6.6,2.2,14,5.2,21.7c3.1,7.7-3.3,11.9-1.7,25.7
			c1.2,10.7,9.9,18.3,8.2,26.3c-0.4,1.9,25.3-8.4,23.4-6.4c-15.2,16.1-10.8,15.5,13.2-2c10.5-11.9,15.8-17.9,15.8-17.9
			s-0.8-13.8-2.3-41.4l-13.5-19.1L-59.1-195.4z"/>
		
			<linearGradient id="Jacket_1_" gradientUnits="userSpaceOnUse" x1="-1177.2386" y1="282.0762" x2="-1177.2024" y2="282.451" gradientTransform="matrix(158.4537 0 0 -236.4561 186476.0313 66933.3516)">
			<stop  offset="0" style="stop-color:#46C36F;stop-opacity:0"/>
			<stop  offset="1" style="stop-color:#399D62"/>
		</linearGradient>
		<path id="Jacket" class="st60" d="M-132.2,148.2c9.6,14.4,53,22.7,130.1,24.8h14.9c2.5-0.4,3.9-0.9,4-1.5s2.6-18.9,7.5-55
			l-112.5-180c-10.2,115.2-19.9,176.2-29,183.1C-132.3,131.1-137.3,140.6-132.2,148.2z"/>
		<g transform="translate(10.029845, 237.000000)">
			
				<linearGradient id="SVGID_37_" gradientUnits="userSpaceOnUse" x1="-1190.0439" y1="53.2109" x2="-1189.7831" y2="54.1534" gradientTransform="matrix(25.7965 0 0 -22.2252 30596.8027 1271.7788)">
				<stop  offset="0" style="stop-color:#FAD0BA"/>
				<stop  offset="1" style="stop-color:#F2A384"/>
			</linearGradient>
			<path class="st61" d="M-86,62.5l2.5,15.9c-3.1,4.2-6.8,6.3-11.3,6.3s-8.5-1.1-12-3.2l-2.5-17.4L-86,62.5z"/>
			
				<linearGradient id="SVGID_38_" gradientUnits="userSpaceOnUse" x1="-1190.0439" y1="53.2109" x2="-1189.7831" y2="54.1534" gradientTransform="matrix(25.7965 0 0 -22.2252 30674.5957 1271.7788)">
				<stop  offset="0" style="stop-color:#FAD0BA"/>
				<stop  offset="1" style="stop-color:#F2A384"/>
			</linearGradient>
			<path class="st62" d="M-8.2,62.5l2.5,15.9c-3.1,4.2-6.8,6.3-11.3,6.3s-8.5-1.1-12-3.2l-2.5-17.4L-8.2,62.5z"/>
			
				<linearGradient id="SVGID_39_" gradientUnits="userSpaceOnUse" x1="-1187.7045" y1="53.4759" x2="-1188.7045" y2="53.4759" gradientTransform="matrix(53.9069 0 0 -23.3603 64021.8555 1337.1313)">
				<stop  offset="0" style="stop-color:#2865C6"/>
				<stop  offset="1" style="stop-color:#10378A"/>
			</linearGradient>
			<path class="st63" d="M-5.6,76.2c1.9,0,1.9,6.6,2,11.5c0,1.8-0.3,4.6-1,8.3c-0.3,1.5-1.5,2.6-2.9,2.7c-30.5,1.1-49,1.1-49-0.1
				c-2.4-8.1-1.1-9,12.7-15.3c5.6-2.6,10.8-3.8,14.3-5.9c1.2-0.7,3.7,5.1,12,5.1S-7.5,76.2-5.6,76.2z"/>
			
				<linearGradient id="SVGID_40_" gradientUnits="userSpaceOnUse" x1="-1187.7045" y1="53.4759" x2="-1188.7045" y2="53.4759" gradientTransform="matrix(53.9069 0 0 -23.3603 63944.0547 1337.1313)">
				<stop  offset="0" style="stop-color:#2865C6"/>
				<stop  offset="1" style="stop-color:#10378A"/>
			</linearGradient>
			<path class="st64" d="M-83.4,76.2c1.9,0,1.9,6.6,2,11.5c0,1.8-0.3,4.6-1,8.3c-0.3,1.5-1.5,2.6-2.9,2.7c-30.5,1.1-49,1.1-49-0.1
				c-2.4-8.1-1.1-9,12.7-15.3c5.6-2.6,10.8-3.8,14.3-5.9c1.2-0.7,3.7,5.1,12,5.1S-85.3,76.2-83.4,76.2z"/>
			
				<linearGradient id="SVGID_41_" gradientUnits="userSpaceOnUse" x1="-1187.2382" y1="46.2424" x2="-1187.3246" y2="45.7424" gradientTransform="matrix(131.3194 0 0 -267.6939 155856.0938 12181.1328)">
				<stop  offset="0" style="stop-color:#3485F7"/>
				<stop  offset="1" style="stop-color:#1A57CF"/>
			</linearGradient>
			<path class="st65" d="M2.2-196.9c-0.8,17.4-0.8,27.2,0,29.2c1.1,3-5.5,40.9-20.1,113.5C-16.6,16.6-6.3,55.5-7.5,62.5
				C-9.4,73-31,73-33.7,65.4c-1.8-5.1-9-46.1-21.7-123.1l-2.2-60.4C-66.5-102.3-79-80.8-95-53.5c2.6,75.1,12.6,114.9,9.1,119.3
				c-3.1,3.9-23.4,6.7-24.6,0C-122.8,14-129-26-129-54.3c0-28.2,12.7-75.8,38.1-142.7H2.2z"/>
			
				<linearGradient id="SVGID_42_" gradientUnits="userSpaceOnUse" x1="-1188.8638" y1="47.877" x2="-1188.8115" y2="47.1185" gradientTransform="matrix(37.6732 0 0 -74.5448 44711.1211 3461.7419)">
				<stop  offset="0" style="stop-color:#1542AB"/>
				<stop  offset="1" style="stop-color:#2B68EE"/>
			</linearGradient>
			<path class="st66" d="M-95-53.5l-0.3-0.1l25.9-74.5c1.7,1.5,5.7,4.8,11.8,9.9C-66.5-102.4-79-80.8-95-53.5z"/>
			<path class="st67" d="M-16.6-159.7V60.9L-31.5-47.5c-0.8-5.9-0.7-11.8,0.2-17.6L-16.6-159.7z"/>
		</g>
		<g transform="translate(44.000000, 97.000000)">
			
				<linearGradient id="Path-5_1_" gradientUnits="userSpaceOnUse" x1="-1221.4365" y1="186.6884" x2="-1221.5438" y2="185.6884" gradientTransform="matrix(103.4745 0 0 -167.8221 126306.8906 31131.6602)">
				<stop  offset="0" style="stop-color:#FFFFFF"/>
				<stop  offset="1" style="stop-color:#E5EEFF"/>
			</linearGradient>
			<path id="Path-5" class="st68" d="M-106.1-192.2c11.7-1.7,24.9-3,39.4-5.1c26,10.5,28.7,18.9,34,25.1
				C-27.3-166-47-50.2-54.8-42.5c-11.4,11.1-28.7,15-49.6,12c-15.1-2.2-25.7-16.2-23.5-31.4c0-0.2,0.1-0.4,0.1-0.6
				c2.7-16.4,4.1-26.5,4.1-30.3c0-7.7-3.8-26.6-11.5-56.6l16.9-37.5L-106.1-192.2z"/>
			<g transform="translate(8.000000, 5.000000)">
				<path class="st69" d="M-131-170.1c6.3,2.3,14.2,3.5,23.6,3.5c14.1,0,32.8,4,42.4,1.5"/>
				<path class="st69" d="M-133.6-162.8c13.8,1.3,23,2,27.6,2c6.8,0,27.3,5.3,43.2,1.7"/>
				<path class="st69" d="M-136-155.2c9.7-0.6,21.1-0.2,34.2,1.3c13.1,1.5,27.5,2.1,43.2,1.7"/>
				<path class="st69" d="M-136.1-67.4c12.2,4.2,29,4.5,50.6,1.1"/>
				<path class="st69" d="M-135.8-61.6c9,4.4,23.9,5,44.7,1.6"/>
				<path class="st69" d="M-134.7-54.4c17.3,4.9,36.2,5.7,56.5,2.4"/>
				<path class="st69" d="M-129.1-44.4c22.5,1.9,41.8,1.3,58-1.9"/>
				<path class="st69" d="M-119.1-37.1c20.1,1.5,39-1.7,56.7-9.5"/>
				<path class="st69" d="M-127.2-180c0.1,4.1,3.7,6.1,10.8,6.1c10.7,0,22.1-0.9,34.9,2.4c8.5,2.2,22.3-0.1,41.3-6.9"/>
				<path class="st69" d="M-128.3-183.5c6.9,3.9,17.7,4.9,32.3,3c22-3,21,4.4,42.4,0"/>
				<path class="st69" d="M-124.8-187.3c6.9-0.1,13.3,0.4,19.1,1.6c8.7,1.8,26.3-3.1,41.7,0"/>
				<path class="st69" d="M-123.9-191.8c10.6-1.5,21.2-1.5,31.8,0c15.9,2.2,25-2.2,32,0"/>
				<path class="st69" d="M-119.1-195c28.2,0,45.8-0.6,52.8-1.8"/>
				<path class="st70" d="M-60.2,24.5c19,14.4,28.6,26,28.6,35"/>
			</g>
		</g>
		<g transform="translate(112.000000, 88.000000)">
			
				<linearGradient id="Jacket-base_1_" gradientUnits="userSpaceOnUse" x1="-1290.2714" y1="194.8949" x2="-1290.0985" y2="194.0563" gradientTransform="matrix(52.5255 0 0 -272 67659.5 52915)">
				<stop  offset="0" style="stop-color:#84F0A8"/>
				<stop  offset="1" style="stop-color:#48B676"/>
			</linearGradient>
			<path id="Jacket-base" class="st71" d="M-129.1-177.9l-2-9.1c23.9,12,37.2,12,43.4,25.5S-98.2-65-97-50.3
				c1.8,22.1,12.4,24.8,13.5,73.2c0.5,22.1-1.1,39.1-4.8,50.5c-0.7,2.1-1.7,4.4-3.1,6.9C-93,83.2-96,85-99.3,85h-4.4h4.3
				c1,0,1.9-0.4,2.7-1c1.6-1.5,1.8-4,0.3-5.6c-20.4-22.5-19.3-33.8-38.7-33.8c-4.7-23.1,16.5-66.4,4.1-108.2
				c-4.7-15.8-3.8-40.6,2.5-74.5C-126.1-151.3-126.3-164.8-129.1-177.9z"/>
			
				<linearGradient id="Shape_1_" gradientUnits="userSpaceOnUse" x1="-1289.9093" y1="195.4794" x2="-1290.348" y2="194.5066" gradientTransform="matrix(51.3982 0 0 -240.4449 66207.2188 46798.9102)">
				<stop  offset="0" style="stop-color:#84F0A8"/>
				<stop  offset="1" style="stop-color:#48B676"/>
			</linearGradient>
			<path id="Shape" class="st72" d="M-86.7-140.7c-1.4-0.5-2.7-1.4-3.8-2.7l-0.9-1.1c-0.3-0.4-0.6-0.7-1-1.1
				c-3.7-3.5-9.6-3.2-13,0.5c-0.3,0.3-0.5,0.6-0.8,0.8c-4,3.4-10.1,2.9-13.5-1.1l-0.8-1c-0.3-0.4-0.7-0.8-1.1-1.1
				c-1.6-1.3-3.6-2-5.5-2c0.4-5.2,0.3-10.3-0.1-15.5c3.8-1.7,8.4-0.1,10.3,3.7c0.2,0.5,0.5,0.9,0.8,1.3c2.8,3.6,7.9,4.3,11.6,1.5
				l5.5-4.2c0.4-0.3,0.9-0.6,1.4-0.8c3.8-1.8,8.2-0.1,10,3.6c0.2,0.4,0.4,0.7,0.6,1.1C-86.1-154.8-86.2-148.4-86.7-140.7z
				 M-91.2-101.2l-0.1-0.2c-0.3-0.4-0.6-0.7-1-1.1c-3.7-3.5-9.6-3.2-13,0.5c-0.3,0.3-0.5,0.6-0.8,0.8c-4,3.4-10.1,2.9-13.5-1.1
				l-0.8-1c-0.3-0.4-0.7-0.8-1.1-1.1c-3.5-2.9-8.6-2.6-11.8,0.5c0.4-4.6,0.9-9.5,1.6-14.6l2.8-2.3c0.5-0.4,0.9-0.7,1.5-1
				c3.9-2,8.7-0.4,10.7,3.5c0.2,0.5,0.5,0.9,0.8,1.3c2.8,3.6,7.9,4.3,11.6,1.5l5.5-4.2c0.4-0.3,0.9-0.6,1.4-0.8
				c3-1.4,6.5-0.7,8.7,1.6C-89.6-113-90.4-107.1-91.2-101.2L-91.2-101.2z M-96.4-61.7c-3.1-0.7-6.6,0.2-8.9,2.7
				c-0.3,0.3-0.5,0.6-0.8,0.8c-4,3.4-10.1,2.9-13.5-1.1l-0.8-1c-0.3-0.4-0.7-0.8-1.1-1.1c-2.7-2.2-6.2-2.6-9.2-1.3
				c-0.1-0.4-0.2-0.7-0.3-1.1c-0.9-3.1-1.6-6.7-2.1-10.5c0,0,0,0,0,0l4.2-3.4c0.5-0.4,0.9-0.7,1.5-1c3.9-2,8.7-0.4,10.7,3.5
				c0.2,0.5,0.5,0.9,0.8,1.3c2.8,3.6,7.9,4.3,11.6,1.5l5.5-4.2c0.4-0.3,0.9-0.6,1.4-0.8c1-0.5,2.1-0.7,3.2-0.7
				C-95.2-72-95.9-66.3-96.4-61.7z M-86.9-11.6c-1.4-0.5-2.6-1.4-3.6-2.7l-0.9-1.1c-0.3-0.4-0.6-0.7-1-1.1c-3.7-3.5-9.6-3.2-13,0.5
				c-0.3,0.3-0.5,0.6-0.8,0.8c-4,3.4-10.1,2.9-13.5-1.1l-0.8-1c-0.3-0.4-0.7-0.8-1.1-1.1c-1.8-1.5-4.1-2.2-6.3-2
				c0.5-5.1,0.8-10.3,0.7-15.5c3.8-1.7,8.4-0.1,10.3,3.7c0.2,0.5,0.5,0.9,0.8,1.3c2.8,3.6,7.9,4.3,11.6,1.5l5.5-4.2
				c0.4-0.3,0.9-0.6,1.4-0.8c1.2-0.6,2.4-0.8,3.6-0.7C-91.8-28.5-89-22.1-86.9-11.6z M-83.4,25.7c-2.1,0.3-4.1,1.4-5.6,3.1
				c-0.4,0.5-0.8,0.9-1.3,1.3c-3.7,2.9-9.1,2.3-12-1.4l-0.9-1.1c-0.3-0.4-0.6-0.7-1-1.1c-3.7-3.5-9.6-3.2-13,0.5
				c-0.3,0.3-0.5,0.6-0.8,0.8c-4,3.4-10.1,2.9-13.5-1.1l-0.8-1c-0.3-0.4-0.7-0.8-1.1-1.1c-0.5-0.4-0.9-0.7-1.4-1
				c0.7-5.1,1.7-10.6,2.8-16.3c1.4,0.7,2.6,1.9,3.4,3.5c0.2,0.5,0.5,0.9,0.8,1.3c2.8,3.6,7.9,4.3,11.6,1.5l5.5-4.2
				c0.4-0.3,0.9-0.6,1.4-0.8c3.8-1.8,8.2-0.1,10,3.6c0.3,0.5,0.6,1.1,1,1.5c2.6,3.1,7.1,3.5,10.2,1l4.2-3.4
				c0.2,3.6,0.4,7.4,0.5,11.6C-83.4,23.9-83.4,24.8-83.4,25.7z M-87,69.1c-3.2-0.6-6.6,0.4-8.8,3.1c-0.4,0.5-0.8,0.9-1.3,1.3
				c-0.7,0.6-1.5,1-2.4,1.3c-8.9-10.4-13.2-18.1-17.8-23.2c0.2-0.1,0.4-0.2,0.6-0.3c3.9-1.8,8.5-0.1,10.3,3.7c0.3,0.6,0.6,1.1,1,1.6
				c2.6,3.2,7.3,3.6,10.5,1l4.3-3.5c0.5-0.4,1-0.7,1.5-1c1.6-0.8,3.3-1,4.9-0.8C-84.9,58.7-85.8,64.3-87,69.1z"/>
			<path id="Path-62" class="st73" d="M-86.4,11.9c0.3,0.1,0.6,0.2,0.8,0.4c0.9,0.7,1,2,0.3,2.9l-1.4,1.7c-0.5,0.6-1.3,1-2.1,1.1
				l-15.1,1.2c-2.5,0.2-4.9-1.2-5.9-3.5l-7-15.1c-0.6-1.2-0.3-2.6,0.7-3.5l0.5-0.4c0,0,0,0,0,0c1.1-1,2.9-0.9,3.9,0.2l0,0
				c3.6,4.1,7.5,7.3,11.5,9.7C-96.1,8.9-91.6,10.6-86.4,11.9L-86.4,11.9z"/>
			<circle id="Oval-4" class="st74" cx="-105.7" cy="15.8" r="1.5"/>
			<path class="st73" d="M-125.2,34.5c-4.7-23.1,16.5-66.4,4.1-108.2c-4.2-14.4-0.1-32.4,3.5-59.2c0.1-1-4.8-4.5-4.6-5.5
				c0.3-2.1,6.6-3,6.9-5.1c1.5-11.1-2.1-24.2-4.4-35.2l-7.4-18.3"/>
		</g>
		<g transform="translate(61.000000, 0.000000)">
			
				<linearGradient id="Neck_1_" gradientUnits="userSpaceOnUse" x1="-1239.4791" y1="284.4237" x2="-1239.4027" y2="284.7202" gradientTransform="matrix(44.6154 0 0 -73.179 55194.1172 20720.9453)">
				<stop  offset="0" style="stop-color:#F5B79C"/>
				<stop  offset="1" style="stop-color:#EC906C"/>
			</linearGradient>
			<path id="Neck" class="st75" d="M-83.7-100.3C-105.2-82-119-74.5-125.1-77.6c-6.1-3.2-2.6-8.9,2.4-17.4l-0.7,0.3
				c2.3-2.5,5.7,0.3,9.6-4.9c2.8-3.6,2-13.6-2.2-30c21.4-18.3,31.3-24.3,29.7-18.1c-2.3,9.3-0.5,1-0.9,14.5
				C-87.4-124.5-86.3-113.5-83.7-100.3z"/>
			
				<linearGradient id="SVGID_43_" gradientUnits="userSpaceOnUse" x1="-1239.9208" y1="284.5329" x2="-1238.843" y2="285.3951" gradientTransform="matrix(56.6645 0 0 -64.6924 70106.1172 18301.5449)">
				<stop  offset="0" style="stop-color:#FAD0BA"/>
				<stop  offset="1" style="stop-color:#F2A384"/>
			</linearGradient>
			<path class="st76" d="M-132.5-141l-1.6-14.8c-2.6-6.1,3-12.7,5.6-11.6c10,4.6,24.1,3,32.6-4.7c-1.4,10.6-1.4,16.8,6.2,19
				c2.9-3,10.6-4.5,11,6.3c0.3,7.2-2.6,10.3-8.5,9.5l-1.5,12.2c-6.6,8.4-13.5,13.8-20.9,16.2c-6,1.9-10,2-11.9,0.4
				c-3.4-2.9-7-11.5-10.1-23.7c-2-0.5-3.7-1.1-3.7-3.5C-135.3-136.6-133.6-137.3-132.5-141z"/>
			
				<linearGradient id="SVGID_44_" gradientUnits="userSpaceOnUse" x1="-1250.5438" y1="288.4901" x2="-1249.5187" y2="289.8842" gradientTransform="matrix(6.63 0 0 -26.3487 8154.4136 7474.4761)">
				<stop  offset="0" style="stop-color:#F5B79C"/>
				<stop  offset="1" style="stop-color:#EC906C"/>
			</linearGradient>
			<path class="st77" d="M-134.1-155.8c-2-4.7,0.9-9.7,3.5-11.2c-0.1,1.6-0.8,4.2-0.1,8.1c0.9,4.7,2.8,4.5,2.5,7.8
				c-0.4,5-1.3,8.6-4.5,10.4c0.1-0.1,0.2-0.2,0.2-0.3L-134.1-155.8z"/>
			
				<linearGradient id="SVGID_45_" gradientUnits="userSpaceOnUse" x1="-1238.0958" y1="282.2599" x2="-1238.4463" y2="283.4926" gradientTransform="matrix(128.4858 0 0 -202.079 159037.7031 57087.9766)">
				<stop  offset="0" style="stop-color:#092871"/>
				<stop  offset="1" style="stop-color:#1C4CB9"/>
			</linearGradient>
			<path class="st78" d="M-132.2-180.5c0,12.4,6.5,20.1,19.5,23.2c19.5,4.6,19.1,7,14.9,18.6c-2.8,7.9-8.7,14.6-6.5,23.5
				s13.8,7.4,18.1,13c4.7,6.3,3.3,14.1,11,17c5.1,1.9,13.2,1.6,24.4-1.1c-0.1,48.4,3,76,9.4,82.7C-31.6,7-16,8-6.9-3.5
				s-4.3-23.1-4.3-32.3c0-12.6,4.7-22.1,0-36S-32-90.2-38.6-100.5c-6.6-10.3-4-12-6-26.7s-15.3-21.2-15.3-30.1
				c0-14,1.5-23.2-8.9-33.4s-25-2.7-34.7-5C-123.1-200.3-132.6-195.2-132.2-180.5z"/>
		</g>
		<g transform="translate(2.000000, 101.000000)">
			
				<linearGradient id="SVGID_46_" gradientUnits="userSpaceOnUse" x1="-1180.0264" y1="181.9539" x2="-1180.7771" y2="182.8539" gradientTransform="matrix(45.598 0 0 -139.7402 53826.7852 25389.3047)">
				<stop  offset="0" style="stop-color:#84F0A8;stop-opacity:0.324"/>
				<stop  offset="0.506" style="stop-color:#7AE69F;stop-opacity:0.5465"/>
				<stop  offset="1" style="stop-color:#71DE98;stop-opacity:0"/>
			</linearGradient>
			<path class="st79" d="M23.5-169C25.5-146,11.9-76.6,13-63.3c0.6,7.3,2.1,12.4,4,17.9c-5.7,5.4-14.3,10-35,13.6
				c1.5-14.5,1.4-29.8-3.1-44.9c-0.3-1-0.6-2-0.8-3.1C-10.3-97.2-0.2-118.3-0.2-142C-0.2-167.5,7.7-176.5,23.5-169L23.5-169z"/>
			
				<linearGradient id="SVGID_47_" gradientUnits="userSpaceOnUse" x1="-1179.8309" y1="181.9873" x2="-1179.6581" y2="181.1487" gradientTransform="matrix(72.3607 0 0 -242.743 85271.0469 44058.4727)">
				<stop  offset="0" style="stop-color:#84F0A8"/>
				<stop  offset="1" style="stop-color:#48B676"/>
			</linearGradient>
			<path class="st80" d="M-72-189.1c-5.8,15.6-9.4,25.5-10.7,29.6c-3.2,10-4.9,29.2-10,75.5c-2,18.1,0.8,44.8-1.4,65
				c-3.4,31.5,10,42.4,7.9,47.6c-2.9,7.1-33.7,0.6-49.1,16.7c-5-9.6,16.1-22.9,19.6-87.9c1.1-21.2,4.1-36.7,8.8-46.7
				c8.5-17.9,11.5-37.9,8.6-57.5c-2-13.4-1.3-23.5,2.2-30.5c9.8-20,25-19.2,26.7-19.8c1.9-0.7,5.8-0.7,5.7,1l-2.7,1.1
				C-69-193.8-71-191.7-72-189.1z"/>
			
				<linearGradient id="SVGID_48_" gradientUnits="userSpaceOnUse" x1="-1179.6642" y1="182.5271" x2="-1180.1029" y2="181.5543" gradientTransform="matrix(60.8985 0 0 -226.9824 71754.8359 41213.6914)">
				<stop  offset="0" style="stop-color:#84F0A8"/>
				<stop  offset="1" style="stop-color:#48B676"/>
			</linearGradient>
			<path class="st81" d="M-82.1-161.3c-0.1,0.1-0.3,0.2-0.4,0.3c-3.7,2.9-9.1,2.3-12-1.4l-0.9-1.1c-0.3-0.4-0.6-0.7-1-1.1
				c-0.8-0.8-1.8-1.4-2.8-1.8c0.5-4.2,1.4-7.8,2.9-10.8c0.8-1.6,1.6-3.1,2.5-4.5c0.9,0.7,1.6,1.6,2.2,2.7c0.3,0.5,0.6,1.1,1,1.5
				c2.6,3.1,7.1,3.5,10.2,1l4.2-3.4c0.3-0.3,0.6-0.5,1-0.7C-78.5-171.4-80.8-165-82.1-161.3z M-89.1-116.1c-2-0.3-3.9-1.4-5.3-3.1
				l-0.9-1.1c-0.3-0.4-0.6-0.7-1-1.1c-0.4-0.4-0.9-0.8-1.4-1.1c0.6-5.8,0.6-11.7,0.1-17.6c2.5,0.3,4.9,1.8,6,4.3
				c0.3,0.5,0.6,1.1,1,1.5c0.9,1.1,2,1.8,3.2,2.2C-87.9-127.4-88.5-122.1-89.1-116.1z M-93.3-75.1c-0.4-0.3-0.8-0.7-1.1-1.2
				l-0.9-1.1c-0.3-0.4-0.6-0.7-1-1.1c-3.7-3.5-9.6-3.2-13,0.5c-0.3,0.3-0.5,0.6-0.8,0.8c-0.4,0.3-0.8,0.6-1.1,0.8
				c1.2-5,2.7-9.3,4.4-12.9c0.8-1.7,1.5-3.3,2.2-5l1.8-1.4c0.4-0.3,0.9-0.6,1.4-0.8c3.7-1.7,8-0.2,9.8,3.3c-0.3,2.9-0.7,5.9-1,9.1
				C-93-81.2-93.2-78.2-93.3-75.1z M-93.3-32c-0.4-0.4-0.8-0.8-1.2-1.2l-0.9-1.1c-0.3-0.4-0.6-0.7-1-1.1c-3.7-3.5-9.6-3.2-13,0.5
				c-0.3,0.3-0.5,0.6-0.8,0.8c-1.8,1.6-4.1,2.3-6.3,2.3c0.3-3.4,0.6-6.9,0.8-10.7c0.1-1.5,0.2-2.9,0.3-4.3c2.3,0.6,4.9,0.1,7-1.5
				l5.5-4.2c0.4-0.3,0.9-0.6,1.4-0.8c2.8-1.3,6-0.7,8.2,1.2C-93.2-45.4-93.1-38.6-93.3-32z M-92.3,9.2c-0.2,0.2-0.4,0.4-0.6,0.7
				c-0.4,0.5-0.8,0.9-1.3,1.3c-3.7,2.9-9.1,2.3-12-1.4l-0.9-1.1c-0.3-0.4-0.6-0.7-1-1.1c-3.7-3.5-9.6-3.2-13,0.5
				c-0.3,0.3-0.5,0.6-0.8,0.8c-0.8,0.7-1.6,1.2-2.5,1.5c1.4-4.5,2.8-9.7,4.1-15.6c0,0,0.1-0.1,0.1-0.1l5.5-4.2
				c0.4-0.3,0.9-0.6,1.4-0.8c3.8-1.8,8.2-0.1,10,3.6c0.3,0.5,0.6,1.1,1,1.5c2,2.4,5.2,3.2,8,2.3C-94,1.7-93.3,5.7-92.3,9.2z
				 M-135.6,39.2c1.7-0.1,3.3-0.6,4.7-1.7l5.7-4.4c0.4-0.3,0.9-0.6,1.4-0.9c3.5-1.6,7.6-0.4,9.7,2.7c-7.7,1.6-15.5,4.5-21.2,10.5
				C-136.2,43.5-136.2,41.6-135.6,39.2z"/>
			<path class="st70" d="M-135.2,39.8c19.3-14,33.3-19.7,41.8-17.1L-135.2,39.8z"/>
			<path class="st73" d="M-73.1-195.7c-7.6,14.8-12.1,24.3-13.8,28.4c-3.3,8.3-6.7,28.9-11.9,75.3c-2,18.1,0.8,44.8-1.4,65
				c-3.4,31.5,10,42.4,7.9,47.6"/>
		</g>
		<g transform="translate(17.500000, 232.053208)">
			
				<linearGradient id="SVGID_49_" gradientUnits="userSpaceOnUse" x1="-1197.6812" y1="67.0598" x2="-1197.4204" y2="68.0022" gradientTransform="matrix(24.7116 0 0 -11.1222 29469.6172 562.5487)">
				<stop  offset="0" style="stop-color:#FAD0BA"/>
				<stop  offset="1" style="stop-color:#F2A384"/>
			</linearGradient>
			<path class="st82" d="M-133.1-192.4v-4.1h24.7v4.1c0,3.9-3.1,7-7,7h-10.7C-130-185.4-133.1-188.5-133.1-192.4z"/>
			
				<linearGradient id="SVGID_50_" gradientUnits="userSpaceOnUse" x1="-1201.6691" y1="83.7288" x2="-1201.3716" y2="84.9296" gradientTransform="matrix(11.1326 0 0 -5.7029 13243.8906 289.1629)">
				<stop  offset="0" style="stop-color:#F7B196"/>
				<stop  offset="1" style="stop-color:#EB9775"/>
			</linearGradient>
			<path class="st83" d="M-136.1-194.4v-2.1h11.1v2.1c0,2-1.6,3.6-3.6,3.6h-4C-134.5-190.8-136.1-192.4-136.1-194.4z"/>
		</g>
		<g transform="translate(0.304228, 144.094058)">
			
				<linearGradient id="SVGID_51_" gradientUnits="userSpaceOnUse" x1="-1178.1388" y1="141.2233" x2="-1178.5247" y2="139.667" gradientTransform="matrix(56 0 0 -89 65883.5234 12318.6289)">
				<stop  offset="0" style="stop-color:#E5EDFF"/>
				<stop  offset="1" style="stop-color:#6B9AD9"/>
			</linearGradient>
			<polygon class="st84" points="-136.2,-187.6 -80.2,-197.5 -80.2,-108.5 -136.2,-108.5 			"/>
			
				<linearGradient id="SVGID_52_" gradientUnits="userSpaceOnUse" x1="-1182.6133" y1="147.1799" x2="-1183.4514" y2="144.432" gradientTransform="matrix(14 0 0 -22 16443.7383 3050.4309)">
				<stop  offset="0" style="stop-color:#F7FAFF"/>
				<stop  offset="1" style="stop-color:#6B9AD9"/>
			</linearGradient>
			<polygon class="st85" points="-121.2,-190 -107.2,-192.5 -107.2,-171.3 -121.2,-170.5 			"/>
			
				<linearGradient id="SVGID_53_" gradientUnits="userSpaceOnUse" x1="-1177.9792" y1="141.1687" x2="-1178.2731" y2="138.761" gradientTransform="matrix(72 0 0 -89 84779.4375 12318.6289)">
				<stop  offset="0" style="stop-color:#F7FAFF"/>
				<stop  offset="1" style="stop-color:#6B9AD9"/>
			</linearGradient>
			<polygon class="st86" points="-8.2,-187.6 -8.2,-108.5 -80.2,-108.5 -80.2,-197.5 			"/>
		</g>
		<g transform="translate(67.000000, 111.000000)">
			
				<linearGradient id="SVGID_54_" gradientUnits="userSpaceOnUse" x1="-1244.626" y1="171.9375" x2="-1244.3558" y2="172.7614" gradientTransform="matrix(92.0611 0 0 -143.8518 114505.3906 24671.4941)">
				<stop  offset="0" style="stop-color:#7BE7A1"/>
				<stop  offset="1" style="stop-color:#84F0A8"/>
			</linearGradient>
			<path class="st87" d="M-109.4-81.5c32.4,3,40.7-3.6,45.1-19.8c6.5-24.3,0.6-69.6-2.6-84.4c-3.3-14.8,17.7-14.8,30.3-2.5
				S-10.9-80.1-52-60.3c-16.9,8.1-36,9.3-57.3,3.5c-3.5-0.9-6-3.8-6.5-7.4c-0.4-2.6-0.4-4.7-0.1-6.2
				C-115.1-74.3-112.9-77.9-109.4-81.5z"/>
			<path id="texture" class="st73" d="M-43.8-193.4c12.6,12.3,32.1,113.8-9.1,133.7"/>
			
				<g transform="translate(13.155688, 127.553208) scale(-1, 1) translate(-13.155688, -127.553208) translate(0.655688, 121.053208)">
				
					<linearGradient id="SVGID_55_" gradientUnits="userSpaceOnUse" x1="1266.3622" y1="67.0598" x2="1266.623" y2="68.0022" gradientTransform="matrix(-24.7116 0 0 -11.1222 31436.2168 562.5487)">
					<stop  offset="0" style="stop-color:#FAD0BA"/>
					<stop  offset="1" style="stop-color:#F2A384"/>
				</linearGradient>
				<path class="st88" d="M136.3-192.4v-4.1H161v4.1c0,3.9-3.1,7-7,7h-10.7C139.4-185.4,136.3-188.5,136.3-192.4z"/>
				
					<linearGradient id="SVGID_56_" gradientUnits="userSpaceOnUse" x1="1262.4525" y1="83.7288" x2="1262.75" y2="84.9296" gradientTransform="matrix(-11.1326 0 0 -5.7029 14192.9492 289.1629)">
					<stop  offset="0" style="stop-color:#F7B196"/>
					<stop  offset="1" style="stop-color:#EB9775"/>
				</linearGradient>
				<path class="st89" d="M136.3-194.4v-2.1h11.1v2.1c0,2-1.6,3.6-3.6,3.6h-4C137.9-190.8,136.3-192.4,136.3-194.4z"/>
			</g>
			
				<linearGradient id="SVGID_57_" gradientUnits="userSpaceOnUse" x1="-1244.2212" y1="173.1362" x2="-1244.66" y2="172.1634" gradientTransform="matrix(85.3828 0 0 -131.0142 106202.9609 22483.6797)">
				<stop  offset="0" style="stop-color:#84F0A8"/>
				<stop  offset="1" style="stop-color:#48B676"/>
			</linearGradient>
			<path class="st90" d="M-27.7-164.8c-1.3,0.5-2.5,1.4-3.5,2.5c-0.4,0.5-0.8,0.9-1.3,1.3c-3.7,2.9-9.1,2.3-12-1.4l-0.9-1.1
				c-0.3-0.4-0.6-0.7-1-1.1c-3.7-3.5-9.6-3.2-13,0.5c-0.3,0.3-0.5,0.6-0.8,0.8c-0.9,0.8-2,1.4-3.1,1.8c-0.6-5.3-1.3-10.2-1.9-14.4
				c2.3,0.5,4.7,0,6.7-1.5l5.5-4.2c0.4-0.3,0.9-0.6,1.4-0.8c3.8-1.8,8.2-0.1,10,3.6c0.3,0.5,0.6,1.1,1,1.5c2.5,3,6.8,3.5,9.9,1.2
				C-29.6-172.8-28.6-169-27.7-164.8z M-24.2-122.3c-2.6,0-5.2,1.1-6.9,3.2c-0.4,0.5-0.8,0.9-1.3,1.3c-3.7,2.9-9.1,2.3-12-1.4
				l-0.9-1.1c-0.3-0.4-0.6-0.7-1-1.1c-3.7-3.5-9.6-3.2-13,0.5c-0.3,0.3-0.5,0.6-0.8,0.8c-0.5,0.4-1,0.7-1.5,1
				c0.3-4.4,0.3-9.1,0.3-13.8c1-0.3,2-0.7,2.9-1.4l5.5-4.2c0.4-0.3,0.9-0.6,1.4-0.8c3.8-1.8,8.2-0.1,10,3.6c0.3,0.5,0.6,1.1,1,1.5
				c2.6,3.1,7.1,3.5,10.2,1l4.2-3.4c0.5-0.4,0.9-0.7,1.5-1c0.1-0.1,0.2-0.1,0.3-0.2C-24.1-132.7-24.1-127.5-24.2-122.3L-24.2-122.3z
				 M-36.9-73.1c-2.8,0.3-5.7-0.8-7.5-3.2l-0.9-1.1c-0.3-0.4-0.6-0.7-1-1.1c-3.7-3.5-9.6-3.2-13,0.5c-0.3,0.3-0.5,0.6-0.8,0.8
				c-4,3.4-10.1,2.9-13.5-1.1l-0.8-1c-0.3-0.4-0.7-0.8-1.1-1.1c-1.1-0.9-2.4-1.5-3.8-1.8c5.3-1.8,8.8-4.8,11.3-8.9
				c2.9,1.9,6.7,1.9,9.6-0.3l5.5-4.2c0.4-0.3,0.9-0.6,1.4-0.8c3.8-1.8,8.2-0.1,10,3.6c0.3,0.5,0.6,1.1,1,1.5c2.6,3.1,7.1,3.5,10.2,1
				l1.6-1.3C-30.7-84.7-33.4-78.4-36.9-73.1z M-86.6-80.5c-0.5,0.4-1,0.9-1.4,1.4c-0.4,0.4-0.8,0.9-1.2,1.2c-3.7,3-9.1,2.4-12.1-1.3
				l-0.7-0.9C-96-79.8-90.9-79.9-86.6-80.5z M-109.5-56c0.2-0.1,0.5-0.3,0.7-0.4c3.5-1.7,7.7-0.5,9.8,2.8c-3.4-0.6-6.8-1.4-10.3-2.3
				C-109.4-55.9-109.5-55.9-109.5-56z M-84.7-52.2l1.8-1.4c0.5-0.4,0.9-0.7,1.5-1c3.2-1.6,6.9-0.9,9.3,1.5
				C-76.3-52.5-80.5-52.2-84.7-52.2z"/>
		</g>
	</g>
	<g id="Picture" transform="translate(382.000000, 207.000000)">
		
			<linearGradient id="Picture-base_1_" gradientUnits="userSpaceOnUse" x1="-438.0547" y1="423.12" x2="-438.3486" y2="420.7122" gradientTransform="matrix(163 0 0 -183 71368.8828 77135)">
			<stop  offset="0" style="stop-color:#F7FAFF"/>
			<stop  offset="1" style="stop-color:#6B9AD9"/>
		</linearGradient>
		<polygon id="Picture-base" class="st91" points="-136.2,-197.5 26.8,-197.5 26.8,-14.5 -136.2,-14.5 		"/>
		<g transform="translate(13.000000, 12.000000)">
			<g>
				
					<linearGradient id="SVGID_58_" gradientUnits="userSpaceOnUse" x1="-451.19" y1="410.5148" x2="-452.0281" y2="407.7669" gradientTransform="matrix(137 0 0 -160 61756.9258 65520.5)">
					<stop  offset="0" style="stop-color:#F7FAFF"/>
					<stop  offset="1" style="stop-color:#6B9AD9"/>
				</linearGradient>
				<polygon class="st92" points="-136.2,-197.5 0.8,-197.5 0.8,-37.5 -136.2,-37.5 				"/>
			</g>
			<defs>
				<filter id="Adobe_OpacityMaskFilter" filterUnits="userSpaceOnUse" x="-144.2" y="-180.5" width="153" height="151">
					<feColorMatrix  type="matrix" values="1 0 0 0 0  0 1 0 0 0  0 0 1 0 0  0 0 0 1 0"/>
				</filter>
			</defs>
			<mask maskUnits="userSpaceOnUse" x="-144.2" y="-180.5" width="153" height="151" id="mask-35_1_">
				<g class="st93">
					<polygon id="path-34_1_" class="st94" points="-136.2,-197.5 0.8,-197.5 0.8,-37.5 -136.2,-37.5 					"/>
				</g>
			</mask>
			<g id="Group-19" class="st95">
				<g transform="translate(-8.000000, 17.000000)">
					
						<linearGradient id="Moon_1_" gradientUnits="userSpaceOnUse" x1="-445.7639" y1="400.958" x2="-446.0578" y2="398.5503" gradientTransform="matrix(25 0 0 -25 11131.5752 9813)">
						<stop  offset="0" style="stop-color:#F7FAFF"/>
						<stop  offset="1" style="stop-color:#6B9AD9"/>
					</linearGradient>
					<circle id="Moon" class="st96" cx="-15.7" cy="-185" r="12.5"/>
					
						<linearGradient id="Rocket-base_1_" gradientUnits="userSpaceOnUse" x1="-444.5954" y1="395.8636" x2="-444.5954" y2="393.8206" gradientTransform="matrix(42 0 0 -85.3206 18610.8164 33510.5039)">
						<stop  offset="0" style="stop-color:#FFFFFF"/>
						<stop  offset="1" style="stop-color:#B3CDEF"/>
					</linearGradient>
					<path id="Rocket-base" class="st97" d="M-62.2-175.8c7,0,14,28.4,21,85.3h-42C-76.2-147.4-69.2-175.8-62.2-175.8z"/>
					<path class="st98" d="M-51.2-130.7c-3.8,0.6-7.8-4.7-8.9-11.7c-1.1-7.1,1.1-13.3,4.9-13.9c3.8-0.6,7.8,4.7,8.9,11.7
						C-45.2-137.5-47.3-131.3-51.2-130.7z"/>
					
						<linearGradient id="SVGID_59_" gradientUnits="userSpaceOnUse" x1="-446.5446" y1="396.8157" x2="-446.9304" y2="395.2594" gradientTransform="matrix(19 0 0 -52.9289 8415.4326 20832.1055)">
						<stop  offset="0" style="stop-color:#E5EDFF"/>
						<stop  offset="1" style="stop-color:#6B9AD9"/>
					</linearGradient>
					<path class="st99" d="M-66.2-140.5v46.2c-12.7,9-19,9-19,0S-78.9-118.7-66.2-140.5z"/>
					
						<linearGradient id="SVGID_60_" gradientUnits="userSpaceOnUse" x1="-446.6427" y1="401.7345" x2="-447.0285" y2="400.1783" gradientTransform="matrix(19 0 0 -22.9289 8453.4316 9087.1055)">
						<stop  offset="0" style="stop-color:#E5EDFF"/>
						<stop  offset="1" style="stop-color:#6B9AD9"/>
					</linearGradient>
					<path class="st100" d="M-47.2-110.5c12.7,9.4,19,16.1,19,20s-6.3,3.9-19,0V-110.5z"/>
					
						<linearGradient id="Smoke_1_" gradientUnits="userSpaceOnUse" x1="-443.2135" y1="397.8513" x2="-443.2135" y2="395.9612" gradientTransform="matrix(153 0 0 -37 67751.9766 14637)">
						<stop  offset="0" style="stop-color:#F7FAFF"/>
						<stop  offset="1" style="stop-color:#FFFFFF"/>
					</linearGradient>
					<path id="Smoke" class="st101" d="M-71.8-56c-2.5,3.3-6.4,5.5-10.9,5.5c-4,0-7.6-1.8-10.1-4.6c-1.8,2.7-4.9,4.6-8.4,4.6
						c-3.4,0-6.4-1.7-8.2-4.2c-1.4,1.4-3.2,2.2-5.3,2.2c-2.2,0-4.2-1-5.6-2.5c-1.7,1.5-3.9,2.5-6.4,2.5c-5.2,0-9.5-4.3-9.5-9.5
						s4.3-9.5,9.5-9.5c3.6,0,6.7,2,8.3,5c1.1-0.6,2.3-1,3.7-1c1.9,0,3.6,0.7,4.9,1.8c1.7-2.9,4.9-4.8,8.6-4.8c2.2,0,4.2,0.7,5.8,1.9
						c1.9-5.2,6.9-8.9,12.7-8.9c2.1,0,4,0.5,5.8,1.3c1-4.2,4.8-7.3,9.2-7.3c3.8,0,7.1,2.2,8.6,5.5c1.7-1.5,3.9-2.5,6.4-2.5
						c3.5,0,6.6,1.9,8.3,4.8c2-1.1,4.3-1.8,6.7-1.8c5.8,0,10.8,3.7,12.7,8.9c1.6-1.2,3.6-1.9,5.8-1.9c3.6,0,6.8,1.9,8.6,4.8
						c1.3-1.1,3-1.8,4.9-1.8c1.6,0,3.2,0.5,4.4,1.4c1.5-3.2,4.8-5.4,8.6-5.4c5.2,0,9.5,4.3,9.5,9.5s-4.3,9.5-9.5,9.5
						c-2.8,0-5.2-1.2-7-3c-1.4,1.8-3.6,3-6,3c-2.1,0-4-0.9-5.3-2.2c-1.8,2.6-4.8,4.2-8.2,4.2c-3.5,0-6.6-1.8-8.4-4.6
						c-2.5,2.8-6.1,4.6-10.1,4.6c-4,0-7.7-1.8-10.1-4.6c-1.6,5-6.3,8.6-11.9,8.6C-65.6-46.5-70.5-50.5-71.8-56z"/>
				</g>
			</g>
		</g>
	</g>
	<g id="sticky-note" transform="translate(584.000000, 197.000000)">
		
			<linearGradient id="SVGID_61_" gradientUnits="userSpaceOnUse" x1="-641.1721" y1="434.6429" x2="-641.1721" y2="433.6429" gradientTransform="matrix(54 0 0 -63 34514.1016 27257)">
			<stop  offset="0" style="stop-color:#EBF2FB"/>
			<stop  offset="1" style="stop-color:#D2E1F5"/>
		</linearGradient>
		<path class="st102" d="M-133.2-122.5v57h48v-57H-133.2z M-82.2-125.5v63h-54v-63H-82.2z"/>
		
			<linearGradient id="SVGID_62_" gradientUnits="userSpaceOnUse" x1="-641.1747" y1="434.5773" x2="-642.0128" y2="431.8294" gradientTransform="matrix(51 0 0 -60 32615.0313 25891)">
			<stop  offset="0" style="stop-color:#F7FAFF"/>
			<stop  offset="1" style="stop-color:#6B9AD9"/>
		</linearGradient>
		<polygon class="st103" points="-114.7,-197 -63.7,-197 -63.7,-137 -114.7,-137 		"/>
		
			<linearGradient id="SVGID_63_" gradientUnits="userSpaceOnUse" x1="-641.3082" y1="435.2373" x2="-642.1463" y2="432.4894" gradientTransform="matrix(47 0 0 -50 30098.2695 21669)">
			<stop  offset="0" style="stop-color:#F7FAFF"/>
			<stop  offset="1" style="stop-color:#6B9AD9"/>
		</linearGradient>
		<polygon class="st104" points="-70.7,-104 -23.7,-104 -23.7,-54 -63.8,-54 -70.7,-60.2 		"/>
	</g>
</g>
</svg>
