<?xml version="1.0" encoding="utf-8"?>
<!-- Generator: Adobe Illustrator 23.0.2, SVG Export Plug-In . SVG Version: 6.00 Build 0)  -->
<svg version="1.1" id="Laag_1" xmlns="http://www.w3.org/2000/svg" xmlns:xlink="http://www.w3.org/1999/xlink" x="0px" y="0px"
	 width="1062.1px" height="728.5px" viewBox="0 0 1062.1 728.5" style="enable-background:new 0 0 1062.1 728.5;"
	 xml:space="preserve">
<style type="text/css">
	.st0{opacity:0.3;fill-rule:evenodd;clip-rule:evenodd;fill:#E2EBFC;enable-background:new    ;}
	.st1{opacity:0.2;fill-rule:evenodd;clip-rule:evenodd;fill:#E2EBFC;enable-background:new    ;}
	.st2{opacity:0.34;}
	.st3{fill-rule:evenodd;clip-rule:evenodd;fill:#E2EBFC;}
	.st4{fill:url(#Video-bas_1_);}
	.st5{fill:url(#SVGID_1_);}
	.st6{fill:#FFFFFF;}
	.st7{fill:url(#SVGID_2_);}
	.st8{fill:url(#like-base_1_);}
	.st9{fill:url(#Papper-base_1_);}
	.st10{fill:url(#SVGID_3_);}
	.st11{fill:url(#SVGID_4_);}
	.st12{fill:url(#File-base_1_);}
	.st13{opacity:0.5171;fill:#C5D7F3;enable-background:new    ;}
	.st14{fill:url(#SVGID_5_);}
	.st15{fill:url(#SVGID_6_);}
	.st16{fill:url(#Window-base_1_);}
	.st17{fill-rule:evenodd;clip-rule:evenodd;fill:url(#SVGID_7_);}
	.st18{fill:url(#SVGID_8_);}
	.st19{fill:url(#SVGID_9_);}
	.st20{fill:url(#SVGID_10_);}
	.st21{fill:url(#message-base_1_);}
	.st22{fill:url(#SVGID_11_);}
	.st23{fill:url(#SVGID_12_);}
	.st24{fill:url(#Folder-base_1_);}
	.st25{fill:url(#SVGID_13_);}
	.st26{fill:#A3C1EA;}
	.st27{fill:url(#Ipad-base_1_);}
	.st28{fill:url(#SVGID_14_);}
	.st29{fill:url(#SVGID_15_);}
	.st30{fill:url(#SVGID_16_);}
	.st31{fill:url(#Path-23_1_);}
	.st32{fill:url(#SVGID_17_);}
	.st33{fill:#6EDB96;}
	.st34{fill:url(#SVGID_18_);}
	.st35{fill-rule:evenodd;clip-rule:evenodd;fill:url(#Neck_1_);}
	.st36{fill-rule:evenodd;clip-rule:evenodd;fill:url(#Path_1_);}
	.st37{fill-rule:evenodd;clip-rule:evenodd;fill:url(#SVGID_19_);}
	.st38{fill-rule:evenodd;clip-rule:evenodd;fill:url(#Hair_1_);}
	.st39{fill-rule:evenodd;clip-rule:evenodd;fill:url(#Hairbands_1_);}
	.st40{fill-rule:evenodd;clip-rule:evenodd;fill:url(#SVGID_20_);}
	.st41{fill-rule:evenodd;clip-rule:evenodd;fill:url(#SVGID_21_);}
	.st42{fill-rule:evenodd;clip-rule:evenodd;fill:url(#SVGID_22_);}
	.st43{fill:url(#SVGID_23_);}
	.st44{fill:url(#leg_1_);}
	.st45{fill:url(#Shoes_1_);}
	.st46{fill:url(#Pants_1_);}
	.st47{fill:url(#SVGID_24_);}
	.st48{fill:url(#SVGID_25_);}
	.st49{fill:none;stroke:#1A57CF;stroke-linecap:round;stroke-linejoin:round;stroke-dasharray:5,10;}
	.st50{fill:url(#SVGID_26_);}
	.st51{fill:url(#Jacket-base_1_);}
	.st52{fill:#7DE9A2;}
	.st53{opacity:0.5;fill:#52C47D;enable-background:new    ;}
	.st54{fill:url(#SVGID_27_);}
	.st55{fill:none;stroke:#5FCC89;}
	.st56{fill-rule:evenodd;clip-rule:evenodd;fill:#5FCC89;}
	.st57{fill-rule:evenodd;clip-rule:evenodd;fill:#48C172;}
	.st58{fill:none;stroke:#48C172;stroke-linecap:round;stroke-linejoin:round;stroke-dasharray:5,10;}
	.st59{fill:url(#SVGID_28_);}
	.st60{fill:url(#Sleeve_1_);}
	.st61{opacity:0.3959;fill:url(#Shape_1_);enable-background:new    ;}
	.st62{fill:url(#Char-base_1_);}
	.st63{fill-rule:evenodd;clip-rule:evenodd;fill:url(#SVGID_29_);}
	.st64{fill:#F2F5FF;}
	.st65{fill:url(#SVGID_30_);}
</style>
<title>USING PRODUCT@2x</title>
<desc>Created with Sketch.</desc>
<g id="USING-PRODUCT">
	<g id="Background" transform="translate(188.000000, 147.000000)">
		<circle class="st0" cx="627.1" cy="100" r="247"/>
		<circle class="st1" cx="59" cy="261.9" r="247"/>
	</g>
	<g id="Shadow" transform="translate(392.000000, 848.000000)" class="st2">
		<ellipse class="st3" cx="102" cy="-133.5" rx="290.5" ry="14"/>
	</g>
	<g id="Video" transform="translate(247.000000, 286.000000)">
		
			<linearGradient id="Video-bas_1_" gradientUnits="userSpaceOnUse" x1="-355.694" y1="393.5844" x2="-356.5321" y2="390.8365" gradientTransform="matrix(153.9066 0 0 -153.9066 54645.207 60462.8711)">
			<stop  offset="0" style="stop-color:#F7FAFF"/>
			<stop  offset="1" style="stop-color:#6B9AD9"/>
		</linearGradient>
		<path id="Video-bas" class="st4" d="M-187.8-59.8l86.3-86.3c0.8-0.8,2-0.8,2.8,0l63.6,63.6c0.8,0.8,0.8,2,0,2.8l-86.3,86.3
			c-0.8,0.8-2,0.8-2.8,0L-187.8-57C-188.6-57.8-188.6-59-187.8-59.8z"/>
		
			<linearGradient id="SVGID_1_" gradientUnits="userSpaceOnUse" x1="-356.3879" y1="397.1175" x2="-357.5421" y2="395.6179" gradientTransform="matrix(46 0 0 -46 16316.791 18167.6133)">
			<stop  offset="0" style="stop-color:#E5EDFF"/>
			<stop  offset="1" style="stop-color:#6B9AD9"/>
		</linearGradient>
		<path class="st5" d="M-88.8-47.1c-9,9-23.5,9-32.5,0s-9-23.5,0-32.5s23.5-9,32.5,0S-79.9-56.1-88.8-47.1z"/>
		<path class="st6" d="M-111.8-67.1l11.6-3.6c1.1-0.3,2.2,0.3,2.5,1.3c0.1,0.4,0.1,0.8,0,1.2l-3.6,11.6c-0.3,1.1-1.4,1.6-2.5,1.3
			c-0.3-0.1-0.6-0.3-0.8-0.5l-8-8c-0.8-0.8-0.8-2,0-2.8C-112.4-66.9-112.2-67-111.8-67.1z"/>
		
			<linearGradient id="SVGID_2_" gradientUnits="userSpaceOnUse" x1="-355.4734" y1="394.8476" x2="-356.6276" y2="393.348" gradientTransform="matrix(97.4594 0 0 -97.4594 34563.6133 38306.1758)">
			<stop  offset="0" style="stop-color:#E5EDFF"/>
			<stop  offset="1" style="stop-color:#6B9AD9"/>
		</linearGradient>
		<path class="st7" d="M-187.8-59.8l86.3-86.3c0.8-0.8,2-0.8,2.8,0l7.8,7.8l-89.1,89.1l-7.8-7.8C-188.6-57.8-188.6-59-187.8-59.8z"
			/>
		<path class="st6" d="M-177.2-57.7c-0.8,0.8-2,0.8-2.8,0c-0.8-0.8-0.8-2,0-2.8c0.8-0.8,2-0.8,2.8,0
			C-176.5-59.7-176.5-58.5-177.2-57.7z"/>
		<path class="st6" d="M-172.3-62.6c-0.8,0.8-2,0.8-2.8,0s-0.8-2,0-2.8c0.8-0.8,2-0.8,2.8,0C-171.5-64.7-171.5-63.4-172.3-62.6z"/>
	</g>
	<g id="Like" transform="translate(260.000000, 499.000000)">
		
			<linearGradient id="like-base_1_" gradientUnits="userSpaceOnUse" x1="-369.5081" y1="181.7569" x2="-369.2068" y2="181.2017" gradientTransform="matrix(73.1423 0 0 -80.8289 26863.8945 14561.5557)">
			<stop  offset="0" style="stop-color:#F59BA9"/>
			<stop  offset="1" style="stop-color:#F25267"/>
		</linearGradient>
		<path id="like-base" class="st8" d="M-157-144.9c1.1-1.9,3.6-2.6,5.5-1.5l34.6,20c1.9,1.1,2.6,3.6,1.5,5.5l-9.4,18.4l8.7,5
			c0.5,0.3,0.8,0.7,0.9,1.3c0.3,1.1-0.4,2.2-1.5,2.4l-14.7,4.3l-14.6,21.4c-1.1,1.9-3.6,2.6-5.5,1.5l-34.6-20
			c-1.9-1.1-2.6-3.6-1.5-5.5L-157-144.9z"/>
		<path class="st6" d="M-157.5-109.4c-2.5-1.5-3.3-5-1.6-7.8c1.7-2.9,4.9-4.1,9.1-1.7c2.8,1.6,5.4,7.7,7.8,18.4
			c-10.4,3.2-17,4.1-19.8,2.4c-4.2-2.4-4.8-5.9-3.1-8.7C-163.4-109.7-160-110.9-157.5-109.4z"/>
	</g>
	<g id="Papper" transform="translate(382.000000, 658.000000)">
		
			<linearGradient id="Papper-base_1_" gradientUnits="userSpaceOnUse" x1="-490.909" y1="24.0601" x2="-491.6" y2="22.3348" gradientTransform="matrix(87.3063 0 0 -59.3734 42744.7109 1269.0485)">
			<stop  offset="0" style="stop-color:#F7FAFF"/>
			<stop  offset="1" style="stop-color:#6B9AD9"/>
		</linearGradient>
		<path id="Papper-base" class="st9" d="M-181.6-121.5c9.1-7.7,16.9-14,23.6-18.8c10-7.3,23-8,29.4-6.2c7.3,5.5,26.4,20.3,34.3,28
			c-4.6,0.9-8.8,0.9-14.9,2.5c-22.1,5.8-29.9,25.2-32.9,26.4c-5.5,2.3-3.2,1.2-6.5,1.7C-150.9-87.7-161.9-98.9-181.6-121.5z"/>
		
			<linearGradient id="SVGID_3_" gradientUnits="userSpaceOnUse" x1="-491.7451" y1="25.3106" x2="-492.337" y2="24.0225" gradientTransform="matrix(46.4317 0 0 -40.5111 22678.6309 900.5415)">
			<stop  offset="0" style="stop-color:#E5EDFF"/>
			<stop  offset="1" style="stop-color:#6B9AD9"/>
		</linearGradient>
		<path class="st10" d="M-180.3-128.8c-8.4,8.9-10,15-5,18.5c5.4,3.8,22.1,14.9,29.8,19.6c5,3.1,9.6,3.2,13.8,0.3
			c-5.5,2.3-9,1.3-10.6-2.9c-1.6-4.2,0.6-8.5,6.6-12.9L-180.3-128.8z"/>
	</g>
	
		<g transform="translate(782.000000, 761.500000) scale(-1, 1) rotate(-360.000000) translate(-782.000000, -761.500000) translate(737.500000, 731.000000)">
		
			<linearGradient id="SVGID_4_" gradientUnits="userSpaceOnUse" x1="933.7728" y1="-49.3657" x2="932.9346" y2="-52.1136" gradientTransform="matrix(-88.2522 0 0 -59.3741 82647.7734 -3064.7629)">
			<stop  offset="0" style="stop-color:#F7FAFF"/>
			<stop  offset="1" style="stop-color:#6B9AD9"/>
		</linearGradient>
		<path class="st11" d="M191.2-121.6c9.3-8,16.8-14.1,22.5-18.2c10-7.3,23-8,29.4-6.2c7.3,5.5,26.4,20.3,34.3,28
			c-4.6,0.9-8.8,0.9-14.9,2.5c-22.1,5.8-29.9,25.2-32.9,26.4c-5.5,2.3-3.2,1.2-6.5,1.7c-2,0.3-12.7-8.1-31.9-25.1
			c-2.5-2.2-2.7-6-0.5-8.5C190.8-121.3,191-121.5,191.2-121.6z"/>
	</g>
	<g id="File" transform="translate(873.000000, 631.000000)">
		
			<linearGradient id="File-base_1_" gradientUnits="userSpaceOnUse" x1="-981.5892" y1="48.4224" x2="-982.4278" y2="46.5923" gradientTransform="matrix(181.667 0 0 -172.3145 178245.0938 8239.6953)">
			<stop  offset="0" style="stop-color:#EEF3FF"/>
			<stop  offset="1" style="stop-color:#6B9AD9"/>
		</linearGradient>
		<path id="File-base" class="st12" d="M-6.4-88.7l-83.5-58.1c-22.1,49.2-54.9,84.3-98.2,105l71.4,67.3C-60.8,4.8-24-33.3-6.4-88.7z
			"/>
		<polygon class="st13" points="-147.5,-46.5 -154,-42.1 -100.9,1.8 -93,-2.5 		"/>
		<polygon class="st13" points="-91.9,-117.7 -29.3,-78.1 -33.5,-71.4 -95.9,-110.9 		"/>
		<polygon class="st13" points="-101.3,-101.5 -38.7,-61.9 -42.9,-55.1 -105.3,-94.6 		"/>
		<polygon class="st13" points="-80.6,-63.5 -49.1,-44 -53.4,-37.3 -84.6,-56.6 		"/>
		<path class="st13" d="M-110.1-88l20.4,15.4c-0.5,1.3-1.2,2.8-2.1,4.4c-3.9,7.6-9.5,14.2-16.2,19.4c-2.8,2.1-5.1,3.9-6.9,5.5
			l-20.9-16.5c1-0.6,2.2-1.3,3.4-2.1c8.7-5.5,15.8-13.2,20.6-22.3C-111.2-85.5-110.6-86.8-110.1-88z"/>
		<path class="st13" d="M-92.3-49.4L-64.1-27c-3.2,4.9-6.9,9-10.9,12.4c-4,3.4-8.2,5.8-12.7,7.4l-28.6-22.1c6-3.6,10.8-6.9,14.3-9.8
			C-98.5-42.1-95.2-45.5-92.3-49.4z"/>
	</g>
	<g transform="translate(539.000000, 658.000000)">
		
			<linearGradient id="SVGID_5_" gradientUnits="userSpaceOnUse" x1="-647.654" y1="21.542" x2="-648.4926" y2="19.7119" gradientTransform="matrix(149.4447 0 0 -154.3862 96696.2188 3218.7683)">
			<stop  offset="0" style="stop-color:#EEF3FF"/>
			<stop  offset="1" style="stop-color:#6B9AD9"/>
		</linearGradient>
		<path class="st14" d="M-187.9-102.5c0-18.3,3.1-33.3,9.4-44.9c23.4,31.2,48.2,45.4,74.3,42.4c0.8,23.4-17.4,98.4,65.7,112
			c-16.3,0-30.8-3.1-43.7-9.4c-41.1-17.5-68.7-33.3-82.7-47.6C-178.9-64.3-186.6-81.8-187.9-102.5z"/>
		
			<linearGradient id="SVGID_6_" gradientUnits="userSpaceOnUse" x1="-647.5797" y1="22.2149" x2="-648.1716" y2="20.9268" gradientTransform="matrix(155.4006 0 0 -111.7225 100553.8359 2385.7371)">
			<stop  offset="0" style="stop-color:#E5EDFF"/>
			<stop  offset="1" style="stop-color:#6B9AD9"/>
		</linearGradient>
		<path class="st15" d="M-188.3-104.9c3.9,40.9,26.2,52.4,66.9,34.3C-107.3-25.8-77.8,0-32.9,6.8c-46.5-0.8-83.4-11-110.7-30.6
			S-185.8-70.5-188.3-104.9z"/>
	</g>
	<g id="Window-Tab" transform="translate(1013.000000, 352.000000)">
		
			<linearGradient id="Window-base_1_" gradientUnits="userSpaceOnUse" x1="-1122.2219" y1="327.929" x2="-1123.0601" y2="325.1811" gradientTransform="matrix(75.7273 0 0 -121.1967 84839.1797 39624.0859)">
			<stop  offset="0" style="stop-color:#F7FAFF"/>
			<stop  offset="1" style="stop-color:#6B9AD9"/>
		</linearGradient>
		<path id="Window-base" class="st16" d="M-141.2-25.9c-1.7-14.2-8.2-27-17.8-36.6c-3.4-4-7.9-7.5-13.7-10.4
			c-4.9-2.8-10.2-4.9-15.8-6.2c0.2-6.4,4.6-37.1,9.2-68c83.8,11.8,67.2,90.7,60.9,102.7C-121.3-39-128.9-32.9-141.2-25.9z"/>
		
			<linearGradient id="SVGID_7_" gradientUnits="userSpaceOnUse" x1="-1122.7738" y1="328.6249" x2="-1121.621" y2="327.4255" gradientTransform="matrix(69.7252 0 0 -96.989 78113.875 31719.6465)">
			<stop  offset="0" style="stop-color:#E5EDFF"/>
			<stop  offset="1" style="stop-color:#6B9AD9"/>
		</linearGradient>
		<path class="st17" d="M-179.4-147.3c38.7,5.2,68.2,31.2,68.2,62.4c0,12.8-4.9,24.6-13.3,34.6c4.2-7.6,6.5-15.9,6.5-24.7
			c0-29.8-26.8-54.8-62.9-61.6L-179.4-147.3z"/>
		
			<linearGradient id="SVGID_8_" gradientUnits="userSpaceOnUse" x1="-1136.6488" y1="366.4131" x2="-1137.803" y2="364.9135" gradientTransform="matrix(5 0 0 -5 5513.8945 1688.1235)">
			<stop  offset="0" style="stop-color:#E5EDFF"/>
			<stop  offset="1" style="stop-color:#6B9AD9"/>
		</linearGradient>
		<circle class="st18" cx="-172.4" cy="-140" r="2.5"/>
		
			<linearGradient id="SVGID_9_" gradientUnits="userSpaceOnUse" x1="-1136.6488" y1="366.4131" x2="-1137.803" y2="364.9135" gradientTransform="matrix(5 0 0 -5 5522.4966 1690.5686)">
			<stop  offset="0" style="stop-color:#E5EDFF"/>
			<stop  offset="1" style="stop-color:#6B9AD9"/>
		</linearGradient>
		<circle class="st19" cx="-163.8" cy="-137.5" r="2.5"/>
		
			<linearGradient id="SVGID_10_" gradientUnits="userSpaceOnUse" x1="-1121.9156" y1="328.5717" x2="-1123.0698" y2="327.0721" gradientTransform="matrix(65.9052 0 0 -115.2642 73830.625 37764.9297)">
			<stop  offset="0" style="stop-color:#E5EDFF"/>
			<stop  offset="1" style="stop-color:#6B9AD9"/>
		</linearGradient>
		<path class="st20" d="M-179.1-22.4c31.4-4.3,56.6-22.3,64.9-45.6c0.6-0.7,1-1.1,1-1.1c0,67.5-22,105.9-65.9,115.3V-22.4z"/>
	</g>
	<g id="message" transform="translate(466.500000, 264.000000)">
		
			<linearGradient id="message-base_1_" gradientUnits="userSpaceOnUse" x1="-575.4954" y1="416.3231" x2="-575.4429" y2="415.5066" gradientTransform="matrix(113.5364 0 0 -109.7234 65204.8359 45534.1055)">
			<stop  offset="0" style="stop-color:#FFE579"/>
			<stop  offset="1" style="stop-color:#FEC644"/>
		</linearGradient>
		<path id="message-base" class="st21" d="M-144-145.8l68.4,55.4c1.3,1,1.5,2.9,0.4,4.2l-39.1,48.3c-1,1.3-2.9,1.5-4.2,0.4
			l-68.4-55.4c-1.3-1-1.5-2.9-0.4-4.2l39.1-48.3C-147.1-146.7-145.2-146.9-144-145.8z"/>
		
			<linearGradient id="SVGID_11_" gradientUnits="userSpaceOnUse" x1="-575.8003" y1="418.7753" x2="-575.9107" y2="416.7456" gradientTransform="matrix(71.0272 0 0 -61.4225 40752.3281 25560.582)">
			<stop  offset="0" style="stop-color:#FFEDBF"/>
			<stop  offset="1" style="stop-color:#FEC644"/>
		</linearGradient>
		<path class="st22" d="M-186.3-93c-0.2-0.2-0.4-0.4-0.4-0.7c0-0.6,0.4-1,0.9-1.1l57.8-3.5c1.5-0.1,2.9,1,3.1,2.5l9.2,57.7
			c0,0.3,0,0.6-0.2,0.8c-0.3,0.4-1,0.5-1.4,0.1L-186.3-93z"/>
		
			<linearGradient id="SVGID_12_" gradientUnits="userSpaceOnUse" x1="-575.8814" y1="417.7163" x2="-575.8814" y2="416.6076" gradientTransform="matrix(71.2622 0 0 -64.1403 40928.1836 26639.084)">
			<stop  offset="0" style="stop-color:#FFE579"/>
			<stop  offset="1" style="stop-color:#FEB755"/>
		</linearGradient>
		<path class="st23" d="M-144.4-146.2l69.3,56.1c0.4,0.3,0.5,1,0.1,1.4c-0.2,0.2-0.4,0.3-0.7,0.4l-60.2,6c-1.6,0.2-3.1-1-3.3-2.6
			l-6.9-60.4c-0.1-0.5,0.3-1,0.9-1.1C-144.9-146.4-144.6-146.3-144.4-146.2z"/>
	</g>
	<g id="Folder" transform="translate(731.000000, 290.000000)">
		
			<linearGradient id="Folder-base_1_" gradientUnits="userSpaceOnUse" x1="-839.2935" y1="390.5571" x2="-840.4477" y2="389.0575" gradientTransform="matrix(123.4919 0 0 -113.3758 103595.6406 44104.8008)">
			<stop  offset="0" style="stop-color:#E5EDFF"/>
			<stop  offset="1" style="stop-color:#6B9AD9"/>
		</linearGradient>
		<path id="Folder-base" class="st24" d="M-187-74.3C-187-74.4-187-74.4-187-74.3c-0.9-0.7-1-2-0.3-2.8l13-16.2
			c0.7-0.8,1.8-1,2.7-0.4l4.6,3.1c0.8,0.5,1.8,0.4,2.5-0.2l55.4-50.7c0,0,0,0,0,0c0.8-0.7,2.1-0.6,2.8,0.2L-64.8-94
			c0.7,0.8,0.7,2-0.1,2.7l-62.6,62c-0.7,0.7-1.9,0.8-2.7,0.1L-187-74.3z"/>
		
			<linearGradient id="SVGID_13_" gradientUnits="userSpaceOnUse" x1="-839.9437" y1="389.9664" x2="-840.7818" y2="387.2185" gradientTransform="matrix(102.5457 0 0 -118.4381 86027.6563 46066.7344)">
			<stop  offset="0" style="stop-color:#F7FAFF"/>
			<stop  offset="1" style="stop-color:#6B9AD9"/>
		</linearGradient>
		<path class="st25" d="M-130.4-29.2l-35.1-43.3c-0.7-0.8-0.6-2,0.2-2.7l72.8-71.1c0.8-0.8,2.1-0.8,2.8,0c0.1,0.2,0.3,0.3,0.4,0.5
			l25.8,52.4c0.4,0.8,0.2,1.7-0.4,2.3l-63.4,62c-0.8,0.8-2.1,0.8-2.8,0C-130.4-29.1-130.4-29.2-130.4-29.2z"/>
		<polygon class="st26" points="-128.9,-35.8 -130.9,-37.9 -112.1,-55.8 -110.5,-53.4 		"/>
	</g>
	<g id="Girl" transform="translate(391.000000, 372.000000)">
		<g id="Ipad" transform="translate(274.000000, 84.000000)">
			
				<linearGradient id="Ipad-base_1_" gradientUnits="userSpaceOnUse" x1="-774.9229" y1="224.6209" x2="-774.8706" y2="223.8624" gradientTransform="matrix(48.6792 0 0 -83.2128 37561.6641 18568.0039)">
				<stop  offset="0" style="stop-color:#1542AB"/>
				<stop  offset="1" style="stop-color:#2B68EE"/>
			</linearGradient>
			<path id="Ipad-base" class="st27" d="M-183.2-131.9l27.5-14.7h4c1,0,1.8,0.7,2,1.6l14.2,77.9c0.2,1.1-0.5,2.1-1.6,2.3
				c-0.1,0-0.2,0-0.3,0l-32.9,1.3c-1,0-1.9-0.7-2-1.6l-11.8-64.8C-184.4-130.6-184-131.5-183.2-131.9z"/>
			
				<linearGradient id="SVGID_14_" gradientUnits="userSpaceOnUse" x1="-774.8029" y1="224.8485" x2="-774.8894" y2="224.3485" gradientTransform="matrix(48.7066 0 0 -85.1114 37578.875 18990.4805)">
				<stop  offset="0" style="stop-color:#3485F7"/>
				<stop  offset="1" style="stop-color:#1A57CF"/>
			</linearGradient>
			<path class="st28" d="M-187.1-131.9l30.9-14.5c1-0.5,2.2,0,2.7,1c0.1,0.2,0.1,0.3,0.2,0.5l13.8,78c0.2,1.1-0.5,2.1-1.6,2.3
				c-0.1,0-0.1,0-0.2,0l-33,3.1c-1,0.1-2-0.6-2.2-1.6l-11.7-66.6C-188.4-130.6-188-131.5-187.1-131.9z"/>
			
				<linearGradient id="SVGID_15_" gradientUnits="userSpaceOnUse" x1="-775.1091" y1="225.1605" x2="-775.9472" y2="222.4126" gradientTransform="matrix(40.9344 0 0 -69.0265 31568.707 15420.3379)">
				<stop  offset="0" style="stop-color:#F7FAFF"/>
				<stop  offset="1" style="stop-color:#6B9AD9"/>
			</linearGradient>
			<path class="st29" d="M-184.1-124.9l27.6-12.5c0.5-0.2,1.1,0,1.3,0.5c0,0.1,0.1,0.2,0.1,0.2l11.3,64.1c0.1,0.5-0.3,1.1-0.8,1.2
				c0,0-0.1,0-0.1,0l-29.3,2.9c-0.5,0.1-1-0.3-1.1-0.8l-9.6-54.5C-184.7-124.2-184.5-124.7-184.1-124.9z"/>
		</g>
		<g id="Hand" transform="translate(253.000000, 133.000000)">
			
				<linearGradient id="SVGID_16_" gradientUnits="userSpaceOnUse" x1="-754.3956" y1="176.7736" x2="-755.0854" y2="176.7736" gradientTransform="matrix(29.5273 0 0 -52.7575 22124.668 9205.377)">
				<stop  offset="0" style="stop-color:#FAD0BA"/>
				<stop  offset="1" style="stop-color:#F2A384"/>
			</linearGradient>
			<path class="st30" d="M-168-94.4l-14.3-1.9c5.9-10.1,9.7-19.3,11.4-27.5c1.8-4.9-0.4-6,1.4-13.1c1-4,2.9-9.1,7.8-10.3
				c0.6,4.3,1.2,6.8,1.8,10.3c0.6,3.5,2.2-4.5,6.1-3.5c3.9,1-3.8,8.7-3.8,11.9c0,5.2-1.2,8.6-3.5,10.3L-168-94.4z"/>
			
				<linearGradient id="Path-23_1_" gradientUnits="userSpaceOnUse" x1="-755.1177" y1="179.6073" x2="-755.1177" y2="178.9285" gradientTransform="matrix(27.9823 0 0 -30.8992 20955.2734 5443.9058)">
				<stop  offset="0" style="stop-color:#84F0A8"/>
				<stop  offset="1" style="stop-color:#48B676"/>
			</linearGradient>
			<path id="Path-23" class="st31" d="M-187-95.7c8.4-11.1,12.6-17.4,12.6-18.8c0-2.1,13.8-2,13.8,2.7c0,4.7-5.3,23.7-7.8,25.3
				c-1.7,1.1-8.4,1.6-20.2,1.6L-187-95.7z"/>
		</g>
		<g id="Jacket" transform="translate(261.000000, 125.000000)">
			
				<linearGradient id="SVGID_17_" gradientUnits="userSpaceOnUse" x1="-760.7792" y1="182.8441" x2="-760.7792" y2="182.1653" gradientTransform="matrix(153.7228 0 0 -120.3904 116843.1953 21904.7871)">
				<stop  offset="0" style="stop-color:#84F0A8"/>
				<stop  offset="1" style="stop-color:#48B676"/>
			</linearGradient>
			<path class="st32" d="M-182.8-81.5c41,0,66.6-8.1,76.8-24.3c15.4-24.2,9.2-36.1,20.8-40.2c11.6-4.1,27.8,12.9,32.7,21.3
				c3.3,5.6,11.1,38.4,23.4,98.4l-142-18.2L-182.8-81.5z"/>
			<path id="Texture" class="st33" d="M-92.6-117.8l1.8,6.8c0.4,1.6-0.5,3.2-2.1,3.7s-3.2-0.5-3.7-2.1l-1.8-6.8
				c-0.8,0.1-1.3,0.3-1.7,0.5c-0.8,0.4,4.7-12.8,4.7-12.4c0,1.2,0.4,2.7,1.2,4.6l6.8-1.8c1.6-0.4,3.2,0.5,3.7,2.1
				c0.4,1.6-0.5,3.2-2.1,3.7L-92.6-117.8z"/>
			
				<linearGradient id="SVGID_18_" gradientUnits="userSpaceOnUse" x1="-760.8475" y1="182.7991" x2="-760.7408" y2="182.3024" gradientTransform="matrix(159.4158 0 0 -148.4042 121168.5156 26991.8477)">
				<stop  offset="0" style="stop-color:#46C36F;stop-opacity:0"/>
				<stop  offset="1" style="stop-color:#4DBB7A"/>
			</linearGradient>
			<path class="st34" d="M-188.4-75.7c49.3-3,80.7-11.4,94.3-25.3c9.1-9.3,13.8-12.8,13.9-23s-12.2-13.2-4.8-19.1
				c11.2-8.9,44,24,47.2,29.4c3.3,5.6,6.2,44.7,8.8,117.4l-142-18.2L-188.4-75.7z"/>
		</g>
		<g id="Head" transform="translate(0.500000, 11.000000)">
			
				<linearGradient id="Neck_1_" gradientUnits="userSpaceOnUse" x1="-500.5339" y1="298.5037" x2="-501.2238" y2="298.5037" gradientTransform="matrix(59.3624 0 0 -56.8464 29764.7949 17000.957)">
				<stop  offset="0" style="stop-color:#FAD0BA"/>
				<stop  offset="1" style="stop-color:#F2A384"/>
			</linearGradient>
			<path id="Neck" class="st35" d="M35.6,28.1c-6.8-3.3-12.4-9-16.9-17.3C-0.4-0.9-10.6,1.8-11.8,19c2.3,8.7,13.7,22.1,34.3,40.1
				l2.2,1.4l22.9-21.3L35.6,28.1z"/>
			
				<linearGradient id="Path_1_" gradientUnits="userSpaceOnUse" x1="-500.2939" y1="297.7292" x2="-500.9837" y2="297.7292" gradientTransform="matrix(72.2262 0 0 -73.1006 36168.2617 21758.377)">
				<stop  offset="0" style="stop-color:#FAD0BA"/>
				<stop  offset="1" style="stop-color:#F2A384"/>
			</linearGradient>
			<path id="Path" class="st36" d="M17.4-13.6c1.1,0.3,2.2,0.5,3.4,0.6c6.1,0.6,4.8,5.2,1.8,8.6c5.1,12.6,7,21.2,5.9,25.9
				c-1.7,7.2-12.6,11.4-34.6,8l-21.4-15.4c-4.6,4.5-9.1,3.6-13.4-2.8c-6.5-9.6,1.2-13.2,5.6-12.4c5.2-6.8,5.1-14.7-0.4-23.6
				c11.1-0.9,19.4-2.8,25-5.8c5.5-3,9.2-6.9,10.8-11.8c4.6,2.9,7.7,7.8,9.4,14.8L17.4-13.6z"/>
			
				<linearGradient id="SVGID_19_" gradientUnits="userSpaceOnUse" x1="-503.0138" y1="301.8682" x2="-503.7036" y2="301.8682" gradientTransform="matrix(20.9014 0 0 -28.9153 10532.9258 8700.7334)">
				<stop  offset="0" style="stop-color:#FAD0BA"/>
				<stop  offset="1" style="stop-color:#F2A384"/>
			</linearGradient>
			<path class="st37" d="M-3.2-36.6c1.4-1.7,2.5-3.7,3.2-5.7c4.6,2.9,7.7,7.8,9.4,14.8l8,14c0.1,0,0.2,0.1,0.4,0.1
				c-6.7,0.7-12.7-4.8-18-16.5C-1.4-32.4-2.3-34.6-3.2-36.6L-3.2-36.6z"/>
			
				<linearGradient id="Hair_1_" gradientUnits="userSpaceOnUse" x1="-499.8871" y1="295.9687" x2="-501.1944" y2="296.4128" gradientTransform="matrix(140.2412 0 0 -182.8119 70048.8984 54075.6719)">
				<stop  offset="0" style="stop-color:#092871"/>
				<stop  offset="1" style="stop-color:#2B68EE"/>
			</linearGradient>
			<path id="Hair" class="st38" d="M-71.8,17.5c-30,2.5-33-19.5-21-61.5s24.5-74.5-20-97s-103,21.5-60.5,75s28,88,71.5,98.5
				c29,7,47,2.8,54-12.5C-57.5,24.6-65.5,23.7-71.8,17.5z"/>
			
				<linearGradient id="Hairbands_1_" gradientUnits="userSpaceOnUse" x1="-503.7081" y1="307.0765" x2="-503.6555" y2="306.26" gradientTransform="matrix(20.4545 0 0 -17.1304 10237.8525 5275.416)">
				<stop  offset="0" style="stop-color:#FFE579"/>
				<stop  offset="1" style="stop-color:#FEC644"/>
			</linearGradient>
			<path id="Hairbands" class="st39" d="M-73.3,15c-2.7,5.3-1.7,10,3,14s10,4.2,16,0.5L-73.3,15z"/>
			
				<linearGradient id="SVGID_20_" gradientUnits="userSpaceOnUse" x1="-500.1604" y1="296.6682" x2="-501.4677" y2="297.1122" gradientTransform="matrix(93.991 0 0 -112.4526 47018.2773 33357.6719)">
				<stop  offset="0" style="stop-color:#092871"/>
				<stop  offset="1" style="stop-color:#2B68EE"/>
			</linearGradient>
			<path class="st40" d="M0.2-42c-1.7,11.7-10,19.3-25,23c1.7,9.3,0.5,15.7-3.5,19l3,8c-4.7-4.7-8.2-7-10.5-7c-3.5,0-9.5,4.5-4.5,11
				c3.3,4.3,7.5,5,12.5,2c8.3,1.7,18.5,7.5,30.5,17.5V39c-6.5,3-89.5,3.1-84-50c0.8-7.8,2.1-15,3.8-21.4h0
				c7.8-28.9,37.6-45.9,66.4-38.1c3.4,0.9,6.7,2.2,9.9,3.7C10.4-61,16.7-49.4,9.2-27.5l-1.3-4C6.5-35.7,3.8-39.4,0.2-42z"/>
			
				<linearGradient id="SVGID_21_" gradientUnits="userSpaceOnUse" x1="-500.0686" y1="295.9953" x2="-501.3759" y2="296.4393" gradientTransform="matrix(105.2387 0 0 -182.4283 52538.582 53962.5313)">
				<stop  offset="0" style="stop-color:#092871"/>
				<stop  offset="1" style="stop-color:#2B68EE"/>
			</linearGradient>
			<path class="st41" d="M-82.8,35.6c-5.7-0.4-12-1.4-19-3.1c-43.5-10.5-29-45-71.5-98.5c-33.2-41.8-4.8-77.8,30.5-80.8v0.3
				c-20.7,9.7-28.7,22.5-24,38.5c7,24,35.5,20.5,31.5,48.5s18.5,13.5,18.5,43C-116.8,2.9-101.2,27-82.8,35.6z"/>
			
				<linearGradient id="SVGID_22_" gradientUnits="userSpaceOnUse" x1="-501.3487" y1="300.9248" x2="-501.286" y2="301.4483" gradientTransform="matrix(48.9011 0 0 -34.7378 24522.998 10459.7676)">
				<stop  offset="0" style="stop-color:#F1A385;stop-opacity:0"/>
				<stop  offset="1" style="stop-color:#F2A384"/>
			</linearGradient>
			<path class="st42" d="M-20.2,19.5c2.5-5,7-7.7,13.5-8c15.3-0.7,25-5.8,29-15.5c0.3,0.4,0.6,0.8,0.9,1.2
				c4.6,11.7,6.3,19.9,5.3,24.4c-1.7,7.2-12.6,11.4-34.6,8L-20.2,19.5L-20.2,19.5z"/>
		</g>
		<g id="Body" transform="translate(213.000000, 184.000000)">
			
				<linearGradient id="SVGID_23_" gradientUnits="userSpaceOnUse" x1="-712.8341" y1="125.8222" x2="-712.9207" y2="125.3222" gradientTransform="matrix(123.2405 0 0 -60.0756 87732.3203 7411.1875)">
				<stop  offset="0" style="stop-color:#3485F7"/>
				<stop  offset="1" style="stop-color:#1A57CF"/>
			</linearGradient>
			<path class="st43" d="M-188.4-137.9c6.8-1,10.2-2.5,10.2-4.5c0-1.9-0.4-3.2-1.2-4c23.4-1.1,37.4-1.2,42.2-0.5
				c7.2,1.1,15.1,15.8,15.9,15.8s20.3,16.3,28.1,16.3c5.2,0,14.6,2.9,28,8.7l-20.1,18.9l-82.9-11L-188.4-137.9z"/>
		</g>
		<g id="foot" transform="translate(341.000000, 0.000000)">
			
				<linearGradient id="leg_1_" gradientUnits="userSpaceOnUse" x1="-842.7614" y1="316.3065" x2="-843.4513" y2="316.3065" gradientTransform="matrix(26.0148 0 0 -19.2497 21946.0508 6040.1885)">
				<stop  offset="0" style="stop-color:#FAD0BA"/>
				<stop  offset="1" style="stop-color:#F2A384"/>
			</linearGradient>
			<path id="leg" class="st44" d="M-3.7-39.2c-1.2-0.8-6.1-10.5,3.2-12.1c9.4-1.6,11.6-2,15.2-3.1c2.4-0.8,4.2-2,5.3-3.8l-1.3,12.8
				l-7.2,5.3C2.2-39-2.9-38.7-3.7-39.2z"/>
			
				<linearGradient id="Shoes_1_" gradientUnits="userSpaceOnUse" x1="-842.0802" y1="310.3244" x2="-843.0802" y2="310.3244" gradientTransform="matrix(34.462 0 0 -46.0059 29062.541 14222.9688)">
				<stop  offset="0" style="stop-color:#2865C6"/>
				<stop  offset="1" style="stop-color:#10378A"/>
			</linearGradient>
			<path id="Shoes" class="st45" d="M8.3-39c0-2.8,6.9-3.2,8.8-7.4c1.9-4.2-2.1-9.1-1.1-10c2.9-2.5,5.7-6.7,9.7-11
				c9.9-10.5,11.1-11.4,16.8-6.7C44-73.4,38.5-59,25.9-30.8c-3.5-0.2-6.6-0.8-9.3-1.9C12.6-34.3,8.3-36.2,8.3-39z"/>
			
				<linearGradient id="Pants_1_" gradientUnits="userSpaceOnUse" x1="-840.679" y1="307.2403" x2="-840.6267" y2="306.4818" gradientTransform="matrix(194.6766 0 0 -198.3857 163567.6406 60950.0977)">
				<stop  offset="0" style="stop-color:#1542AB"/>
				<stop  offset="1" style="stop-color:#2B68EE"/>
			</linearGradient>
			<path id="Pants" class="st46" d="M-119.6-40.7C-105.2-47.9-3.4-60.2,3.3-56.6c3.6,2,4,8.8,1.1,20.5c-0.6,2.4-2.4,4.3-4.7,5
				C-49.1-15.9-74.3-9-75.9-10.2c-2.4-1.9-38.6,105.3-50.4,123.7s-26.4,45.8-51.1,11c-16.4-23.2-14.5-38.7,5.8-46.6
				C-146.6,3.7-129.2-35.8-119.6-40.7z"/>
			
				<linearGradient id="SVGID_24_" gradientUnits="userSpaceOnUse" x1="-842.9937" y1="314.1057" x2="-843.6835" y2="314.1057" gradientTransform="matrix(24.188 0 0 -24.4895 20435.6191 7580.6401)">
				<stop  offset="0" style="stop-color:#FAD0BA"/>
				<stop  offset="1" style="stop-color:#F2A384"/>
			</linearGradient>
			<path class="st47" d="M23.6-99.5c-1.4-0.5-8.7-8.5,0-12.5c8.6-3.9,10.7-4.9,13.8-6.9c2.1-1.4,3.5-3,4.1-5l2.1,12.7l-5.6,7
				C29.3-100.7,24.5-99.1,23.6-99.5z"/>
			
				<linearGradient id="SVGID_25_" gradientUnits="userSpaceOnUse" x1="-840.6234" y1="307.3481" x2="-840.7098" y2="306.8481" gradientTransform="matrix(181.4778 0 0 -240.8367 152509.0938 73902.2656)">
				<stop  offset="0" style="stop-color:#3485F7"/>
				<stop  offset="1" style="stop-color:#1A57CF"/>
			</linearGradient>
			<path class="st48" d="M-96.4-58.1C-81.9-74.6,19-118.5,26.4-117.1c4.1,0.8,5.7,7.4,4.8,19.9c-0.2,2.3-1.6,4.2-3.6,5.1
				c-22,9.4-50.3,27.2-84.9,53.5c-4.3,54.3-8.3,88.6-12,102.7c-5.5,21.2-25.4,78.7-59.6,53.2c-22.8-17-27.1-40.9-13-71.7
				C-121.3-12.5-106.1-47-96.4-58.1z"/>
			<path class="st49" d="M24.7-111c-57.7,28.3-93,48.3-106,60S-98.8-1.1-94.8,63.5"/>
			
				<linearGradient id="SVGID_26_" gradientUnits="userSpaceOnUse" x1="-843.0081" y1="310.1222" x2="-844.0081" y2="310.1222" gradientTransform="matrix(24.6203 0 0 -48.274 20814.9492 14848.4863)">
				<stop  offset="0" style="stop-color:#2865C6"/>
				<stop  offset="1" style="stop-color:#10378A"/>
			</linearGradient>
			<path class="st50" d="M35.3-102.3c-0.7-2.7,5.9-4.8,6.6-9.4c0.7-4.6-4.4-8.3-3.6-9.4c2.2-3.2,3.8-8,6.5-13.1
				c6.9-12.7,7.7-13.9,14.5-10.8c1.6,0.2-0.1,15.6-4.9,46.1c-3.5,0.7-6.6,0.9-9.5,0.5C40.6-98.9,36-99.7,35.3-102.3z"/>
		</g>
		<g transform="translate(178.000000, 119.000000)">
			
				<linearGradient id="Jacket-base_1_" gradientUnits="userSpaceOnUse" x1="-677.57" y1="188.1919" x2="-677.3972" y2="187.3533" gradientTransform="matrix(296.6977 0 0 -197.7859 200980.7656 37140.1953)">
				<stop  offset="0" style="stop-color:#84F0A8"/>
				<stop  offset="1" style="stop-color:#48B676"/>
			</linearGradient>
			<path id="Jacket-base" class="st51" d="M-171.2-69.9c8-9,13.8-13.5,17.4-13.5c5.4,0,5.4,6.5,9.4,8.3c11.9,5.4,86.5,53,133.8,12.6
				s47.1-84.3,56.2-84.3s42,45.8,51.7,74.7c5.9,17.6,9.5,36.3,10.7,56.2c0.2,3.7-1.2,7.2-4,9.7C55.8,37.1,5.4,55.8-47.3,50
				c-81.3-9-134.3-68.2-140.2-91.8C-191.4-57.6-186-66.9-171.2-69.9z"/>
			<path id="Texture-Copy" class="st52" d="M32.7,39.4c-2.4,0.9-4.8,1.8-7.2,2.6l-0.6-2.2l-8.6,2.3c-2,0.5-4.1-0.7-4.7-2.7
				c-0.5-2,0.7-4.1,2.7-4.7l8.6-2.3l-2.3-8.6c-0.4-1.4,0.1-2.8,1.1-3.8c1.2-0.3,2.4-0.6,3.5-0.9c1.3,0.3,2.4,1.3,2.8,2.7l2.3,8.6
				l8.6-2.3c2-0.5,4.1,0.7,4.7,2.7c0.5,2-0.7,4.1-2.7,4.7l-8.6,2.3L32.7,39.4z M-125.2,4.4c-7.9,0-14.2-6.4-14.2-14.2
				S-133-24-125.2-24s14.2,6.4,14.2,14.2S-117.3,4.4-125.2,4.4z M-125.2-4.1c3.1,0,5.7-2.5,5.7-5.7s-2.5-5.7-5.7-5.7
				s-5.7,2.5-5.7,5.7S-128.3-4.1-125.2-4.1z M-34.4-26.3l6.3,6.3c1.5,1.5,1.5,3.9,0,5.4c-1.5,1.5-3.9,1.5-5.4,0l-6.3-6.3l-6.3,6.3
				c-1.5,1.5-3.9,1.5-5.4,0c-1.5-1.5-1.5-3.9,0-5.4l6.3-6.3l-6.3-6.3c-1.5-1.5-1.5-3.9,0-5.4c1.5-1.5,3.9-1.5,5.4,0l6.3,6.3l6.3-6.3
				c1.5-1.5,3.9-1.5,5.4,0c1.5,1.5,1.5,3.9,0,5.4L-34.4-26.3z M52.7-93.4l6.3,6.3c1.5,1.5,1.5,3.9,0,5.4c-1.5,1.5-3.9,1.5-5.4,0
				L47.3-88L41-81.7c-1.5,1.5-3.9,1.5-5.4,0c-1.5-1.5-1.5-3.9,0-5.4l6.3-6.3l-6.3-6.3c-1.5-1.5-1.5-3.9,0-5.4c1.5-1.5,3.9-1.5,5.4,0
				l6.3,6.3l6.3-6.3c1.5-1.5,3.9-1.5,5.4,0c1.5,1.5,1.5,3.9,0,5.4L52.7-93.4z M-62.9,40.2c-8.6,0-15.5-7-15.5-15.5s7-15.5,15.5-15.5
				s15.5,7,15.5,15.5S-54.3,40.2-62.9,40.2z M-62.9,30.9c3.4,0,6.2-2.8,6.2-6.2s-2.8-6.2-6.2-6.2s-6.2,2.8-6.2,6.2
				S-66.3,30.9-62.9,30.9z M21.5-19.5C13-19.5,6-26.4,6-35s7-15.5,15.5-15.5c8.6,0,15.5,7,15.5,15.5S30.1-19.5,21.5-19.5z
				 M21.5-28.8c3.4,0,6.2-2.8,6.2-6.2s-2.8-6.2-6.2-6.2s-6.2,2.8-6.2,6.2S18.1-28.8,21.5-28.8z"/>
			<path id="Shedow" class="st53" d="M-71.3-47.4c13.8,1.9,28,1.4,41.2-3.6c-2.9,12.5-9.8,25-20.5,37.4
				C-80.5,21-171.3-12.7-180-28.1s2-39.9,19.4-43.5c6.1-1.2,10,28.4,19.3,32.6c17.4,7.9,42.8-6.2,59.3-6.2
				C-78-45.2-74.4-45.9-71.3-47.4z"/>
			
				<linearGradient id="SVGID_27_" gradientUnits="userSpaceOnUse" x1="-677.6239" y1="189.0913" x2="-677.5188" y2="187.6762" gradientTransform="matrix(245.1655 0 0 -122.9795 166105.8906 23187.2676)">
				<stop  offset="0" style="stop-color:#46C36F;stop-opacity:0"/>
				<stop  offset="1" style="stop-color:#4DBB7A"/>
			</linearGradient>
			<path class="st54" d="M97.3-71.9c5.9,17.6,9.4,36.3,10.7,56.1c0.2,3.7-1.2,7.2-4,9.7C55.8,37.1,5.4,55.8-47.3,50
				c-36.1-4-66.6-17.9-89.9-34.2c1,0.4,2,0.8,2.9,1.2c92.5,38.5,58.5,2.5,128,5s38.5-34.5,71.5-43.5C87-27.4,97.6-44.2,97.3-71.9z"
				/>
			<path class="st55" d="M43.7-132C21.4-72.6-10.4-41.3-51.8-38"/>
			<path id="texture" class="st55" d="M28.8-63.9L28.8-63.9c-0.3-0.3-0.5-0.6-0.6-0.9c-0.5-1.3,0.1-2.7,1.4-3.2l2.6-1
				c0.8-0.3,1.6-0.3,2.4,0.1l17,7.7c2.3,1,3.7,3.4,3.5,5.9l-1.5,20.6c-0.1,1.3-1,2.4-2.3,2.7l-1.3,0.3c0,0,0,0,0,0
				c-1.6,0.4-3.2-0.7-3.6-2.3l0,0c-1.4-6.4-3.5-12-6.4-16.7C37.1-55.3,33.4-59.7,28.8-63.9z"/>
			<circle class="st56" cx="50.9" cy="-56.6" r="1.7"/>
			<circle class="st57" cx="-154.2" cy="-78" r="2.5"/>
			<path class="st58" d="M43.7-132C75.4-98.3,93.2-57.1,97.2-8.5"/>
		</g>
		<g transform="translate(182.000000, 126.000000)">
			
				<linearGradient id="SVGID_28_" gradientUnits="userSpaceOnUse" x1="-683.4378" y1="183.4873" x2="-684.1276" y2="183.4873" gradientTransform="matrix(29.0746 0 0 -57.115 19835.4141 10361.6768)">
				<stop  offset="0" style="stop-color:#FAD0BA"/>
				<stop  offset="1" style="stop-color:#F2A384"/>
			</linearGradient>
			<path class="st59" d="M-54.5-89.6l-1-19.1c-3.2-4.9-4.8-10-4.8-15.2c0-7.4-8.1-11.3-5.8-13.5c0.5-0.4,2.5-0.8,5,0
				c2.3,0.8,5.1,7.3,7.6,8.4c1.1,0.5,2.3-3.1,3-5.4c0.6-1.7,1-5.3,1-6.2s-1-4.9-1-5.8c4-1.8,11.8,4.2,12.7,8.2
				c1.2,4.7-0.4,12.5-4.8,23.2l2.4,23.5L-54.5-89.6z"/>
			
				<linearGradient id="Sleeve_1_" gradientUnits="userSpaceOnUse" x1="-681.3219" y1="182.283" x2="-682.241" y2="182.0781" gradientTransform="matrix(155.8944 0 0 -89.135 106174.0859 16184.0576)">
				<stop  offset="0" style="stop-color:#7BE7A1"/>
				<stop  offset="1" style="stop-color:#84F0A8"/>
			</linearGradient>
			<path id="Sleeve" class="st60" d="M-57.7-101.1c-5.5,32-16.6,48.1-33.5,48.1c-25.3,0-62.4-29.7-79.8-26.2
				c-17.4,3.6-21.6,18.7-13,34.1S-84.5,4-54.6-30.6c19.9-23,26.4-46.2,19.5-69.4c-2.9-2.9-6.3-4.5-10.2-4.7
				C-49.2-104.8-53.3-103.7-57.7-101.1z"/>
			
				<linearGradient id="Shape_1_" gradientUnits="userSpaceOnUse" x1="-683.8323" y1="186.89" x2="-683.8323" y2="185.89" gradientTransform="matrix(31.0863 0 0 -31.0863 21105.3672 5742.1616)">
				<stop  offset="0" style="stop-color:#A0ECC3"/>
				<stop  offset="1" style="stop-color:#67D490"/>
			</linearGradient>
			<path id="Shape" class="st61" d="M-152.5-36.5c-8.6,0-15.5-7-15.5-15.5s7-15.5,15.5-15.5c8.6,0,15.5,7,15.5,15.5
				S-143.9-36.5-152.5-36.5z M-152.5-45.8c3.4,0,6.2-2.8,6.2-6.2c0-3.4-2.8-6.2-6.2-6.2s-6.2,2.8-6.2,6.2
				C-158.7-48.6-155.9-45.8-152.5-45.8z"/>
			<path class="st55" d="M-175.3-61.5c48.7,25.3,83.3,32,104,20s29-31.7,25-59"/>
		</g>
	</g>
	<g id="Chart" transform="translate(582.000000, 331.000000)">
		
			<linearGradient id="Char-base_1_" gradientUnits="userSpaceOnUse" x1="-690.2" y1="349.4293" x2="-691.3542" y2="347.9297" gradientTransform="matrix(145.1376 0 0 -122.5102 100147.2969 42625.8906)">
			<stop  offset="0" style="stop-color:#E5EDFF"/>
			<stop  offset="1" style="stop-color:#6B9AD9"/>
		</linearGradient>
		<path id="Char-base" class="st62" d="M-186.3-115.3l117.8-31.6c1.1-0.3,2.2,0.3,2.4,1.4l23.3,86.9c0.3,1.1-0.3,2.2-1.4,2.4
			L-162-24.5c-1.1,0.3-2.2-0.3-2.4-1.4l-23.3-86.9C-188-113.9-187.4-115-186.3-115.3z"/>
		
			<linearGradient id="SVGID_29_" gradientUnits="userSpaceOnUse" x1="-690.7716" y1="349.1852" x2="-691.6097" y2="346.4373" gradientTransform="matrix(133.9083 0 0 -104.9169 92397.3125 36524.9961)">
			<stop  offset="0" style="stop-color:#F7FAFF"/>
			<stop  offset="1" style="stop-color:#6B9AD9"/>
		</linearGradient>
		<polygon class="st63" points="-67.1,-133.8 -47.1,-59.4 -161.1,-28.9 -181,-103.3 		"/>
		<path class="st64" d="M-178.2-108.2c-1.1,0.3-2.2-0.3-2.4-1.4c-0.3-1.1,0.3-2.2,1.4-2.4c1.1-0.3,2.2,0.3,2.4,1.4
			C-176.5-109.5-177.1-108.4-178.2-108.2z"/>
		<path class="st64" d="M-171.4-110c-1.1,0.3-2.2-0.3-2.4-1.4c-0.3-1.1,0.3-2.2,1.4-2.4c1.1-0.3,2.2,0.3,2.4,1.4
			C-169.7-111.3-170.4-110.3-171.4-110z"/>
		
			<linearGradient id="SVGID_30_" gradientUnits="userSpaceOnUse" x1="-690.5848" y1="350.4834" x2="-691.739" y2="348.9838" gradientTransform="matrix(84.8295 0 0 -73.9986 58520.5352 25795.0566)">
			<stop  offset="0" style="stop-color:#E5EDFF"/>
			<stop  offset="1" style="stop-color:#6B9AD9"/>
		</linearGradient>
		<polygon class="st65" points="-151.9,-45 -156.2,-47.6 -139.8,-74.5 -120.4,-71.1 -106.3,-99.8 -89.2,-94.3 -75.7,-119 
			-71.3,-116.6 -86.8,-88.3 -103.7,-93.7 -117.6,-65.5 -137.3,-69 		"/>
	</g>
</g>
</svg>
